Fraunces9ptSharp-Light.ufo
<glyph name="exclam" format="2">
  <advance width="599.6"/>
  <unicode hex="0021"/>
  <outline>
    <contour>
      <point x="299.4" y="1468.3999999999999" type="curve" smooth="yes"/>
      <point x="233.39999999999998" y="1468.3999999999999"/>
      <point x="205.20000000000002" y="1429.0"/>
      <point x="205.20000000000002" y="1373.0" type="curve" smooth="yes"/>
      <point x="205.20000000000002" y="1348.4"/>
      <point x="207.39999999999998" y="1321.6000000000001"/>
      <point x="211.2" y="1296.8000000000002" type="curve" smooth="yes"/>
      <point x="264.4" y="458.8" type="line" smooth="yes"/>
      <point x="268.8" y="426.4"/>
      <point x="278.8" y="412.40000000000003"/>
      <point x="299.4" y="412.40000000000003" type="curve" smooth="yes"/>
      <point x="320.0" y="412.40000000000003"/>
      <point x="330.0" y="426.3999999999999"/>
      <point x="334.4" y="458.8" type="curve" smooth="yes"/>
      <point x="387.59999999999997" y="1296.8" type="line" smooth="yes"/>
      <point x="391.4" y="1321.6000000000001"/>
      <point x="393.59999999999997" y="1348.4"/>
      <point x="393.59999999999997" y="1373.0" type="curve" smooth="yes"/>
      <point x="393.59999999999997" y="1429.0"/>
      <point x="365.4" y="1468.3999999999999"/>
    </contour>
    <component base="period" xOffset="83.40000000000002"/>
  </outline>
</glyph>
<glyph name="numbersign" format="2">
  <advance width="1279.3999999999999"/>
  <unicode hex="0023"/>
  <outline>
    <contour>
      <point x="499.40000000000003" y="688.6" type="curve" smooth="yes"/>
      <point x="539.7999999999998" y="841.4"/>
      <point x="649.6" y="1184.0000000000002"/>
      <point x="689.0" y="1331.8000000000002" type="curve" smooth="yes"/>
      <point x="697.9999999999999" y="1364.8"/>
      <point x="690.0" y="1392.0"/>
      <point x="659.5999999999999" y="1397.6" type="curve" smooth="yes"/>
      <point x="634.2" y="1402.2"/>
      <point x="616.0" y="1387.0"/>
      <point x="606.8" y="1355.0" type="curve" smooth="yes"/>
      <point x="562.6000000000001" y="1186.6"/>
      <point x="481.0" y="850.4"/>
      <point x="441.8" y="704.8000000000001" type="curve" smooth="yes"/>
      <point x="401.20000000000005" y="550.8"/>
      <point x="288.0" y="208.2"/>
      <point x="248.8" y="61.800000000000004" type="curve" smooth="yes"/>
      <point x="240.00000000000003" y="28.800000000000004"/>
      <point x="248.0" y="1.8000000000000007"/>
      <point x="278.20000000000005" y="-3.9999999999999987" type="curve" smooth="yes"/>
      <point x="303.6" y="-8.600000000000001"/>
      <point x="321.8" y="6.6"/>
      <point x="331.0" y="38.8" type="curve" smooth="yes"/>
      <point x="376.0" y="209.4"/>
      <point x="460.6" y="543.5999999999999"/>
    </contour>
    <contour>
      <point x="683.0" y="956.2" type="curve" smooth="yes"/>
      <point x="569.9999999999999" y="955.8"/>
      <point x="315.6" y="969.8"/>
      <point x="187.19999999999996" y="969.5999999999999" type="curve" smooth="yes"/>
      <point x="153.0" y="969.4000000000001"/>
      <point x="129.39999999999998" y="955.4"/>
      <point x="129.39999999999998" y="929.4000000000001" type="curve" smooth="yes"/>
      <point x="129.59999999999997" y="903.8"/>
      <point x="153.0" y="889.4"/>
      <point x="187.2" y="889.6" type="curve" smooth="yes"/>
      <point x="300.6" y="889.4"/>
      <point x="564.4" y="901.0"/>
      <point x="682.8" y="901.4" type="curve" smooth="yes"/>
      <point x="800.9999999999999" y="901.4"/>
      <point x="1063.0" y="888.6000000000001"/>
      <point x="1175.8" y="888.4000000000001" type="curve" smooth="yes"/>
      <point x="1210.0" y="888.6"/>
      <point x="1233.3999999999999" y="903.0000000000001"/>
      <point x="1233.8" y="928.8000000000001" type="curve" smooth="yes"/>
      <point x="1233.3999999999999" y="954.4"/>
      <point x="1209.8" y="968.6000000000001"/>
      <point x="1175.9999999999998" y="968.6000000000001" type="curve" smooth="yes"/>
      <point x="1048.2" y="968.2"/>
      <point x="796.0" y="956.2"/>
    </contour>
    <contour>
      <point x="599.0" y="464.40000000000003" type="curve" smooth="yes"/>
      <point x="717.0" y="464.40000000000003"/>
      <point x="979.0" y="451.8"/>
      <point x="1091.9999999999998" y="451.40000000000003" type="curve" smooth="yes"/>
      <point x="1126.1999999999998" y="451.8"/>
      <point x="1149.6" y="466.0"/>
      <point x="1150.0" y="491.79999999999995" type="curve" smooth="yes"/>
      <point x="1149.6" y="517.4"/>
      <point x="1126.0" y="531.6"/>
      <point x="1092.1999999999998" y="531.6" type="curve" smooth="yes"/>
      <point x="964.3999999999999" y="531.2"/>
      <point x="712.1999999999999" y="519.2"/>
      <point x="599.1999999999999" y="519.2" type="curve" smooth="yes"/>
      <point x="486.20000000000005" y="519.0"/>
      <point x="231.59999999999997" y="532.8"/>
      <point x="103.4" y="532.6" type="curve" smooth="yes"/>
      <point x="69.19999999999999" y="532.6"/>
      <point x="45.6" y="518.6"/>
      <point x="45.6" y="492.6" type="curve" smooth="yes"/>
      <point x="45.800000000000004" y="466.99999999999994"/>
      <point x="69.19999999999999" y="452.6"/>
      <point x="103.39999999999999" y="452.6" type="curve" smooth="yes"/>
      <point x="216.8" y="452.59999999999997"/>
      <point x="480.6" y="464.2"/>
    </contour>
    <contour>
      <point x="668.4" y="38.8" type="curve" smooth="yes"/>
      <point x="713.3999999999999" y="209.39999999999998"/>
      <point x="798.0" y="543.5999999999999"/>
      <point x="836.8000000000001" y="688.6" type="curve" smooth="yes"/>
      <point x="877.2" y="841.2"/>
      <point x="986.9999999999999" y="1184.0"/>
      <point x="1026.2" y="1331.6000000000001" type="curve" smooth="yes"/>
      <point x="1035.4" y="1364.6"/>
      <point x="1027.4" y="1392.0"/>
      <point x="997.0000000000001" y="1397.6" type="curve" smooth="yes"/>
      <point x="971.5999999999999" y="1402.2"/>
      <point x="953.4" y="1387.0"/>
      <point x="944.4" y="1354.8" type="curve" smooth="yes"/>
      <point x="900.0" y="1186.6"/>
      <point x="818.5999999999999" y="850.6"/>
      <point x="779.4" y="704.8000000000001" type="curve" smooth="yes"/>
      <point x="738.5999999999999" y="550.8"/>
      <point x="625.4000000000001" y="208.2"/>
      <point x="586.1999999999999" y="61.800000000000004" type="curve" smooth="yes"/>
      <point x="577.3999999999999" y="28.800000000000004"/>
      <point x="585.4" y="1.8000000000000007"/>
      <point x="615.5999999999999" y="-3.9999999999999987" type="curve" smooth="yes"/>
      <point x="641.0" y="-8.600000000000001"/>
      <point x="659.2" y="6.6"/>
    </contour>
  </outline>
</glyph>
<glyph name="dollar" format="2">
  <advance width="1159.8"/>
  <unicode hex="0024"/>
  <outline>
    <contour>
      <point x="597.2" y="1390.8" type="curve" smooth="yes"/>
      <point x="323.95247058823526" y="1390.8"/>
      <point x="143.0" y="1226.2000000000003"/>
      <point x="143.0" y="1023.4" type="curve" smooth="yes"/>
      <point x="143.0" y="851.7136842105264"/>
      <point x="243.8967093771284" y="722.2309524088739"/>
      <point x="545.2" y="628.6000000000001" type="curve" smooth="yes"/>
      <point x="810.2989266055384" y="549.4292483449175"/>
      <point x="893.1999999999999" y="451.2"/>
      <point x="893.1999999999999" y="308.79999999999995" type="curve" smooth="yes"/>
      <point x="893.1999999999999" y="145.8"/>
      <point x="770.6477064220182" y="49.99999999999999"/>
      <point x="584.1999999999999" y="49.99999999999999" type="curve" smooth="yes"/>
      <point x="400.09999999999997" y="49.99999999999999"/>
      <point x="288.59999999999997" y="148.6"/>
      <point x="288.59999999999997" y="277.6" type="curve" smooth="yes"/>
      <point x="288.59999999999997" y="336.8" type="line" smooth="yes"/>
      <point x="288.59999999999997" y="385.59999999999997"/>
      <point x="257.8" y="416.2"/>
      <point x="214.79999999999995" y="416.2" type="curve" smooth="yes"/>
      <point x="166.20000000000002" y="416.2"/>
      <point x="133.4" y="376.4"/>
      <point x="133.4" y="317.8" type="curve" smooth="yes"/>
      <point x="133.4" y="149.6"/>
      <point x="323.68391608391613" y="6.400000000000002"/>
      <point x="584.9999999999999" y="6.400000000000002" type="curve" smooth="yes"/>
      <point x="860.0222222222222" y="6.400000000000002"/>
      <point x="1028.8" y="152.80000000000004"/>
      <point x="1028.8" y="360.0" type="curve" smooth="yes"/>
      <point x="1028.8" y="521.0"/>
      <point x="916.1999999999998" y="654.6"/>
      <point x="619.6" y="746.6" type="curve" smooth="yes"/>
      <point x="358.40000000000003" y="825.8000000000001"/>
      <point x="277.8" y="930.1999999999999"/>
      <point x="277.8" y="1068.0" type="curve" smooth="yes"/>
      <point x="277.8" y="1234.0"/>
      <point x="400.5618233618234" y="1349.6"/>
      <point x="590.1999999999999" y="1349.6" type="curve" smooth="yes"/>
      <point x="756.3944444444444" y="1349.6"/>
      <point x="857.1999999999999" y="1256.3610619469025"/>
      <point x="857.1999999999999" y="1128.4" type="curve" smooth="yes"/>
      <point x="857.1999999999999" y="1077.0" type="line" smooth="yes"/>
      <point x="857.1999999999999" y="1033.0"/>
      <point x="891.8" y="1002.8000000000001"/>
      <point x="938.6" y="1002.8000000000001" type="curve" smooth="yes"/>
      <point x="982.0" y="1002.8000000000001"/>
      <point x="1013.6" y="1038.0"/>
      <point x="1013.6" y="1094.4" type="curve" smooth="yes"/>
      <point x="1013.6" y="1262.8989323843418"/>
      <point x="854.4067885117494" y="1390.8"/>
    </contour>
    <contour>
      <point x="615.1999999999999" y="712.8" type="line"/>
      <point x="613.5999999999999" y="1287.0"/>
      <point x="647.8" y="1420.2"/>
      <point x="647.8" y="1495.8" type="curve" smooth="yes"/>
      <point x="647.8" y="1534.0"/>
      <point x="621.6" y="1553.6000000000001"/>
      <point x="591.1999999999999" y="1553.6000000000001" type="curve" smooth="yes"/>
      <point x="560.0" y="1553.6000000000001"/>
      <point x="534.5999999999999" y="1533.8"/>
      <point x="534.5999999999999" y="1496.2" type="curve" smooth="yes"/>
      <point x="534.5999999999999" y="1417.6000000000001"/>
      <point x="564.2" y="1286.0"/>
      <point x="562.4" y="712.8" type="curve"/>
    </contour>
    <contour>
      <point x="556.5999999999999" y="676.0" type="line"/>
      <point x="557.1999999999999" y="123.60000000000002"/>
      <point x="528.6" y="-5.599999999999998"/>
      <point x="528.6" y="-83.0" type="curve" smooth="yes"/>
      <point x="528.6" y="-121.19999999999999"/>
      <point x="554.6" y="-140.8"/>
      <point x="585.1999999999999" y="-140.8" type="curve" smooth="yes"/>
      <point x="616.3999999999999" y="-140.8"/>
      <point x="641.7999999999998" y="-121.0"/>
      <point x="641.7999999999998" y="-83.4" type="curve" smooth="yes"/>
      <point x="641.7999999999998" y="-8.199999999999996"/>
      <point x="608.1999999999999" y="122.79999999999993"/>
      <point x="609.2" y="676.0" type="curve"/>
    </contour>
  </outline>
</glyph>
<glyph name="ampersand" format="2">
  <advance width="1448.4"/>
  <unicode hex="0026"/>
  <outline>
    <contour>
      <point x="622.2" y="1370.8000000000002" type="curve" smooth="yes"/>
      <point x="482.2334600760457" y="1370.8000000000002"/>
      <point x="395.2" y="1257.6"/>
      <point x="395.2" y="1100.2" type="curve" smooth="yes"/>
      <point x="395.2" y="950.8"/>
      <point x="459.55940660352644" y="839.9826643496399"/>
      <point x="602.2" y="793.4" type="curve" smooth="yes"/>
      <point x="693.5076490345039" y="763.432195749439"/>
      <point x="742.2223629366789" y="721.4508088258674"/>
      <point x="816.8000000000001" y="626.8" type="curve" smooth="yes"/>
      <point x="1196.3999999999999" y="142.0" type="line" smooth="yes"/>
      <point x="1235.1999999999998" y="92.59999999999997"/>
      <point x="1264.6000000000001" y="74.20000000000002"/>
      <point x="1326.3999999999999" y="69.39999999999999" type="curve" smooth="yes"/>
      <point x="1359.3999999999999" y="66.8"/>
      <point x="1375.0" y="57.0"/>
      <point x="1375.0" y="38.0" type="curve" smooth="yes"/>
      <point x="1375.0" y="17.4"/>
      <point x="1357.8" y="7.2"/>
      <point x="1324.8" y="7.2" type="curve" smooth="yes"/>
      <point x="1185.3999999999999" y="7.2" type="line" smooth="yes"/>
      <point x="1135.0" y="7.2"/>
      <point x="1103.8000000000002" y="17.6"/>
      <point x="1073.8" y="55.60000000000001" type="curve" smooth="yes"/>
      <point x="684.0000000000001" y="557.4" type="line" smooth="yes"/>
      <point x="610.5999999999999" y="651.8"/>
      <point x="565.4" y="688.2"/>
      <point x="500.99999999999994" y="708.5999999999999" type="curve" smooth="yes"/>
      <point x="329.0" y="764.2"/>
      <point x="245.60000000000002" y="888.8473520249221"/>
      <point x="245.60000000000002" y="1056.6" type="curve" smooth="yes"/>
      <point x="245.60000000000002" y="1265.8"/>
      <point x="403.79999999999995" y="1422.2"/>
      <point x="636.0" y="1422.2" type="curve" smooth="yes"/>
      <point x="855.3399999999999" y="1422.2"/>
      <point x="996.0" y="1287.369230769231"/>
      <point x="996.0" y="1111.4" type="curve" smooth="yes"/>
      <point x="996.0" y="903.7766233766233"/>
      <point x="865.2065383322803" y="765.9216705228802"/>
      <point x="619.0" y="732.6" type="curve"/>
      <point x="603.8" y="767.6000000000001" type="line"/>
      <point x="767.5141689888125" y="796.1693396475938"/>
      <point x="846.4" y="916.2006042296073"/>
      <point x="846.4" y="1093.4" type="curve" smooth="yes"/>
      <point x="846.4" y="1269.44966442953"/>
      <point x="754.4711462450593" y="1370.8000000000002"/>
    </contour>
    <contour>
      <point x="544.4" y="705.5999999999999" type="line"/>
      <point x="362.63899108435146" y="681.2054154283821"/>
      <point x="259.0" y="549.1574124577289"/>
      <point x="259.0" y="396.4" type="curve" smooth="yes"/>
      <point x="259.0" y="185.0"/>
      <point x="380.4" y="59.39999999999998"/>
      <point x="579.0" y="59.39999999999998" type="curve" smooth="yes"/>
      <point x="733.1999999999999" y="59.39999999999998"/>
      <point x="864.5999999999999" y="134.60000000000002"/>
      <point x="946.0" y="284.4" type="curve"/>
      <point x="988.0" y="249.79999999999995" type="line"/>
      <point x="888.2464131872757" y="81.42903569599872"/>
      <point x="747.7983228511529" y="-22.8"/>
      <point x="517.0" y="-22.8" type="curve" smooth="yes"/>
      <point x="250.60000000000002" y="-22.8"/>
      <point x="104.80000000000001" y="149.96363636363634"/>
      <point x="104.80000000000001" y="352.8" type="curve" smooth="yes"/>
      <point x="104.80000000000001" y="556.4135954135954"/>
      <point x="262.34398888826695" y="716.1949463658586"/>
      <point x="542.0000000000001" y="739.2" type="curve"/>
    </contour>
    <contour>
      <point x="1013.1999999999999" y="325.4" type="line"/>
      <point x="1135.6" y="572.0" type="line" smooth="yes"/>
      <point x="1168.8000000000002" y="630.4"/>
      <point x="1163.4" y="662.4000000000001"/>
      <point x="1114.8000000000002" y="675.1999999999999" type="curve" smooth="yes"/>
      <point x="1041.4" y="691.1999999999999" type="line" smooth="yes"/>
      <point x="1016.6" y="697.6000000000001"/>
      <point x="1007.2" y="706.4"/>
      <point x="1007.2" y="719.4000000000001" type="curve" smooth="yes"/>
      <point x="1007.2" y="735.8"/>
      <point x="1021.6" y="748.5999999999999"/>
      <point x="1046.4" y="748.5999999999999" type="curve" smooth="yes"/>
      <point x="1350.0000000000002" y="748.5999999999999" type="line" smooth="yes"/>
      <point x="1377.1999999999998" y="748.5999999999999"/>
      <point x="1390.0" y="738.2"/>
      <point x="1390.0" y="720.1999999999999" type="curve" smooth="yes"/>
      <point x="1390.0" y="704.8"/>
      <point x="1380.2" y="695.8"/>
      <point x="1352.8000000000002" y="686.6000000000001" type="curve" smooth="yes"/>
      <point x="1280.8" y="668.6"/>
      <point x="1250.2" y="641.8"/>
      <point x="1209.0" y="575.2" type="curve" smooth="yes"/>
      <point x="1048.4" y="283.79999999999995" type="line"/>
    </contour>
  </outline>
</glyph>
<glyph name="quotesingle" format="2">
  <advance width="274.4"/>
  <unicode hex="0027"/>
  <outline>
    <contour>
      <point x="134.0" y="956.0" type="curve" smooth="yes"/>
      <point x="152.19999999999996" y="956.0"/>
      <point x="164.6" y="967.0"/>
      <point x="167.99999999999997" y="993.4" type="curve" smooth="yes"/>
      <point x="208.59999999999997" y="1418.6" type="line" smooth="yes"/>
      <point x="219.17989166191373" y="1504.3476247030248"/>
      <point x="192.9711872826627" y="1545.0"/>
      <point x="137.39999999999998" y="1545.0" type="curve" smooth="yes"/>
      <point x="81.98863636363636" y="1545.0"/>
      <point x="55.37245139041748" y="1501.0518666079683"/>
      <point x="64.8" y="1418.4" type="curve" smooth="yes"/>
      <point x="99.60000000000002" y="993.8000000000001" type="line" smooth="yes"/>
      <point x="102.6" y="968.0"/>
      <point x="116.8" y="956.0"/>
    </contour>
  </outline>
</glyph>
<glyph name="parenleft" format="2">
  <advance width="656.5999999999999"/>
  <unicode hex="0028"/>
  <outline>
    <contour>
      <point x="150.0" y="611.4" type="curve" smooth="yes"/>
      <point x="150.0" y="221.0"/>
      <point x="342.6" y="-123.99999999999999"/>
      <point x="579.3999999999999" y="-248.8" type="curve" smooth="yes"/>
      <point x="607.4" y="-261.99999999999994"/>
      <point x="625.1999999999999" y="-262.79999999999995"/>
      <point x="634.1999999999999" y="-248.79999999999998" type="curve" smooth="yes"/>
      <point x="643.1999999999999" y="-235.6"/>
      <point x="636.5999999999999" y="-221.0"/>
      <point x="611.2" y="-197.2" type="curve" smooth="yes"/>
      <point x="416.2" y="-31.60000000000001"/>
      <point x="288.0" y="268.40000000000003"/>
      <point x="288.0" y="611.4" type="curve" smooth="yes"/>
      <point x="288.0" y="954.4000000000001"/>
      <point x="416.2" y="1254.4"/>
      <point x="611.2" y="1420.0" type="curve" smooth="yes"/>
      <point x="636.5999999999999" y="1443.8"/>
      <point x="643.1999999999999" y="1458.4"/>
      <point x="634.1999999999999" y="1471.6000000000001" type="curve" smooth="yes"/>
      <point x="625.1999999999999" y="1485.6000000000001"/>
      <point x="607.4" y="1484.8"/>
      <point x="579.3999999999999" y="1471.6000000000001" type="curve" smooth="yes"/>
      <point x="342.59999999999997" y="1346.8"/>
      <point x="150.0" y="1001.7999999999998"/>
    </contour>
  </outline>
</glyph>
<glyph name="asterisk" format="2">
  <advance width="1250.0"/>
  <unicode hex="002A"/>
  <outline>
    <contour>
      <point x="649.6" y="1011.8000000000001" type="line"/>
      <point x="649.6" y="1230.1999999999998"/>
      <point x="706.9999999999999" y="1355.8000000000002"/>
      <point x="706.9999999999999" y="1442.8000000000002" type="curve" smooth="yes"/>
      <point x="706.9999999999999" y="1505.0"/>
      <point x="678.8000000000001" y="1536.8000000000002"/>
      <point x="628.8000000000001" y="1536.8000000000002" type="curve" smooth="yes"/>
      <point x="577.4000000000001" y="1536.8000000000002"/>
      <point x="550.8" y="1505.0"/>
      <point x="550.8" y="1442.8000000000002" type="curve" smooth="yes"/>
      <point x="550.8" y="1356.0000000000002"/>
      <point x="609.8" y="1230.1999999999998"/>
      <point x="609.8" y="1011.8000000000001" type="curve"/>
    </contour>
    <contour>
      <point x="635.3914855054993" y="1031.1777494737585" type="line"/>
      <point x="427.3621577854076" y="1098.753594865749"/>
      <point x="324.6917251256022" y="1191.536669032255"/>
      <point x="241.7891793609291" y="1218.4304750992517" type="curve" smooth="yes"/>
      <point x="182.5035378569784" y="1237.5800092562495"/>
      <point x="143.75808598150377" y="1221.1204077131342"/>
      <point x="128.24725092550506" y="1173.9733608959787" type="curve" smooth="yes"/>
      <point x="112.33641586950635" y="1125.6263140788226"/>
      <point x="134.27660549798256" y="1090.6171783787095"/>
      <point x="193.3622470019332" y="1071.2676442217119" type="curve" smooth="yes"/>
      <point x="276.4647927666063" y="1044.5738381547148"/>
      <point x="415.0736139654093" y="1061.519786344304"/>
      <point x="622.9029416855008" y="993.7439409523137" type="curve"/>
    </contour>
    <contour>
      <point x="612.208514494501" y="1023.6747922385134" type="line"/>
      <point x="483.4773972836897" y="846.898946846523"/>
      <point x="362.8150657657718" y="778.5859282963801"/>
      <point x="311.21817883005747" y="708.2921222293832" type="curve" smooth="yes"/>
      <point x="275.02585593102253" y="657.9425880723855"/>
      <point x="278.93232560500434" y="616.0739415627088"/>
      <point x="319.44316066100293" y="586.8266391040215" type="curve" smooth="yes"/>
      <point x="361.15399571700146" y="556.9793366453342"/>
      <point x="401.4527882900184" y="567.0602242926556"/>
      <point x="437.8451111890533" y="617.4097584496533" type="curve" smooth="yes"/>
      <point x="489.2419981247676" y="687.7035645166502"/>
      <point x="515.965941103688" y="823.6898187731638"/>
      <point x="644.2970583144993" y="1000.4656641651543" type="curve"/>
    </contour>
    <contour>
      <point x="612.208514494501" y="999.5252077614865" type="line"/>
      <point x="740.739631705312" y="822.749362369496"/>
      <point x="768.5580018752323" y="687.9035645166501"/>
      <point x="819.954888810947" y="617.4097584496533" type="curve" smooth="yes"/>
      <point x="856.3472117099817" y="567.0602242926554"/>
      <point x="898.0460042829983" y="557.5793366453343"/>
      <point x="938.3568393389969" y="586.8266391040214" type="curve" smooth="yes"/>
      <point x="980.0676743949957" y="616.8739415627086"/>
      <point x="982.9741440689775" y="657.9425880723853"/>
      <point x="946.5818211699428" y="708.2921222293832" type="curve" smooth="yes"/>
      <point x="895.1849342342282" y="778.58592829638"/>
      <point x="773.0281755253105" y="845.958490442855"/>
      <point x="644.2970583144994" y="1022.7343358348452" type="curve"/>
    </contour>
    <contour>
      <point x="622.8" y="1029.6000000000001" type="curve"/>
      <point x="635.0000000000001" y="992.2" type="line"/>
      <point x="843.6" y="1059.8000000000002"/>
      <point x="981.5999999999999" y="1044.8"/>
      <point x="1064.3999999999999" y="1071.6000000000001" type="curve" smooth="yes"/>
      <point x="1123.2" y="1090.4"/>
      <point x="1144.9999999999998" y="1127.0"/>
      <point x="1129.6000000000001" y="1173.6000000000001" type="curve" smooth="yes"/>
      <point x="1113.6" y="1222.6"/>
      <point x="1075.1999999999998" y="1237.1999999999998"/>
      <point x="1016.1999999999998" y="1218.6" type="curve" smooth="yes"/>
      <point x="932.8000000000001" y="1191.6000000000001"/>
      <point x="830.8000000000001" y="1097.0"/>
    </contour>
  </outline>
</glyph>
<glyph name="comma" format="2">
  <advance width="452.2"/>
  <unicode hex="002C"/>
  <outline>
    <contour>
      <point x="221.60000000000002" y="4.400000000000002" type="curve" smooth="yes"/>
      <point x="240.79999999999998" y="4.400000000000002" type="line" smooth="yes"/>
      <point x="278.8" y="4.400000000000002"/>
      <point x="289.8" y="-10.8"/>
      <point x="289.8" y="-40.2" type="curve" smooth="yes"/>
      <point x="289.8" y="-114.20000000000002"/>
      <point x="236.0331717741496" y="-191.10847071194502"/>
      <point x="143.2" y="-226.80000000000007" type="curve" smooth="yes"/>
      <point x="108.00000000000001" y="-240.39999999999998"/>
      <point x="99.40000000000002" y="-251.0"/>
      <point x="100.99999999999999" y="-265.99999999999994" type="curve" smooth="yes"/>
      <point x="102.60000000000001" y="-279.6"/>
      <point x="115.8" y="-287.20000000000005"/>
      <point x="139.60000000000002" y="-284.0" type="curve" smooth="yes"/>
      <point x="223.37688239654238" y="-272.051488677721"/>
      <point x="365.0" y="-177.01888246628133"/>
      <point x="365.0" y="27.79999999999999" type="curve" smooth="yes"/>
      <point x="365.0" y="175.4"/>
      <point x="307.40000000000003" y="233.6"/>
      <point x="230.8" y="233.6" type="curve" smooth="yes"/>
      <point x="163.8" y="233.6"/>
      <point x="112.4" y="182.6"/>
      <point x="112.4" y="114.0" type="curve" smooth="yes"/>
      <point x="112.4" y="52.599999999999994"/>
      <point x="149.0" y="4.400000000000002"/>
    </contour>
  </outline>
</glyph>
<glyph name="hyphen" format="2">
  <advance width="853.6"/>
  <unicode hex="002D"/>
  <outline>
    <contour>
      <point x="689.6" y="622.9999999999999" type="curve" smooth="yes"/>
      <point x="201.0" y="622.9999999999999" type="line" smooth="yes"/>
      <point x="174.8" y="622.9999999999999"/>
      <point x="163.6" y="616.8"/>
      <point x="154.2" y="592.6" type="curve" smooth="yes"/>
      <point x="134.40000000000003" y="544.1999999999999" type="line" smooth="yes"/>
      <point x="125.40000000000003" y="521.5999999999999"/>
      <point x="133.8" y="505.80000000000007"/>
      <point x="164.0" y="505.80000000000007" type="curve" smooth="yes"/>
      <point x="652.6" y="505.80000000000007" type="line" smooth="yes"/>
      <point x="678.8000000000001" y="505.80000000000007"/>
      <point x="690.0" y="512.0"/>
      <point x="699.4" y="536.1999999999999" type="curve" smooth="yes"/>
      <point x="719.1999999999999" y="584.6" type="line" smooth="yes"/>
      <point x="728.2" y="607.1999999999999"/>
      <point x="719.8" y="622.9999999999999"/>
    </contour>
  </outline>
</glyph>
<glyph name="slash" format="2">
  <advance width="981.6000000000001"/>
  <unicode hex="002F"/>
  <outline>
    <contour>
      <point x="523.0" y="601.1999999999999" type="curve" smooth="yes"/>
      <point x="615.6000000000001" y="799.4"/>
      <point x="844.5999999999999" y="1228.2"/>
      <point x="949.8" y="1455.0000000000002" type="curve" smooth="yes"/>
      <point x="965.0" y="1488.3999999999996"/>
      <point x="956.0" y="1520.6000000000001"/>
      <point x="921.8" y="1536.4" type="curve" smooth="yes"/>
      <point x="888.4" y="1552.2"/>
      <point x="857.5999999999999" y="1538.8"/>
      <point x="841.6" y="1505.3999999999999" type="curve" smooth="yes"/>
      <point x="735.6000000000001" y="1278.8"/>
      <point x="553.0" y="828.8"/>
      <point x="460.59999999999997" y="629.6" type="curve" smooth="yes"/>
      <point x="368.0" y="431.40000000000003"/>
      <point x="139.8" y="3.3999999999999915"/>
      <point x="34.599999999999994" y="-223.4" type="curve" smooth="yes"/>
      <point x="19.4" y="-256.79999999999995"/>
      <point x="28.400000000000006" y="-289.0"/>
      <point x="62.599999999999994" y="-304.79999999999995" type="curve" smooth="yes"/>
      <point x="96.0" y="-320.6"/>
      <point x="126.80000000000001" y="-307.20000000000005"/>
      <point x="142.8" y="-273.8" type="curve" smooth="yes"/>
      <point x="248.8" y="-47.20000000000002"/>
      <point x="430.6" y="402.0"/>
    </contour>
  </outline>
</glyph>
<glyph name="zero" format="2">
  <advance width="1246.6000000000001"/>
  <unicode hex="0030"/>
  <outline>
    <contour>
      <point x="629.0" y="1422.3999999999999" type="curve" smooth="yes"/>
      <point x="302.79999999999995" y="1422.3999999999999"/>
      <point x="92.2" y="1150.6"/>
      <point x="92.2" y="703.0000000000001" type="curve" smooth="yes"/>
      <point x="92.2" y="248.99999999999997"/>
      <point x="284.2" y="-24.0"/>
      <point x="617.5999999999999" y="-24.0" type="curve" smooth="yes"/>
      <point x="944.5999999999999" y="-24.0"/>
      <point x="1154.3999999999999" y="247.80000000000004"/>
      <point x="1154.3999999999999" y="695.4" type="curve" smooth="yes"/>
      <point x="1154.3999999999999" y="1149.4"/>
      <point x="962.4" y="1422.3999999999999"/>
    </contour>
    <contour>
      <point x="992.8000000000001" y="666.0" type="curve" smooth="yes"/>
      <point x="992.8000000000001" y="259.6"/>
      <point x="850.2" y="33.60000000000002"/>
      <point x="624.5999999999999" y="33.60000000000002" type="curve" smooth="yes"/>
      <point x="391.0" y="33.60000000000002"/>
      <point x="253.79999999999998" y="246.79999999999998"/>
      <point x="253.79999999999998" y="732.4000000000001" type="curve" smooth="yes"/>
      <point x="253.79999999999998" y="1138.8"/>
      <point x="397.19999999999993" y="1365.6"/>
      <point x="622.0000000000001" y="1365.6" type="curve" smooth="yes"/>
      <point x="856.4" y="1365.6"/>
      <point x="992.8000000000001" y="1151.6"/>
    </contour>
  </outline>
</glyph>
<glyph name="one" format="2">
  <advance width="860.8"/>
  <unicode hex="0031"/>
  <outline>
    <contour>
      <point x="157.0" y="1270.8000000000002" type="line" smooth="yes"/>
      <point x="126.6" y="1270.8000000000002"/>
      <point x="111.60000000000001" y="1281.2"/>
      <point x="111.60000000000001" y="1303.2" type="curve" smooth="yes"/>
      <point x="111.60000000000001" y="1322.6"/>
      <point x="127.59999999999998" y="1335.0"/>
      <point x="157.39999999999998" y="1335.0" type="curve" smooth="yes"/>
      <point x="324.20000000000005" y="1335.0" type="line" smooth="yes"/>
      <point x="385.34285714285716" y="1334.9999999999998"/>
      <point x="422.9435227631775" y="1350.8117425439248"/>
      <point x="459.6" y="1409.8" type="curve" smooth="yes"/>
      <point x="472.37874930911414" y="1431.730176301375"/>
      <point x="484.4" y="1439.6"/>
      <point x="502.99999999999994" y="1439.6" type="curve" smooth="yes"/>
      <point x="523.4666666666666" y="1439.6"/>
      <point x="536.8" y="1426.3999999999999"/>
      <point x="536.8" y="1398.2" type="curve" smooth="yes"/>
      <point x="536.8" y="139.8" type="line" smooth="yes"/>
      <point x="536.8" y="100.39999999999999"/>
      <point x="555.2" y="79.19999999999999"/>
      <point x="604.0" y="73.39999999999998" type="curve" smooth="yes"/>
      <point x="749.7999999999998" y="56.000000000000014" type="line" smooth="yes"/>
      <point x="775.4190288734385" y="52.534408268661934"/>
      <point x="786.6" y="42.60000000000001"/>
      <point x="786.6" y="26.6" type="curve" smooth="yes"/>
      <point x="786.6" y="9.2"/>
      <point x="774.4436781609195" y="0.0"/>
      <point x="748.0000000000001" y="0.0" type="curve" smooth="yes"/>
      <point x="149.0" y="0.0" type="line" smooth="yes"/>
      <point x="122.6" y="0.0"/>
      <point x="108.2" y="10.000000000000002"/>
      <point x="108.2" y="27.4" type="curve" smooth="yes"/>
      <point x="108.2" y="43.400000000000006"/>
      <point x="120.99999999999999" y="53.39999999999999"/>
      <point x="147.20000000000002" y="56.999999999999986" type="curve" smooth="yes"/>
      <point x="309.59999999999997" y="73.39999999999998" type="line" smooth="yes"/>
      <point x="353.19999999999993" y="78.39999999999999"/>
      <point x="378.4000000000001" y="100.2"/>
      <point x="378.4000000000001" y="139.8" type="curve" smooth="yes"/>
      <point x="378.4000000000001" y="1204.8000000000002" type="line" smooth="yes"/>
      <point x="378.4000000000001" y="1256.6"/>
      <point x="362.59999999999997" y="1270.8000000000002"/>
      <point x="318.00000000000006" y="1270.8000000000002" type="curve" smooth="yes"/>
    </contour>
  </outline>
</glyph>
<glyph name="two" format="2">
  <advance width="1144.4"/>
  <unicode hex="0032"/>
  <outline>
    <contour>
      <point x="222.0" y="186.8" type="line"/>
      <point x="591.1999999999999" y="474.6" type="line" smooth="yes"/>
      <point x="923.2903143703764" y="727.8162127767795"/>
      <point x="1013.4000000000001" y="866.3167286245352"/>
      <point x="1013.4000000000001" y="1047.8" type="curve" smooth="yes"/>
      <point x="1013.4000000000001" y="1262.5431693989071"/>
      <point x="869.6" y="1422.3999999999999"/>
      <point x="591.0" y="1422.3999999999999" type="curve" smooth="yes"/>
      <point x="301.80000000000007" y="1422.3999999999999"/>
      <point x="142.20000000000002" y="1252.2"/>
      <point x="142.20000000000002" y="1066.8" type="curve" smooth="yes"/>
      <point x="142.20000000000002" y="998.3681818181819"/>
      <point x="175.2" y="960.1999999999999"/>
      <point x="226.20000000000002" y="960.1999999999999" type="curve" smooth="yes"/>
      <point x="277.0" y="960.1999999999999"/>
      <point x="312.2" y="992.8"/>
      <point x="312.2" y="1054.1999999999998" type="curve" smooth="yes"/>
      <point x="312.2" y="1134.8" type="line" smooth="yes"/>
      <point x="312.2" y="1264.4"/>
      <point x="396.3327102803738" y="1369.3999999999999"/>
      <point x="577.5999999999999" y="1369.3999999999999" type="curve" smooth="yes"/>
      <point x="743.3837837837837" y="1369.3999999999999"/>
      <point x="850.0" y="1258.4882882882882"/>
      <point x="850.0" y="1040.8" type="curve" smooth="yes"/>
      <point x="850.0" y="851.5640211640211"/>
      <point x="764.657213870776" y="705.0955599773624"/>
      <point x="499.5999999999999" y="488.0" type="curve" smooth="yes"/>
      <point x="183.6" y="223.6" type="line"/>
    </contour>
    <contour>
      <point x="112.80000000000001" y="75.99999999999997" type="curve" smooth="yes"/>
      <point x="112.80000000000001" y="13.074626865671643"/>
      <point x="149.20000000000002" y="-23.999999999999993"/>
      <point x="191.60000000000002" y="-23.999999999999993" type="curve" smooth="yes"/>
      <point x="243.8" y="-23.999999999999993"/>
      <point x="275.51888153217953" y="4.77041944689405"/>
      <point x="280.6" y="75.60000000000001" type="curve" smooth="yes"/>
      <point x="286.6" y="176.4"/>
      <point x="314.3999999999999" y="215.59999999999997"/>
      <point x="371.19999999999993" y="215.59999999999997" type="curve" smooth="yes"/>
      <point x="417.79999999999995" y="215.59999999999997"/>
      <point x="459.0" y="192.8"/>
      <point x="533.8000000000001" y="124.6" type="curve" smooth="yes"/>
      <point x="632.8" y="19.799999999999997"/>
      <point x="710.9960113960115" y="-23.999999999999996"/>
      <point x="821.4" y="-23.999999999999996" type="curve" smooth="yes"/>
      <point x="958.4561983471074" y="-23.999999999999996"/>
      <point x="1042.5246813608726" y="49.39073023569071"/>
      <point x="1070.8000000000002" y="248.60000000000005" type="curve" smooth="yes"/>
      <point x="1074.2" y="275.20000000000005"/>
      <point x="1064.0000000000002" y="288.79999999999995"/>
      <point x="1047.4" y="290.2" type="curve" smooth="yes"/>
      <point x="1033.4" y="291.4"/>
      <point x="1020.6" y="285.0"/>
      <point x="1013.2" y="266.20000000000005" type="curve" smooth="yes"/>
      <point x="980.9832896235083" y="165.898841777459"/>
      <point x="934.1999999999999" y="124.19999999999999"/>
      <point x="833.1999999999999" y="124.19999999999999" type="curve" smooth="yes"/>
      <point x="679.4" y="124.19999999999999"/>
      <point x="521.9628942486086" y="278.20000000000005"/>
      <point x="355.0" y="278.20000000000005" type="curve" smooth="yes"/>
      <point x="199.60000000000002" y="278.20000000000005"/>
      <point x="112.80000000000001" y="190.54760147601473"/>
    </contour>
  </outline>
</glyph>
<glyph name="three" format="2">
  <advance width="1028.2"/>
  <unicode hex="0033"/>
  <outline>
    <contour>
      <point x="429.0" y="739.6" type="line"/>
      <point x="927.8000000000001" y="1306.8" type="line" smooth="yes"/>
      <point x="964.0445936058684" y="1346.3310771607516"/>
      <point x="971.4" y="1359.1999999999998"/>
      <point x="971.4" y="1373.8" type="curve" smooth="yes"/>
      <point x="971.4" y="1391.4"/>
      <point x="957.8" y="1400.0"/>
      <point x="928.8000000000002" y="1400.0" type="curve" smooth="yes"/>
      <point x="217.4" y="1400.0" type="line" smooth="yes"/>
      <point x="173.0" y="1400.0"/>
      <point x="150.79999999999998" y="1380.8"/>
      <point x="147.4" y="1348.6000000000001" type="curve" smooth="yes"/>
      <point x="119.4" y="1105.8" type="line" smooth="yes"/>
      <point x="115.99999999999999" y="1077.6"/>
      <point x="130.20000000000002" y="1065.2"/>
      <point x="150.2" y="1064.4000000000003" type="curve" smooth="yes"/>
      <point x="170.4" y="1064.4"/>
      <point x="184.0" y="1075.8000000000002"/>
      <point x="188.39999999999998" y="1094.8" type="curve" smooth="yes"/>
      <point x="218.79999999999995" y="1218.6000000000001" type="line" smooth="yes"/>
      <point x="227.5350696751883" y="1254.0242654490899"/>
      <point x="246.79999999999995" y="1267.8"/>
      <point x="288.4" y="1267.8" type="curve" smooth="yes"/>
      <point x="860.8" y="1267.8" type="line"/>
      <point x="854.3999999999999" y="1319.0" type="line"/>
      <point x="387.0" y="790.4" type="line" smooth="yes"/>
      <point x="359.79999999999995" y="761.0"/>
      <point x="354.0" y="749.1999999999999"/>
      <point x="354.0" y="735.2" type="curve" smooth="yes"/>
      <point x="354.0" y="715.5999999999999"/>
      <point x="365.6" y="705.8"/>
      <point x="395.0" y="705.8" type="curve" smooth="yes"/>
      <point x="458.2" y="705.8" type="line" smooth="yes"/>
      <point x="701.709090909091" y="705.8"/>
      <point x="808.2" y="591.4000000000001"/>
      <point x="808.2" y="359.8" type="curve" smooth="yes"/>
      <point x="808.2" y="148.0"/>
      <point x="679.7252523993518" y="31.0"/>
      <point x="509.6" y="31.0" type="curve" smooth="yes"/>
      <point x="344.8434747696187" y="30.202702628493967"/>
      <point x="254.0" y="101.0"/>
      <point x="254.0" y="217.4" type="curve" smooth="yes"/>
      <point x="254.0" y="297.20000000000005" type="line" smooth="yes"/>
      <point x="254.0" y="354.8"/>
      <point x="228.3272727272727" y="388.40000000000003"/>
      <point x="177.59999999999997" y="388.40000000000003" type="curve" smooth="yes"/>
      <point x="122.83508771929824" y="388.40000000000003"/>
      <point x="85.0" y="347.0"/>
      <point x="85.0" y="274.99999999999994" type="curve" smooth="yes"/>
      <point x="85.0" y="109.6"/>
      <point x="234.78549222797923" y="-24.0"/>
      <point x="501.4" y="-24.0" type="curve" smooth="yes"/>
      <point x="778.2744186046511" y="-24.0"/>
      <point x="962.8" y="142.83547671840353"/>
      <point x="962.8" y="390.8" type="curve" smooth="yes"/>
      <point x="962.8" y="631.4504058511402"/>
      <point x="798.3826086956522" y="769.2"/>
      <point x="501.2" y="769.2" type="curve" smooth="yes"/>
      <point x="468.80000000000007" y="769.2"/>
      <point x="434.0" y="767.8"/>
      <point x="410.99999999999994" y="765.4000000000001" type="curve"/>
    </contour>
  </outline>
</glyph>
<glyph name="four" format="2">
  <advance width="1124.2"/>
  <unicode hex="0034"/>
  <outline>
    <contour>
      <point x="658.1999999999999" y="781.2000000000002" type="curve" smooth="yes"/>
      <point x="658.1999999999999" y="135.0" type="line" smooth="yes"/>
      <point x="658.1999999999999" y="97.2"/>
      <point x="633.6" y="78.4"/>
      <point x="592.0000000000001" y="71.79999999999998" type="curve" smooth="yes"/>
      <point x="497.6000000000001" y="56.599999999999994" type="line" smooth="yes"/>
      <point x="473.59999999999997" y="52.000000000000014"/>
      <point x="459.19999999999993" y="43.20000000000001"/>
      <point x="459.19999999999993" y="27.19999999999999" type="curve" smooth="yes"/>
      <point x="459.19999999999993" y="9.799999999999999"/>
      <point x="472.5999999999999" y="0.0"/>
      <point x="498.80000000000007" y="0.0" type="curve" smooth="yes"/>
      <point x="968.0000000000001" y="0.0" type="line" smooth="yes"/>
      <point x="994.8000000000001" y="0.0"/>
      <point x="1008.1999999999999" y="9.999999999999998"/>
      <point x="1008.1999999999999" y="27.400000000000006" type="curve" smooth="yes"/>
      <point x="1008.1999999999999" y="43.199999999999996"/>
      <point x="994.0" y="52.8"/>
      <point x="969.6" y="56.59999999999998" type="curve" smooth="yes"/>
      <point x="879.1999999999999" y="70.99999999999999" type="line" smooth="yes"/>
      <point x="837.0" y="77.19999999999999"/>
      <point x="812.5999999999999" y="97.39999999999998"/>
      <point x="812.5999999999999" y="135.39999999999998" type="curve" smooth="yes"/>
      <point x="812.1999999999999" y="914.4" type="line" smooth="yes"/>
      <point x="812.1999999999999" y="931.1999999999999"/>
      <point x="804.1999999999999" y="939.4"/>
      <point x="791.7999999999998" y="939.4" type="curve" smooth="yes"/>
      <point x="781.6" y="939.4"/>
      <point x="772.8" y="935.0"/>
      <point x="758.4" y="919.6000000000001" type="curve" smooth="yes"/>
      <point x="679.1999999999999" y="838.1999999999999" type="line" smooth="yes"/>
      <point x="664.0" y="820.2"/>
      <point x="658.1999999999999" y="805.3999999999999"/>
    </contour>
    <contour>
      <point x="575.4000000000001" y="1072.0" type="curve" smooth="yes"/>
      <point x="71.80000000000001" y="456.4" type="line" smooth="yes"/>
      <point x="48.11453637995378" y="429.60373356809356"/>
      <point x="41.199999999999996" y="415.59999999999997"/>
      <point x="41.199999999999996" y="401.19999999999993" type="curve" smooth="yes"/>
      <point x="41.199999999999996" y="380.28"/>
      <point x="57.99999999999999" y="366.2"/>
      <point x="89.79999999999998" y="366.2" type="curve" smooth="yes"/>
      <point x="995.0" y="366.2" type="line" smooth="yes"/>
      <point x="1022.6000000000001" y="366.2"/>
      <point x="1035.0" y="377.20000000000005"/>
      <point x="1035.0" y="397.0" type="curve" smooth="yes"/>
      <point x="1035.0" y="418.957894736842"/>
      <point x="1019.5999999999999" y="427.6000000000001"/>
      <point x="996.2" y="427.6000000000001" type="curve" smooth="yes"/>
      <point x="98.39999999999998" y="427.6000000000001" type="line"/>
      <point x="107.60000000000002" y="396.79999999999995" type="line"/>
      <point x="678.4" y="1078.9999999999998" type="line" smooth="yes"/>
      <point x="775.8" y="1188.6000000000001"/>
      <point x="800.4000000000001" y="1247.9999999999998"/>
      <point x="800.4000000000001" y="1308.0" type="curve" smooth="yes"/>
      <point x="800.4000000000001" y="1383.7999999999997"/>
      <point x="755.6" y="1430.0"/>
      <point x="688.5999999999999" y="1430.0" type="curve" smooth="yes"/>
      <point x="615.0" y="1430.0"/>
      <point x="575.4" y="1385.2"/>
      <point x="575.4" y="1323.1999999999998" type="curve" smooth="yes"/>
      <point x="575.4" y="1261.387969924812"/>
      <point x="622.8" y="1231.0"/>
      <point x="622.8" y="1171.6" type="curve" smooth="yes"/>
      <point x="622.8" y="1132.0000000000002"/>
      <point x="611.0000000000001" y="1112.6000000000001"/>
    </contour>
  </outline>
</glyph>
<glyph name="five" format="2">
  <advance width="1088.6"/>
  <unicode hex="0035"/>
  <outline>
    <contour>
      <point x="134.2" y="281.0" type="curve" smooth="yes"/>
      <point x="134.2" y="113.80000000000001"/>
      <point x="290.8" y="-24.0"/>
      <point x="545.0" y="-24.0" type="curve" smooth="yes"/>
      <point x="822.1124705882353" y="-24.0"/>
      <point x="1008.0" y="149.8"/>
      <point x="1008.0" y="422.99999999999994" type="curve" smooth="yes"/>
      <point x="1008.0" y="669.4"/>
      <point x="849.4" y="842.4"/>
      <point x="604.2" y="842.4" type="curve" smooth="yes"/>
      <point x="447.438578680203" y="842.4"/>
      <point x="321.0721011889936" y="759.9589713753593"/>
      <point x="233.40000000000003" y="625.8000000000001" type="curve"/>
      <point x="257.40000000000003" y="634.0" type="line"/>
      <point x="257.40000000000003" y="1329.3999999999999" type="line"/>
      <point x="231.6" y="1302.4" type="line"/>
      <point x="345.7545361231838" y="1220.2201622410228"/>
      <point x="481.6" y="1165.6"/>
      <point x="639.4000000000001" y="1165.6" type="curve" smooth="yes"/>
      <point x="819.9352459016394" y="1165.6"/>
      <point x="948.4" y="1251.8"/>
      <point x="988.6000000000001" y="1407.1999999999998" type="curve" smooth="yes"/>
      <point x="995.4000000000001" y="1433.2"/>
      <point x="987.0" y="1445.2"/>
      <point x="974.4" y="1449.0000000000002" type="curve" smooth="yes"/>
      <point x="959.9999999999999" y="1453.0"/>
      <point x="945.8000000000001" y="1450.2"/>
      <point x="927.9999999999999" y="1428.0" type="curve" smooth="yes"/>
      <point x="877.5999999999998" y="1342.6000000000001"/>
      <point x="787.5999999999999" y="1298.6000000000001"/>
      <point x="659.2" y="1298.6000000000001" type="curve" smooth="yes"/>
      <point x="516.4000000000001" y="1298.6000000000001"/>
      <point x="424.19999999999993" y="1339.9999999999998"/>
      <point x="348.4" y="1386.6" type="curve" smooth="yes"/>
      <point x="292.4" y="1422.5999999999997"/>
      <point x="270.0" y="1430.0"/>
      <point x="246.2" y="1430.0" type="curve" smooth="yes"/>
      <point x="206.64070796460177" y="1430.0"/>
      <point x="187.6" y="1408.3999999999999"/>
      <point x="187.6" y="1374.6" type="curve" smooth="yes"/>
      <point x="187.6" y="604.8000000000001" type="line" smooth="yes"/>
      <point x="187.6" y="580.0"/>
      <point x="201.0" y="566.2"/>
      <point x="227.99999999999997" y="566.2" type="curve" smooth="yes"/>
      <point x="246.0721649484536" y="566.2"/>
      <point x="264.0" y="576.4"/>
      <point x="281.0" y="598.0" type="curve" smooth="yes"/>
      <point x="354.8123105183229" y="712.5091740915153"/>
      <point x="453.59999999999997" y="780.4"/>
      <point x="573.6" y="780.4" type="curve" smooth="yes"/>
      <point x="737.1999999999999" y="780.4"/>
      <point x="853.1999999999999" y="653.1171503957784"/>
      <point x="853.1999999999999" y="409.0" type="curve" smooth="yes"/>
      <point x="853.1999999999999" y="154.99999999999997"/>
      <point x="725.7483483483483" y="29.400000000000006"/>
      <point x="559.2" y="29.400000000000006" type="curve" smooth="yes"/>
      <point x="390.368" y="29.400000000000006"/>
      <point x="303.20000000000005" y="104.0"/>
      <point x="303.20000000000005" y="214.0" type="curve" smooth="yes"/>
      <point x="303.20000000000005" y="297.8" type="line" smooth="yes"/>
      <point x="303.20000000000005" y="354.0"/>
      <point x="275.4" y="389.19999999999993"/>
      <point x="224.2" y="389.19999999999993" type="curve" smooth="yes"/>
      <point x="170.20000000000002" y="389.19999999999993"/>
      <point x="134.2" y="345.6"/>
    </contour>
  </outline>
</glyph>
<glyph name="six" format="2">
  <advance width="1132.0"/>
  <unicode hex="0036"/>
  <outline>
    <contour>
      <point x="652.0" y="1422.3999999999999" type="curve" smooth="yes"/>
      <point x="320.96131528046425" y="1422.3999999999999"/>
      <point x="90.39999998919002" y="1176.600005761717"/>
      <point x="91.2" y="652.3999999999999" type="curve" smooth="yes"/>
      <point x="92.00000001736838" y="217.39999237528852"/>
      <point x="282.8" y="-23.999999999999996"/>
      <point x="602.6" y="-23.999999999999996" type="curve" smooth="yes"/>
      <point x="873.4" y="-23.999999999999996"/>
      <point x="1055.2" y="156.8"/>
      <point x="1055.2" y="429.2" type="curve" smooth="yes"/>
      <point x="1055.2" y="683.4"/>
      <point x="893.1162352941177" y="841.2"/>
      <point x="640.8000000000001" y="841.2" type="curve" smooth="yes"/>
      <point x="402.0" y="841.2"/>
      <point x="209.0" y="672.0"/>
      <point x="206.2" y="450.0" type="curve"/>
      <point x="250.2" y="434.8" type="line"/>
      <point x="254.40000000000003" y="626.4730964467005"/>
      <point x="409.79999999999995" y="775.4"/>
      <point x="591.1999999999999" y="775.4" type="curve" smooth="yes"/>
      <point x="777.834682080925" y="775.4"/>
      <point x="899.8" y="648.1478260869565"/>
      <point x="899.8" y="408.4" type="curve" smooth="yes"/>
      <point x="899.8" y="162.88439897698208"/>
      <point x="783.5999999999999" y="32.2"/>
      <point x="607.6" y="32.2" type="curve" smooth="yes"/>
      <point x="398.4" y="32.2"/>
      <point x="249.4012308090572" y="199.02151974309677"/>
      <point x="248.6" y="663.0" type="curve" smooth="yes"/>
      <point x="247.79999996464014" y="1178.6000182103096"/>
      <point x="434.95804195804203" y="1365.8000000000002"/>
      <point x="635.4" y="1365.8000000000002" type="curve" smooth="yes"/>
      <point x="773.6025751072962" y="1365.8000000000002"/>
      <point x="837.2" y="1295.675"/>
      <point x="837.2" y="1183.2" type="curve" smooth="yes"/>
      <point x="837.2" y="1124.4" type="line" smooth="yes"/>
      <point x="837.2" y="1061.4547263681593"/>
      <point x="865.8" y="1028.6000000000001"/>
      <point x="921.9999999999999" y="1028.6000000000001" type="curve" smooth="yes"/>
      <point x="978.6785714285714" y="1028.6000000000001"/>
      <point x="1009.8000000000001" y="1067.1999999999998"/>
      <point x="1009.8000000000001" y="1138.8" type="curve" smooth="yes"/>
      <point x="1009.8000000000001" y="1290.0846441947565"/>
      <point x="875.2277945619335" y="1422.3999999999999"/>
    </contour>
  </outline>
</glyph>
<glyph name="seven" format="2">
  <advance width="969.8000000000001"/>
  <unicode hex="0037"/>
  <outline>
    <contour>
      <point x="840.0" y="1286.1999999999998" type="line"/>
      <point x="528.4" y="781.4000000000001" type="line" smooth="yes"/>
      <point x="362.4" y="528.5999999999999"/>
      <point x="290.6" y="358.00000000000006"/>
      <point x="290.6" y="179.99999999999997" type="curve" smooth="yes"/>
      <point x="290.6" y="40.400000000000006"/>
      <point x="341.4" y="-23.999999999999996"/>
      <point x="420.8" y="-23.999999999999996" type="curve" smooth="yes"/>
      <point x="485.19999999999993" y="-23.999999999999996"/>
      <point x="522.0000000000001" y="17.599999999999994"/>
      <point x="522.0" y="79.79999999999998" type="curve" smooth="yes"/>
      <point x="522.0" y="173.6"/>
      <point x="433.4" y="216.0"/>
      <point x="433.4" y="324.59999999999997" type="curve" smooth="yes"/>
      <point x="433.4" y="444.99999999999994"/>
      <point x="491.4" y="585.4"/>
      <point x="633.2" y="805.8" type="curve" smooth="yes"/>
      <point x="927.1999999999999" y="1293.8" type="line" smooth="yes"/>
      <point x="955.0000000000001" y="1335.4"/>
      <point x="960.2" y="1349.0"/>
      <point x="960.2" y="1364.6000000000001" type="curve" smooth="yes"/>
      <point x="960.2" y="1386.8"/>
      <point x="943.8000000000001" y="1400.0"/>
      <point x="915.4000000000001" y="1400.0" type="curve" smooth="yes"/>
      <point x="145.6" y="1400.0" type="line" smooth="yes"/>
      <point x="103.0" y="1400.0"/>
      <point x="81.99999999999999" y="1380.6"/>
      <point x="79.0" y="1348.8000000000002" type="curve" smooth="yes"/>
      <point x="51.8" y="1091.9999999999998" type="line" smooth="yes"/>
      <point x="48.8" y="1064.0"/>
      <point x="61.599999999999994" y="1051.2"/>
      <point x="82.8" y="1050.4" type="curve" smooth="yes"/>
      <point x="102.60000000000002" y="1050.4"/>
      <point x="115.99999999999999" y="1061.8"/>
      <point x="121.2" y="1081.0000000000002" type="curve" smooth="yes"/>
      <point x="153.6" y="1209.7999999999997" type="line" smooth="yes"/>
      <point x="162.4" y="1245.6"/>
      <point x="179.99999999999997" y="1259.1999999999998"/>
      <point x="221.8" y="1259.1999999999998" type="curve" smooth="yes"/>
      <point x="872.2" y="1259.1999999999998" type="line"/>
    </contour>
  </outline>
</glyph>
<glyph name="eight" format="2">
  <advance width="1092.2"/>
  <unicode hex="0038"/>
  <outline>
    <contour>
      <point x="542.4000000000001" y="-23.800000000000004" type="curve" smooth="yes"/>
      <point x="825.1999999999999" y="-23.800000000000004"/>
      <point x="1005.1999999999998" y="113.69341317365269"/>
      <point x="1005.1999999999998" y="326.2" type="curve" smooth="yes"/>
      <point x="1005.1999999999998" y="481.32969076958847"/>
      <point x="890.3222183794135" y="612.3592605401956"/>
      <point x="604.1999999999999" y="705.4" type="curve" smooth="yes"/>
      <point x="325.3223002294716" y="796.5590897119725"/>
      <point x="254.80000000000007" y="915.6648793565686"/>
      <point x="254.80000000000007" y="1076.0" type="curve" smooth="yes"/>
      <point x="254.80000000000007" y="1247.0"/>
      <point x="378.6" y="1369.8"/>
      <point x="555.6" y="1369.8" type="curve" smooth="yes"/>
      <point x="741.1315942028987" y="1369.8"/>
      <point x="866.5999999999999" y="1247.4"/>
      <point x="866.5999999999999" y="1048.4" type="curve" smooth="yes"/>
      <point x="866.5999999999999" y="874.5084112149532"/>
      <point x="763.0742862668579" y="739.4972466896024"/>
      <point x="611.4" y="666.2" type="curve"/>
      <point x="638.2" y="641.0" type="line"/>
      <point x="873.7769515443226" y="696.8586570011925"/>
      <point x="1014.2" y="856.1881690140845"/>
      <point x="1014.2" y="1052.4" type="curve" smooth="yes"/>
      <point x="1014.2" y="1259.6"/>
      <point x="857.2769975786925" y="1423.2"/>
      <point x="573.2" y="1423.2" type="curve" smooth="yes"/>
      <point x="291.2" y="1423.2"/>
      <point x="107.19999999999999" y="1251.8000000000002"/>
      <point x="107.19999999999999" y="1024.0" type="curve" smooth="yes"/>
      <point x="107.19999999999999" y="832.0610260044704"/>
      <point x="218.5111763165669" y="699.897940210991"/>
      <point x="513.0" y="605.0" type="curve" smooth="yes"/>
      <point x="772.2716780149067" y="521.7098520927567"/>
      <point x="851.1999999999999" y="424.3561239896971"/>
      <point x="851.1999999999999" y="288.79999999999995" type="curve" smooth="yes"/>
      <point x="851.1999999999999" y="124.7064748201439"/>
      <point x="740.0" y="28.40000000000002"/>
      <point x="566.8000000000001" y="28.40000000000002" type="curve" smooth="yes"/>
      <point x="380.59999999999997" y="28.40000000000002"/>
      <point x="261.2" y="130.92328767123288"/>
      <point x="261.2" y="318.6" type="curve" smooth="yes"/>
      <point x="261.2" y="439.4"/>
      <point x="328.4147425008533" y="573.6500451505764"/>
      <point x="483.6" y="635.8000000000001" type="curve"/>
      <point x="463.8" y="662.8000000000001" type="line"/>
      <point x="233.1395218993815" y="609.305762387713"/>
      <point x="110.60000000000001" y="456.9694352159469"/>
      <point x="110.60000000000001" y="305.79999999999995" type="curve"/>
      <point x="110.60000000000001" y="108.48492307692308"/>
      <point x="263.00000000000006" y="-23.800000000000004"/>
    </contour>
  </outline>
</glyph>
<glyph name="nine" format="2">
  <advance width="1144.0"/>
  <unicode hex="0039"/>
  <outline>
    <contour>
      <point x="501.6" y="-23.199999999999996" type="curve" smooth="yes"/>
      <point x="827.9740458015267" y="-23.199999999999996"/>
      <point x="1055.2104437756404" y="225.03346758368951"/>
      <point x="1054.3999999999999" y="754.8000000000001" type="curve" smooth="yes"/>
      <point x="1053.6119047381349" y="1184.5738199587154"/>
      <point x="864.3218295218296" y="1423.2"/>
      <point x="547.0" y="1423.2" type="curve" smooth="yes"/>
      <point x="273.8306954436451" y="1423.2"/>
      <point x="90.4" y="1245.9748878923767"/>
      <point x="90.4" y="979.1999999999999" type="curve" smooth="yes"/>
      <point x="90.4" y="730.9224489795918"/>
      <point x="252.4" y="577.1999999999999"/>
      <point x="504.79999999999995" y="577.1999999999999" type="curve" smooth="yes"/>
      <point x="743.5999999999999" y="577.1999999999999"/>
      <point x="936.6" y="746.4"/>
      <point x="939.4" y="968.4" type="curve"/>
      <point x="895.4" y="980.4" type="line"/>
      <point x="891.6125237169523" y="790.6465347330242"/>
      <point x="735.8" y="643.0"/>
      <point x="554.4" y="643.0" type="curve" smooth="yes"/>
      <point x="367.8" y="643.0"/>
      <point x="245.8" y="767.1912087912087"/>
      <point x="245.8" y="1000.0" type="curve" smooth="yes"/>
      <point x="245.8" y="1239.8367346938776"/>
      <point x="363.59999999999997" y="1367.0"/>
      <point x="542.0" y="1367.0" type="curve" smooth="yes"/>
      <point x="748.8511056511056" y="1367.0"/>
      <point x="896.2122887704701" y="1202.6119891086416"/>
      <point x="897.0" y="744.2" type="curve" smooth="yes"/>
      <point x="897.811347407916" y="222.75608492330335"/>
      <point x="717.252534562212" y="33.39999999999999"/>
      <point x="518.1999999999999" y="33.39999999999999" type="curve" smooth="yes"/>
      <point x="369.110460251046" y="33.39999999999999"/>
      <point x="300.40000000000003" y="103.6"/>
      <point x="300.40000000000003" y="216.0" type="curve" smooth="yes"/>
      <point x="300.40000000000003" y="274.8" type="line" smooth="yes"/>
      <point x="300.40000000000003" y="337.8"/>
      <point x="271.79999999999995" y="370.59999999999997"/>
      <point x="215.59999999999997" y="370.59999999999997" type="curve" smooth="yes"/>
      <point x="159.0" y="370.59999999999997"/>
      <point x="127.8" y="332.00000000000006"/>
      <point x="127.8" y="260.4" type="curve" smooth="yes"/>
      <point x="127.8" y="109.4"/>
      <point x="268.2623145400593" y="-23.199999999999996"/>
    </contour>
  </outline>
</glyph>
<glyph name="less" format="2">
  <advance width="1017.9999999999999"/>
  <unicode hex="003C"/>
  <outline>
    <contour>
      <point x="201.39999999999998" y="689.6" type="line"/>
      <point x="869.2" y="318.0" type="line" smooth="yes"/>
      <point x="895.8000000000001" y="306.2"/>
      <point x="908.2" y="288.6"/>
      <point x="908.2" y="275.40000000000003" type="curve" smooth="yes"/>
      <point x="908.4" y="258.40000000000003"/>
      <point x="898.8000000000001" y="247.20000000000002"/>
      <point x="875.8000000000001" y="247.20000000000002" type="curve" smooth="yes"/>
      <point x="856.2" y="247.20000000000002"/>
      <point x="837.8" y="255.59999999999997"/>
      <point x="810.8" y="267.79999999999995" type="curve" smooth="yes"/>
      <point x="170.4" y="621.6" type="line" smooth="yes"/>
      <point x="134.0" y="636.9999999999999"/>
      <point x="115.39999999999999" y="657.4"/>
      <point x="115.39999999999999" y="684.0" type="curve" smooth="yes"/>
      <point x="115.39999999999999" y="710.3999999999999"/>
      <point x="134.0" y="730.8"/>
      <point x="170.4" y="746.2" type="curve" smooth="yes"/>
      <point x="807.5999999999999" y="1098.1999999999998" type="line" smooth="yes"/>
      <point x="835.6" y="1111.3999999999999"/>
      <point x="853.2" y="1119.6000000000001"/>
      <point x="872.6" y="1119.6000000000001" type="curve" smooth="yes"/>
      <point x="895.8" y="1119.6000000000001"/>
      <point x="906.2" y="1107.6000000000001"/>
      <point x="905.9999999999999" y="1090.8" type="curve" smooth="yes"/>
      <point x="905.9999999999999" y="1077.3999999999999"/>
      <point x="892.8000000000001" y="1061.7999999999997"/>
      <point x="865.2" y="1049.0" type="curve" smooth="yes"/>
      <point x="201.39999999999998" y="679.1999999999999" type="line"/>
    </contour>
  </outline>
</glyph>
<glyph name="question" format="2">
  <advance width="916.4"/>
  <unicode hex="003F"/>
  <outline>
    <contour>
      <point x="379.2" y="667.4" type="line" smooth="yes"/>
      <point x="374.59999999999997" y="726.5999999999999"/>
      <point x="388.81890571586086" y="761.3203539055319"/>
      <point x="441.79999999999995" y="786.0" type="curve" smooth="yes"/>
      <point x="492.2" y="809.5999999999999" type="line" smooth="yes"/>
      <point x="641.4" y="881.2"/>
      <point x="687.0" y="978.7488729589805"/>
      <point x="687.0" y="1122.6" type="curve" smooth="yes"/>
      <point x="687.0" y="1301.129292929293"/>
      <point x="598.2" y="1390.3999999999999"/>
      <point x="473.0" y="1390.3999999999999" type="curve" smooth="yes"/>
      <point x="333.2" y="1390.3999999999999"/>
      <point x="268.8" y="1310.1999999999998"/>
      <point x="268.8" y="1200.3999999999999" type="curve" smooth="yes"/>
      <point x="268.8" y="1136.8" type="line" smooth="yes"/>
      <point x="268.8" y="1072.1999999999998"/>
      <point x="232.7414847161572" y="1029.6"/>
      <point x="177.0" y="1029.6" type="curve" smooth="yes"/>
      <point x="123.20093896713617" y="1029.6"/>
      <point x="89.0" y="1071.1477064220187"/>
      <point x="89.0" y="1136.1999999999998" type="curve" smooth="yes"/>
      <point x="89.0" y="1298.7999999999997"/>
      <point x="260.4" y="1446.3999999999999"/>
      <point x="477.59999999999997" y="1446.3999999999999" type="curve" smooth="yes"/>
      <point x="703.8" y="1446.3999999999999"/>
      <point x="845.1999999999998" y="1320.4503778337535"/>
      <point x="845.1999999999998" y="1113.2" type="curve" smooth="yes"/>
      <point x="845.1999999999998" y="957.0697200373494"/>
      <point x="770.0563048171583" y="834.0894217933743"/>
      <point x="574.8000000000001" y="760.4" type="curve" smooth="yes"/>
      <point x="515.6" y="737.8" type="line" smooth="yes"/>
      <point x="481.6" y="725.0000000000001"/>
      <point x="470.79999999999995" y="705.5999999999999"/>
      <point x="467.00000000000006" y="658.4" type="curve" smooth="yes"/>
      <point x="459.4" y="434.79999999999995" type="line" smooth="yes"/>
      <point x="455.4" y="409.40000000000003"/>
      <point x="443.79999999999995" y="398.8"/>
      <point x="424.40000000000003" y="398.8" type="curve" smooth="yes"/>
      <point x="403.79999999999995" y="398.8"/>
      <point x="392.20000000000005" y="410.20000000000005"/>
      <point x="389.4" y="434.79999999999995" type="curve" smooth="yes"/>
    </contour>
    <component base="period" xOffset="208.39999999999998"/>
  </outline>
</glyph>
<glyph name="at" format="2">
  <advance width="1706.8000000000002"/>
  <unicode hex="0040"/>
  <outline>
    <contour>
      <point x="1069.0" y="503.20000000000005" type="curve"/>
      <point x="1078.4" y="545.2" type="line"/>
      <point x="1017.2" y="569.0"/>
      <point x="945.0" y="584.8000000000001"/>
      <point x="858.2" y="584.8000000000001" type="curve" smooth="yes"/>
      <point x="635.0" y="584.8000000000001"/>
      <point x="504.2" y="481.93333333333334"/>
      <point x="504.2" y="347.8" type="curve" smooth="yes"/>
      <point x="504.2" y="214.4"/>
      <point x="609.0000000000001" y="137.4"/>
      <point x="766.7999999999998" y="137.4" type="curve" smooth="yes"/>
      <point x="894.5999999999999" y="137.4"/>
      <point x="1012.6" y="204.39999999999998"/>
      <point x="1092.0" y="314.0" type="curve"/>
      <point x="1072.4" y="346.8" type="line"/>
      <point x="1002.9114257100169" y="256.80666307155985"/>
      <point x="913.2" y="207.00000000000003"/>
      <point x="815.0" y="207.00000000000003" type="curve" smooth="yes"/>
      <point x="720.4" y="207.00000000000003"/>
      <point x="650.5999999999999" y="265.08875739644964"/>
      <point x="650.5999999999999" y="368.2" type="curve" smooth="yes"/>
      <point x="650.5999999999999" y="473.4"/>
      <point x="735.8" y="539.8000000000001"/>
      <point x="871.8" y="539.8000000000001" type="curve" smooth="yes"/>
      <point x="947.4000000000001" y="539.8000000000001"/>
      <point x="1009.9331002522943" y="523.9543088686154"/>
    </contour>
    <contour>
      <point x="1273.0" y="202.99999999999997" type="curve" smooth="yes"/>
      <point x="1214.2" y="202.99999999999997"/>
      <point x="1179.0" y="236.39999999999995"/>
      <point x="1179.0" y="302.20000000000005" type="curve" smooth="yes"/>
      <point x="1179.0" y="776.4" type="line" smooth="yes"/>
      <point x="1179.0" y="928.3999999999999"/>
      <point x="1075.3312977099235" y="1019.5999999999999"/>
      <point x="889.0000000000001" y="1019.5999999999999" type="curve" smooth="yes"/>
      <point x="676.5570469798658" y="1019.5999999999999"/>
      <point x="548.8000000000001" y="908.8752293577982"/>
      <point x="548.8000000000001" y="780.4" type="curve" smooth="yes"/>
      <point x="548.8000000000001" y="732.2"/>
      <point x="580.4" y="709.2"/>
      <point x="621.8" y="709.2" type="curve" smooth="yes"/>
      <point x="665.8000000000001" y="709.2"/>
      <point x="701.2" y="734.0"/>
      <point x="701.2" y="780.4" type="curve" smooth="yes"/>
      <point x="701.2" y="833.0" type="line" smooth="yes"/>
      <point x="701.2" y="903.8425531914893"/>
      <point x="754.6" y="970.5999999999999"/>
      <point x="867.0000000000001" y="970.5999999999999" type="curve" smooth="yes"/>
      <point x="981.6000000000001" y="970.5999999999999"/>
      <point x="1045.2" y="902.5314285714287"/>
      <point x="1045.2" y="777.6" type="curve" smooth="yes"/>
      <point x="1045.2" y="293.4" type="line"/>
      <point x="1051.8" y="290.4" type="line"/>
      <point x="1056.1999641350794" y="189.6012194072956"/>
      <point x="1132.0" y="137.6"/>
      <point x="1250.3999999999999" y="137.4" type="curve" smooth="yes"/>
      <point x="1464.8727127043696" y="137.19567104522326"/>
      <point x="1598.4" y="336.4"/>
      <point x="1598.4" y="636.4000000000001" type="curve" smooth="yes"/>
      <point x="1598.4" y="1096.9999999999998"/>
      <point x="1283.5999999999997" y="1364.4"/>
      <point x="885.0" y="1364.4" type="curve" smooth="yes"/>
      <point x="390.59999999999997" y="1364.4"/>
      <point x="90.60000000000001" y="1017.2000000000002"/>
      <point x="90.60000000000001" y="554.2" type="curve" smooth="yes"/>
      <point x="90.60000000000001" y="56.6"/>
      <point x="432.0" y="-250.2"/>
      <point x="889.1999999999999" y="-250.2" type="curve" smooth="yes"/>
      <point x="1176.3999999999999" y="-250.2"/>
      <point x="1439.0" y="-133.39999999999998"/>
      <point x="1577.3999999999999" y="49.00000000000003" type="curve" smooth="yes"/>
      <point x="1596.6" y="72.2"/>
      <point x="1598.4" y="89.0"/>
      <point x="1586.6" y="98.60000000000001" type="curve" smooth="yes"/>
      <point x="1574.2" y="108.60000000000001"/>
      <point x="1557.8" y="106.2"/>
      <point x="1539.1999999999998" y="86.0" type="curve" smooth="yes"/>
      <point x="1383.0" y="-95.20000000000002"/>
      <point x="1156.7999999999997" y="-193.2"/>
      <point x="890.9999999999999" y="-193.2" type="curve" smooth="yes"/>
      <point x="460.39" y="-193.2"/>
      <point x="158.2" y="105.19999999999999"/>
      <point x="158.2" y="554.2" type="curve" smooth="yes"/>
      <point x="158.2" y="991.8"/>
      <point x="429.8" y="1306.6"/>
      <point x="882.2000000000002" y="1306.6" type="curve" smooth="yes"/>
      <point x="1247.2" y="1306.6"/>
      <point x="1531.2" y="1052.2"/>
      <point x="1531.2" y="635.2" type="curve" smooth="yes"/>
      <point x="1531.2" y="355.4"/>
      <point x="1422.0281824394176" y="202.99999999999997"/>
    </contour>
  </outline>
</glyph>
<glyph name="A" format="2">
  <advance width="1381.6"/>
  <unicode hex="0041"/>
  <anchor x="691.0" y="1460.3999999999999" name="center"/>
  <outline>
    <contour>
      <point x="344.20000000000005" y="544.0" type="line"/>
      <point x="331.8" y="478.9999999999999" type="line"/>
      <point x="954.8" y="478.9999999999999" type="line"/>
      <point x="946.5999999999999" y="544.0" type="line"/>
    </contour>
    <contour>
      <point x="419.6" y="26.4" type="curve" smooth="yes"/>
      <point x="419.6" y="41.00000000000001"/>
      <point x="410.0" y="48.400000000000006"/>
      <point x="384.59999999999997" y="54.0" type="curve" smooth="yes"/>
      <point x="304.6" y="65.59999999999998" type="line" smooth="yes"/>
      <point x="250.0" y="79.0"/>
      <point x="240.8" y="104.19999999999999"/>
      <point x="262.40000000000003" y="168.60000000000002" type="curve" smooth="yes"/>
      <point x="661.3999999999999" y="1342.8" type="line" smooth="yes"/>
      <point x="636.1999999999999" y="1334.6000000000001" type="line"/>
      <point x="1047.8" y="132.39999999999998" type="line" smooth="yes"/>
      <point x="1063.4" y="86.60000000000002"/>
      <point x="1064.2" y="69.39999999999998"/>
      <point x="1029.4" y="63.79999999999998" type="curve" smooth="yes"/>
      <point x="946.2" y="54.400000000000006" type="line" smooth="yes"/>
      <point x="920.8000000000001" y="49.599999999999994"/>
      <point x="911.0" y="40.199999999999996"/>
      <point x="911.0" y="26.4" type="curve" smooth="yes"/>
      <point x="911.0" y="10.0"/>
      <point x="924.2" y="0.0"/>
      <point x="950.6" y="0.0" type="curve" smooth="yes"/>
      <point x="1305.0" y="0.0" type="line" smooth="yes"/>
      <point x="1332.0000000000002" y="0.0"/>
      <point x="1345.3999999999999" y="10.0"/>
      <point x="1345.3999999999999" y="26.4" type="curve" smooth="yes"/>
      <point x="1345.3999999999999" y="41.59999999999999"/>
      <point x="1336.3999999999999" y="50.19999999999999"/>
      <point x="1303.2" y="57.39999999999999" type="curve" smooth="yes"/>
      <point x="1251.6" y="66.0"/>
      <point x="1229.8" y="85.99999999999997"/>
      <point x="1215.3999999999999" y="130.19999999999996" type="curve" smooth="yes"/>
      <point x="813.2" y="1297.1999999999998" type="line" smooth="yes"/>
      <point x="802.9999999999999" y="1328.2"/>
      <point x="806.5999999999999" y="1338.2000000000003"/>
      <point x="846.7999999999998" y="1344.6" type="curve" smooth="yes"/>
      <point x="883.4" y="1350.8"/>
      <point x="894.8000000000001" y="1359.9999999999998"/>
      <point x="894.8000000000001" y="1375.9999999999998" type="curve" smooth="yes"/>
      <point x="894.8000000000001" y="1390.8000000000002"/>
      <point x="882.9999999999999" y="1400.0"/>
      <point x="855.1999999999999" y="1400.0" type="curve" smooth="yes"/>
      <point x="515.4" y="1400.0" type="line" smooth="yes"/>
      <point x="488.4" y="1400.0"/>
      <point x="474.99999999999994" y="1390.8000000000002"/>
      <point x="474.99999999999994" y="1375.1999999999998" type="curve" smooth="yes"/>
      <point x="474.99999999999994" y="1359.8"/>
      <point x="487.99999999999994" y="1351.0"/>
      <point x="525.1999999999999" y="1344.2" type="curve" smooth="yes"/>
      <point x="572.4" y="1335.6000000000004"/>
      <point x="577.1999999999999" y="1323.0"/>
      <point x="564.4" y="1284.8" type="curve" smooth="yes"/>
      <point x="181.20000000000002" y="162.60000000000002" type="line" smooth="yes"/>
      <point x="159.2" y="96.60000000000001"/>
      <point x="148.40000000000003" y="80.0"/>
      <point x="111.6" y="67.39999999999998" type="curve" smooth="yes"/>
      <point x="67.39999999999999" y="54.400000000000006" type="line" smooth="yes"/>
      <point x="39.4" y="44.8"/>
      <point x="32.8" y="37.8"/>
      <point x="32.8" y="25.599999999999994" type="curve" smooth="yes"/>
      <point x="32.8" y="10.0"/>
      <point x="45.399999999999984" y="0.0"/>
      <point x="73.0" y="0.0" type="curve" smooth="yes"/>
      <point x="380.20000000000005" y="0.0" type="line" smooth="yes"/>
      <point x="408.0" y="0.0"/>
      <point x="419.6" y="10.0"/>
    </contour>
  </outline>
</glyph>
<glyph name="B" format="2">
  <advance width="1295.1999999999998"/>
  <unicode hex="0042"/>
  <outline>
    <contour>
      <point x="1236.2" y="339.0" type="curve" smooth="yes"/>
      <point x="1236.2" y="531.8950212663785"/>
      <point x="1047.6000000000001" y="673.1999999999999"/>
      <point x="739.8" y="673.1999999999999" type="curve"/>
      <point x="673.2" y="649.0000000000001" type="line"/>
      <point x="999.3999999999999" y="649.0000000000001"/>
      <point x="1156.1999999999998" y="807.3372434017595"/>
      <point x="1156.1999999999998" y="1005.8" type="curve" smooth="yes"/>
      <point x="1156.1999999999998" y="1239.6000000000001"/>
      <point x="961.0" y="1400.0"/>
      <point x="607.9999999999999" y="1400.0" type="curve" smooth="yes"/>
      <point x="158.20000000000002" y="1400.0" type="line" smooth="yes"/>
      <point x="132.0" y="1400.0"/>
      <point x="121.0" y="1390.0000000000002"/>
      <point x="121.0" y="1373.5999999999997" type="curve" smooth="yes"/>
      <point x="121.0" y="1358.6"/>
      <point x="130.4" y="1348.8"/>
      <point x="154.6" y="1343.6" type="curve" smooth="yes"/>
      <point x="229.4" y="1332.0" type="line" smooth="yes"/>
      <point x="261.0" y="1326.1999999999998"/>
      <point x="278.8" y="1308.6"/>
      <point x="278.8" y="1282.0" type="curve" smooth="yes"/>
      <point x="278.8" y="118.00000000000001" type="line" smooth="yes"/>
      <point x="278.8" y="91.39999999999998"/>
      <point x="261.0" y="73.80000000000001"/>
      <point x="229.4" y="68.0" type="curve" smooth="yes"/>
      <point x="154.6" y="56.400000000000006" type="line" smooth="yes"/>
      <point x="130.4" y="51.19999999999999"/>
      <point x="121.0" y="41.39999999999999"/>
      <point x="121.0" y="26.4" type="curve" smooth="yes"/>
      <point x="121.0" y="9.999999999999996"/>
      <point x="132.0" y="0.0"/>
      <point x="158.20000000000002" y="0.0" type="curve" smooth="yes"/>
      <point x="736.6" y="0.0" type="line" smooth="yes"/>
      <point x="1061.5615384615387" y="0.0"/>
      <point x="1236.2" y="140.60000000000005"/>
    </contour>
    <contour>
      <point x="666.6000000000001" y="631.2" type="line" smooth="yes"/>
      <point x="935.674678111588" y="631.2"/>
      <point x="1069.8000000000002" y="512.2666666666667"/>
      <point x="1069.8000000000002" y="341.20000000000005" type="curve" smooth="yes"/>
      <point x="1069.8000000000002" y="176.20000000000002"/>
      <point x="951.2758241758243" y="58.000000000000014"/>
      <point x="708.8" y="58.000000000000014" type="curve" smooth="yes"/>
      <point x="549.8" y="58.000000000000014" type="line" smooth="yes"/>
      <point x="472.2" y="58.000000000000014"/>
      <point x="436.4" y="84.0"/>
      <point x="436.4" y="137.0" type="curve" smooth="yes"/>
      <point x="436.4" y="1342.0000000000002" type="line"/>
      <point x="591.0" y="1342.0000000000002" type="line" smooth="yes"/>
      <point x="858.9992932862191" y="1342.0000000000002"/>
      <point x="997.2000000000002" y="1203.0"/>
      <point x="997.2000000000002" y="1001.1999999999999" type="curve" smooth="yes"/>
      <point x="997.2000000000002" y="809.2118380062307"/>
      <point x="873.535652173913" y="685.4000000000001"/>
      <point x="663.2000000000002" y="685.4000000000001" type="curve" smooth="yes"/>
      <point x="386.9999999999999" y="685.4000000000001" type="line"/>
      <point x="386.9999999999999" y="631.2" type="line"/>
    </contour>
  </outline>
</glyph>
<glyph name="C" format="2">
  <advance width="1378.3999999999999"/>
  <unicode hex="0043"/>
  <anchor x="760.8" y="1550.0" name="center"/>
  <outline>
    <contour>
      <point x="1302.8" y="334.6" type="curve" smooth="yes"/>
      <point x="1302.8" y="348.40000000000003"/>
      <point x="1296.1999999999998" y="355.8"/>
      <point x="1284.6000000000001" y="357.0" type="curve" smooth="yes"/>
      <point x="1271.0000000000002" y="358.2"/>
      <point x="1260.2" y="351.2"/>
      <point x="1250.8" y="330.8" type="curve" smooth="yes"/>
      <point x="1180.4" y="164.60000000000002"/>
      <point x="1032.2" y="62.19999999999999"/>
      <point x="816.6" y="62.19999999999999" type="curve" smooth="yes"/>
      <point x="500.45050505050506" y="62.19999999999999"/>
      <point x="258.5999999999999" y="312.40000000000003"/>
      <point x="258.5999999999999" y="733.6000000000001" type="curve" smooth="yes"/>
      <point x="258.5999999999999" y="1113.5674418604651"/>
      <point x="475.2" y="1367.6"/>
      <point x="755.8000000000001" y="1367.6" type="curve" smooth="yes"/>
      <point x="970.4000000000001" y="1367.6"/>
      <point x="1116.231341386553" y="1269.3331520158447"/>
      <point x="1230.8" y="1032.0" type="curve" smooth="yes"/>
      <point x="1239.6" y="1013.0000000000001"/>
      <point x="1254.7999999999997" y="1004.2"/>
      <point x="1273.4" y="1006.4" type="curve" smooth="yes"/>
      <point x="1295.2" y="1008.4"/>
      <point x="1306.0" y="1027.0"/>
      <point x="1298.7999999999997" y="1048.8000000000002" type="curve" smooth="yes"/>
      <point x="1191.0" y="1382.8" type="line" smooth="yes"/>
      <point x="1184.0" y="1405.8"/>
      <point x="1174.1999999999998" y="1413.6"/>
      <point x="1158.8" y="1413.6" type="curve" smooth="yes"/>
      <point x="1114.8000000000002" y="1413.6"/>
      <point x="1129.5999999999997" y="1337.4"/>
      <point x="1084.6" y="1337.4" type="curve" smooth="yes"/>
      <point x="1049.8000000000002" y="1337.4"/>
      <point x="965.8" y="1430.4"/>
      <point x="749.5999999999999" y="1430.4" type="curve" smooth="yes"/>
      <point x="374.40000000000003" y="1430.4"/>
      <point x="100.0" y="1118.8"/>
      <point x="100.0" y="690.6" type="curve" smooth="yes"/>
      <point x="100.0" y="267.66925207756236"/>
      <point x="356.99999999999994" y="-35.2"/>
      <point x="776.2" y="-35.2" type="curve" smooth="yes"/>
      <point x="1109.3102362204727" y="-35.2"/>
      <point x="1302.8000000000002" y="170.0"/>
    </contour>
  </outline>
</glyph>
<glyph name="D" format="2">
  <advance width="1531.3999999999999"/>
  <unicode hex="0044"/>
  <anchor x="755.8000000000001" y="1570.0" name="center"/>
  <outline>
    <contour>
      <point x="121.8" y="26.4" type="curve" smooth="yes"/>
      <point x="121.8" y="9.999999999999996"/>
      <point x="132.8" y="0.0"/>
      <point x="159.00000000000003" y="0.0" type="curve" smooth="yes"/>
      <point x="688.1999999999999" y="0.0" type="line" smooth="yes"/>
      <point x="1169.0" y="0.0"/>
      <point x="1436.6" y="282.8"/>
      <point x="1436.6" y="666.4" type="curve" smooth="yes"/>
      <point x="1436.6" y="1093.2"/>
      <point x="1103.8" y="1400.0"/>
      <point x="602.4" y="1400.0" type="curve" smooth="yes"/>
      <point x="159.00000000000003" y="1400.0" type="line" smooth="yes"/>
      <point x="132.8" y="1400.0"/>
      <point x="121.8" y="1390.0000000000002"/>
      <point x="121.8" y="1373.6" type="curve" smooth="yes"/>
      <point x="121.8" y="1358.6"/>
      <point x="131.20000000000002" y="1348.8000000000002"/>
      <point x="155.4" y="1343.5999999999997" type="curve" smooth="yes"/>
      <point x="230.2" y="1332.0" type="line" smooth="yes"/>
      <point x="261.8" y="1326.2000000000003"/>
      <point x="279.6" y="1308.6"/>
      <point x="279.6" y="1282.0000000000002" type="curve" smooth="yes"/>
      <point x="279.6" y="118.0" type="line" smooth="yes"/>
      <point x="279.6" y="91.39999999999999"/>
      <point x="261.8" y="73.80000000000001"/>
      <point x="230.20000000000002" y="67.99999999999999" type="curve" smooth="yes"/>
      <point x="155.4" y="56.400000000000006" type="line" smooth="yes"/>
      <point x="131.20000000000002" y="51.19999999999999"/>
      <point x="121.8" y="41.39999999999999"/>
    </contour>
    <contour>
      <point x="686.8000000000001" y="61.39999999999999" type="curve" smooth="yes"/>
      <point x="543.2" y="61.39999999999999" type="line" smooth="yes"/>
      <point x="469.99999999999994" y="61.39999999999999"/>
      <point x="436.4" y="84.79999999999997"/>
      <point x="436.4" y="137.2" type="curve" smooth="yes"/>
      <point x="436.4" y="1338.6000000000001" type="line"/>
      <point x="583.8000000000001" y="1338.6000000000001" type="line" smooth="yes"/>
      <point x="1002.1999999999999" y="1338.6000000000001"/>
      <point x="1270.0" y="1071.6000000000001"/>
      <point x="1270.0" y="672.2" type="curve" smooth="yes"/>
      <point x="1270.0" y="287.00000000000006"/>
      <point x="1052.8" y="61.39999999999999"/>
    </contour>
  </outline>
</glyph>
<glyph name="E" format="2">
  <advance width="1265.6000000000001"/>
  <unicode hex="0045"/>
  <anchor x="645.8000000000001" y="1510.0" name="center"/>
  <outline>
    <contour>
      <point x="376.40000000000003" y="724.9999999999999" type="line"/>
      <point x="376.40000000000003" y="663.4000000000001" type="line"/>
      <point x="792.8000000000001" y="663.4000000000001" type="line" smooth="yes"/>
      <point x="866.1999999999999" y="663.4000000000001"/>
      <point x="895.6" y="644.2000000000002"/>
      <point x="940.4000000000001" y="551.4" type="curve" smooth="yes"/>
      <point x="949.8000000000001" y="534.4"/>
      <point x="965.4000000000002" y="527.0000000000001"/>
      <point x="982.3999999999999" y="531.2" type="curve" smooth="yes"/>
      <point x="1000.4000000000001" y="536.2"/>
      <point x="1006.2" y="549.0"/>
      <point x="1000.6000000000001" y="570.8" type="curve" smooth="yes"/>
      <point x="927.4000000000001" y="847.4" type="line" smooth="yes"/>
      <point x="922.4" y="867.6000000000001"/>
      <point x="910.6" y="879.2"/>
      <point x="893.2" y="876.0000000000001" type="curve" smooth="yes"/>
      <point x="875.4" y="872.8000000000001"/>
      <point x="867.6" y="860.9999999999999"/>
      <point x="864.9999999999999" y="839.2" type="curve" smooth="yes"/>
      <point x="857.8" y="748.4000000000001"/>
      <point x="832.8" y="724.9999999999999"/>
      <point x="751.4" y="724.9999999999999" type="curve" smooth="yes"/>
    </contour>
    <contour>
      <point x="121.8" y="1373.5999999999997" type="curve" smooth="yes"/>
      <point x="121.8" y="1358.6"/>
      <point x="131.20000000000002" y="1348.8"/>
      <point x="155.4" y="1343.6" type="curve" smooth="yes"/>
      <point x="230.20000000000002" y="1332.0" type="line" smooth="yes"/>
      <point x="261.8" y="1326.1999999999998"/>
      <point x="279.6" y="1308.6"/>
      <point x="279.6" y="1282.0" type="curve" smooth="yes"/>
      <point x="279.6" y="117.99999999999999" type="line" smooth="yes"/>
      <point x="279.6" y="91.39999999999998"/>
      <point x="261.8" y="73.8"/>
      <point x="230.20000000000002" y="68.0" type="curve" smooth="yes"/>
      <point x="155.4" y="56.400000000000006" type="line" smooth="yes"/>
      <point x="131.20000000000002" y="51.19999999999999"/>
      <point x="121.8" y="41.39999999999999"/>
      <point x="121.8" y="26.4" type="curve" smooth="yes"/>
      <point x="121.8" y="9.999999999999996"/>
      <point x="132.8" y="0.0"/>
      <point x="159.0" y="0.0" type="curve" smooth="yes"/>
      <point x="953.4000000000002" y="0.0" type="line" smooth="yes"/>
      <point x="1001.9999999999999" y="0.0"/>
      <point x="1026.8000000000002" y="-37.6"/>
      <point x="1060.8" y="-37.6" type="curve" smooth="yes"/>
      <point x="1085.8" y="-37.6"/>
      <point x="1099.0" y="-25.000000000000004"/>
      <point x="1106.3999999999999" y="3.999999999999993" type="curve" smooth="yes"/>
      <point x="1183.3999999999999" y="333.19999999999993" type="line" smooth="yes"/>
      <point x="1189.6000000000001" y="358.6"/>
      <point x="1180.7999999999997" y="372.8"/>
      <point x="1159.4" y="374.79999999999995" type="curve" smooth="yes"/>
      <point x="1143.6000000000001" y="376.4"/>
      <point x="1130.2" y="369.6"/>
      <point x="1122.2" y="350.59999999999997" type="curve" smooth="yes"/>
      <point x="1023.0" y="101.60000000000001"/>
      <point x="974.6000000000001" y="62.19999999999999"/>
      <point x="852.6" y="62.19999999999999" type="curve" smooth="yes"/>
      <point x="547.2000000000002" y="62.19999999999999" type="line" smooth="yes"/>
      <point x="470.4" y="62.19999999999999"/>
      <point x="436.4" y="87.79999999999998"/>
      <point x="436.4" y="140.20000000000002" type="curve" smooth="yes"/>
      <point x="436.4" y="1337.8000000000002" type="line"/>
      <point x="823.4" y="1337.8000000000002" type="line" smooth="yes"/>
      <point x="952.2" y="1337.8000000000002"/>
      <point x="993.0" y="1312.4"/>
      <point x="1078.1999999999998" y="1112.6" type="curve" smooth="yes"/>
      <point x="1088.6" y="1090.0"/>
      <point x="1106.8" y="1082.2"/>
      <point x="1126.8" y="1086.4000000000003" type="curve" smooth="yes"/>
      <point x="1145.4" y="1091.0"/>
      <point x="1153.2" y="1105.4"/>
      <point x="1147.2" y="1126.2" type="curve" smooth="yes"/>
      <point x="1072.6000000000001" y="1404.8" type="line" smooth="yes"/>
      <point x="1064.7999999999997" y="1433.6000000000001"/>
      <point x="1053.3999999999999" y="1444.8"/>
      <point x="1031.0" y="1444.8" type="curve" smooth="yes"/>
      <point x="992.1999999999998" y="1444.8"/>
      <point x="973.5999999999999" y="1400.0"/>
      <point x="920.2000000000002" y="1400.0" type="curve" smooth="yes"/>
      <point x="159.0" y="1400.0" type="line" smooth="yes"/>
      <point x="132.8" y="1400.0"/>
      <point x="121.8" y="1390.0000000000002"/>
    </contour>
  </outline>
</glyph>
<glyph name="F" format="2">
  <advance width="1157.6"/>
  <unicode hex="0046"/>
  <outline>
    <contour>
      <point x="857.3999999999999" y="1400.0" type="curve" smooth="yes"/>
      <point x="159.0" y="1400.0" type="line" smooth="yes"/>
      <point x="132.8" y="1400.0"/>
      <point x="121.8" y="1390.0000000000002"/>
      <point x="121.8" y="1373.5999999999997" type="curve" smooth="yes"/>
      <point x="121.8" y="1358.6"/>
      <point x="131.20000000000002" y="1348.8"/>
      <point x="155.4" y="1343.6" type="curve" smooth="yes"/>
      <point x="230.20000000000002" y="1332.0" type="line" smooth="yes"/>
      <point x="261.8" y="1326.1999999999998"/>
      <point x="279.6" y="1308.6"/>
      <point x="279.6" y="1282.0" type="curve" smooth="yes"/>
      <point x="279.6" y="117.99999999999999" type="line" smooth="yes"/>
      <point x="279.6" y="91.4"/>
      <point x="261.8" y="73.8"/>
      <point x="230.20000000000002" y="68.0" type="curve" smooth="yes"/>
      <point x="155.4" y="56.400000000000006" type="line" smooth="yes"/>
      <point x="131.20000000000002" y="51.19999999999999"/>
      <point x="121.8" y="41.39999999999999"/>
      <point x="121.8" y="26.4" type="curve" smooth="yes"/>
      <point x="121.8" y="9.999999999999996"/>
      <point x="132.8" y="0.0"/>
      <point x="159.0" y="0.0" type="curve" smooth="yes"/>
      <point x="599.0" y="0.0" type="line" smooth="yes"/>
      <point x="625.2" y="0.0"/>
      <point x="636.1999999999999" y="9.999999999999996"/>
      <point x="636.1999999999999" y="26.4" type="curve" smooth="yes"/>
      <point x="636.1999999999999" y="43.20000000000002"/>
      <point x="626.1999999999999" y="53.19999999999999"/>
      <point x="601.0" y="56.599999999999994" type="curve" smooth="yes"/>
      <point x="485.79999999999995" y="68.0" type="line" smooth="yes"/>
      <point x="453.59999999999997" y="72.00000000000001"/>
      <point x="436.4" y="91.2"/>
      <point x="436.4" y="118.0" type="curve" smooth="yes"/>
      <point x="436.4" y="1337.8000000000002" type="line"/>
      <point x="769.2" y="1337.8000000000002" type="line" smooth="yes"/>
      <point x="889.8000000000001" y="1337.8000000000002"/>
      <point x="932.1644291036785" y="1308.0982715767955"/>
      <point x="1016.0" y="1111.6000000000001" type="curve" smooth="yes"/>
      <point x="1026.1999999999998" y="1088.8000000000002"/>
      <point x="1040.8000000000002" y="1080.8"/>
      <point x="1060.6000000000001" y="1085.0" type="curve" smooth="yes"/>
      <point x="1079.8" y="1088.7999999999997"/>
      <point x="1090.4" y="1103.0"/>
      <point x="1084.0" y="1125.5999999999997" type="curve" smooth="yes"/>
      <point x="1009.6" y="1404.8" type="line" smooth="yes"/>
      <point x="1002.1999999999999" y="1433.1999999999998"/>
      <point x="991.2" y="1443.8"/>
      <point x="968.7999999999998" y="1443.8" type="curve" smooth="yes"/>
      <point x="934.2" y="1443.8"/>
      <point x="919.6" y="1400.0"/>
    </contour>
    <contour>
      <point x="354.99999999999994" y="695.8" type="line"/>
      <point x="354.99999999999994" y="634.2" type="line"/>
      <point x="773.8" y="634.2" type="line" smooth="yes"/>
      <point x="846.8" y="634.2"/>
      <point x="874.7107817966657" y="614.1424323227524"/>
      <point x="918.4" y="523.8" type="curve" smooth="yes"/>
      <point x="929.0" y="505.6"/>
      <point x="944.2" y="497.8"/>
      <point x="961.4" y="502.2" type="curve" smooth="yes"/>
      <point x="978.6" y="507.19999999999993"/>
      <point x="985.1999999999999" y="519.3999999999999"/>
      <point x="979.6" y="540.9999999999999" type="curve" smooth="yes"/>
      <point x="908.8000000000001" y="818.2" type="line" smooth="yes"/>
      <point x="903.8" y="838.6"/>
      <point x="891.4" y="849.1999999999999"/>
      <point x="873.8" y="846.0" type="curve" smooth="yes"/>
      <point x="856.1999999999999" y="842.8"/>
      <point x="848.8000000000001" y="832.0"/>
      <point x="846.2" y="811.1999999999999" type="curve" smooth="yes"/>
      <point x="838.0" y="719.2"/>
      <point x="812.9999999999999" y="695.8"/>
      <point x="731.4000000000001" y="695.8" type="curve" smooth="yes"/>
    </contour>
  </outline>
</glyph>
<glyph name="G" format="2">
  <advance width="1500.3999999999999"/>
  <unicode hex="0047"/>
  <anchor x="774.0" y="1544.0" name="center"/>
  <outline>
    <contour>
      <point x="1280.0" y="15.800000000000004" type="curve" smooth="yes"/>
      <point x="1280.0" y="459.80000000000007" type="line" smooth="yes"/>
      <point x="1280.0" y="495.99999999999994"/>
      <point x="1297.0" y="509.4"/>
      <point x="1347.2" y="521.2" type="curve" smooth="yes"/>
      <point x="1401.3999999999999" y="533.4" type="line" smooth="yes"/>
      <point x="1428.1999999999998" y="540.4"/>
      <point x="1436.6000000000001" y="548.2"/>
      <point x="1436.6000000000001" y="562.0" type="curve" smooth="yes"/>
      <point x="1436.6000000000001" y="577.5999999999999"/>
      <point x="1423.1999999999998" y="586.8"/>
      <point x="1396.8" y="586.8" type="curve" smooth="yes"/>
      <point x="987.0" y="586.8" type="line" smooth="yes"/>
      <point x="960.0" y="586.8"/>
      <point x="946.6" y="577.8"/>
      <point x="946.6" y="561.8000000000001" type="curve" smooth="yes"/>
      <point x="946.6" y="546.8000000000001"/>
      <point x="959.6" y="537.6"/>
      <point x="985.4" y="532.8" type="curve" smooth="yes"/>
      <point x="1064.6000000000001" y="519.8" type="line" smooth="yes"/>
      <point x="1117.6000000000001" y="510.99999999999994"/>
      <point x="1132.4" y="495.0"/>
      <point x="1132.4" y="459.80000000000007" type="curve" smooth="yes"/>
      <point x="1132.4" y="207.20000000000002" type="line" smooth="yes"/>
      <point x="1132.4" y="100.99999999999999"/>
      <point x="1016.2" y="42.39999999999998"/>
      <point x="829.4000000000001" y="42.39999999999998" type="curve" smooth="yes"/>
      <point x="506.4" y="42.39999999999998"/>
      <point x="258.59999999999997" y="300.20000000000005"/>
      <point x="258.59999999999997" y="734.4000000000001" type="curve" smooth="yes"/>
      <point x="258.59999999999997" y="1114.4"/>
      <point x="484.5176470588235" y="1367.6"/>
      <point x="778.0" y="1367.6" type="curve" smooth="yes"/>
      <point x="1002.3037037037036" y="1367.6"/>
      <point x="1158.7478422467277" y="1271.7115371824198"/>
      <point x="1274.3999999999999" y="1032.0" type="curve" smooth="yes"/>
      <point x="1283.2" y="1012.9999999999998"/>
      <point x="1298.4" y="1004.2"/>
      <point x="1316.9999999999998" y="1006.4000000000001" type="curve" smooth="yes"/>
      <point x="1338.8" y="1008.4000000000001"/>
      <point x="1349.6" y="1027.0"/>
      <point x="1342.4" y="1048.8" type="curve" smooth="yes"/>
      <point x="1234.6000000000001" y="1382.8" type="line" smooth="yes"/>
      <point x="1227.6000000000001" y="1405.8"/>
      <point x="1217.8" y="1413.6"/>
      <point x="1202.4" y="1413.6" type="curve" smooth="yes"/>
      <point x="1158.4" y="1413.6"/>
      <point x="1173.2" y="1337.4"/>
      <point x="1128.1999999999998" y="1337.4" type="curve" smooth="yes"/>
      <point x="1090.9539358600584" y="1337.4"/>
      <point x="1001.5561357702351" y="1430.4"/>
      <point x="771.8" y="1430.4" type="curve" smooth="yes"/>
      <point x="383.7064364207222" y="1430.4"/>
      <point x="100.0" y="1121.0"/>
      <point x="100.0" y="696.0" type="curve" smooth="yes"/>
      <point x="100.0" y="273.20000000000005"/>
      <point x="363.6" y="-35.0"/>
      <point x="790.8" y="-35.0" type="curve" smooth="yes"/>
      <point x="1018.9999999999999" y="-35.0"/>
      <point x="1109.6" y="61.599999999999994"/>
      <point x="1160.0" y="61.599999999999994" type="curve" smooth="yes"/>
      <point x="1196.6" y="61.599999999999994"/>
      <point x="1193.1999999999998" y="-35.199999999999996"/>
      <point x="1243.4000000000003" y="-35.199999999999996" type="curve" smooth="yes"/>
      <point x="1267.6000000000001" y="-35.199999999999996"/>
      <point x="1280.0" y="-21.400000000000006"/>
    </contour>
  </outline>
</glyph>
<glyph name="H" format="2">
  <advance width="1613.0"/>
  <unicode hex="0048"/>
  <outline>
    <contour>
      <point x="343.2" y="696.2" type="line"/>
      <point x="343.2" y="631.1999999999999" type="line"/>
      <point x="1231.8" y="631.1999999999999" type="line"/>
      <point x="1231.8" y="696.2" type="line"/>
    </contour>
    <contour>
      <point x="434.8" y="117.99999999999997" type="curve" smooth="yes"/>
      <point x="434.8" y="1282.0" type="line" smooth="yes"/>
      <point x="434.8" y="1308.6"/>
      <point x="452.59999999999997" y="1326.1999999999998"/>
      <point x="484.19999999999993" y="1332.0000000000002" type="curve" smooth="yes"/>
      <point x="558.9999999999999" y="1343.6" type="line" smooth="yes"/>
      <point x="583.1999999999999" y="1348.8"/>
      <point x="592.6" y="1358.5999999999997"/>
      <point x="592.6" y="1373.5999999999997" type="curve" smooth="yes"/>
      <point x="592.6" y="1390.0000000000002"/>
      <point x="581.6" y="1400.0"/>
      <point x="555.4" y="1400.0" type="curve" smooth="yes"/>
      <point x="157.4" y="1400.0" type="line" smooth="yes"/>
      <point x="131.2" y="1400.0"/>
      <point x="120.2" y="1390.0000000000002"/>
      <point x="120.2" y="1373.5999999999997" type="curve" smooth="yes"/>
      <point x="120.2" y="1358.6"/>
      <point x="129.60000000000002" y="1348.8"/>
      <point x="153.8" y="1343.6" type="curve" smooth="yes"/>
      <point x="228.6" y="1332.0000000000002" type="line" smooth="yes"/>
      <point x="260.2" y="1326.1999999999998"/>
      <point x="278.0" y="1308.6"/>
      <point x="278.0" y="1282.0" type="curve" smooth="yes"/>
      <point x="278.0" y="117.99999999999997" type="line" smooth="yes"/>
      <point x="278.0" y="91.4"/>
      <point x="260.20000000000005" y="73.80000000000001"/>
      <point x="228.6" y="67.99999999999999" type="curve" smooth="yes"/>
      <point x="153.8" y="56.400000000000006" type="line" smooth="yes"/>
      <point x="129.59999999999997" y="51.19999999999999"/>
      <point x="120.2" y="41.39999999999999"/>
      <point x="120.2" y="26.4" type="curve" smooth="yes"/>
      <point x="120.2" y="9.999999999999996"/>
      <point x="131.2" y="0.0"/>
      <point x="157.4" y="0.0" type="curve" smooth="yes"/>
      <point x="555.4" y="0.0" type="line" smooth="yes"/>
      <point x="581.6" y="0.0"/>
      <point x="592.6" y="9.999999999999996"/>
      <point x="592.6" y="26.4" type="curve" smooth="yes"/>
      <point x="592.6" y="41.4"/>
      <point x="583.2" y="51.19999999999999"/>
      <point x="558.9999999999999" y="56.400000000000006" type="curve" smooth="yes"/>
      <point x="484.19999999999993" y="67.99999999999999" type="line" smooth="yes"/>
      <point x="452.59999999999997" y="73.80000000000001"/>
      <point x="434.8" y="91.4"/>
    </contour>
    <contour>
      <point x="1335.0" y="117.99999999999997" type="curve" smooth="yes"/>
      <point x="1335.0" y="1282.0" type="line" smooth="yes"/>
      <point x="1335.0" y="1308.6"/>
      <point x="1352.8000000000002" y="1326.1999999999998"/>
      <point x="1384.4" y="1332.0000000000002" type="curve" smooth="yes"/>
      <point x="1459.2" y="1343.6" type="line" smooth="yes"/>
      <point x="1483.3999999999999" y="1348.8"/>
      <point x="1492.8000000000002" y="1358.5999999999997"/>
      <point x="1492.8000000000002" y="1373.5999999999997" type="curve" smooth="yes"/>
      <point x="1492.8000000000002" y="1390.0000000000002"/>
      <point x="1481.8" y="1400.0"/>
      <point x="1455.6000000000001" y="1400.0" type="curve" smooth="yes"/>
      <point x="1057.6" y="1400.0" type="line" smooth="yes"/>
      <point x="1031.4" y="1400.0"/>
      <point x="1020.4000000000001" y="1390.0000000000002"/>
      <point x="1020.4000000000001" y="1373.5999999999997" type="curve" smooth="yes"/>
      <point x="1020.4000000000001" y="1358.6"/>
      <point x="1029.8000000000002" y="1348.8"/>
      <point x="1054.0" y="1343.6" type="curve" smooth="yes"/>
      <point x="1128.8000000000002" y="1332.0000000000002" type="line" smooth="yes"/>
      <point x="1160.4000000000003" y="1326.1999999999998"/>
      <point x="1178.2" y="1308.6"/>
      <point x="1178.2" y="1282.0" type="curve" smooth="yes"/>
      <point x="1178.2" y="117.99999999999997" type="line" smooth="yes"/>
      <point x="1178.2" y="91.4"/>
      <point x="1160.3999999999999" y="73.80000000000001"/>
      <point x="1128.8000000000002" y="67.99999999999999" type="curve" smooth="yes"/>
      <point x="1054.0" y="56.400000000000006" type="line" smooth="yes"/>
      <point x="1029.8" y="51.19999999999999"/>
      <point x="1020.4000000000001" y="41.39999999999999"/>
      <point x="1020.4000000000001" y="26.4" type="curve" smooth="yes"/>
      <point x="1020.4000000000001" y="9.999999999999996"/>
      <point x="1031.4" y="0.0"/>
      <point x="1057.6" y="0.0" type="curve" smooth="yes"/>
      <point x="1455.6000000000001" y="0.0" type="line" smooth="yes"/>
      <point x="1481.8" y="0.0"/>
      <point x="1492.8000000000002" y="9.999999999999996"/>
      <point x="1492.8000000000002" y="26.4" type="curve" smooth="yes"/>
      <point x="1492.8000000000002" y="41.4"/>
      <point x="1483.4" y="51.19999999999999"/>
      <point x="1459.2" y="56.400000000000006" type="curve" smooth="yes"/>
      <point x="1384.4" y="67.99999999999999" type="line" smooth="yes"/>
      <point x="1352.8" y="73.80000000000001"/>
      <point x="1335.0" y="91.4"/>
    </contour>
  </outline>
</glyph>
<glyph name="I" format="2">
  <advance width="712.8"/>
  <unicode hex="0049"/>
  <outline>
    <contour>
      <point x="434.79999999999995" y="117.99999999999997" type="curve" smooth="yes"/>
      <point x="434.79999999999995" y="1282.0" type="line" smooth="yes"/>
      <point x="434.79999999999995" y="1308.6"/>
      <point x="452.6" y="1326.1999999999998"/>
      <point x="484.19999999999993" y="1332.0000000000002" type="curve" smooth="yes"/>
      <point x="559.0000000000001" y="1343.6" type="line" smooth="yes"/>
      <point x="583.2" y="1348.8"/>
      <point x="592.6" y="1358.5999999999997"/>
      <point x="592.6" y="1373.5999999999997" type="curve" smooth="yes"/>
      <point x="592.6" y="1390.0000000000002"/>
      <point x="581.5999999999999" y="1400.0"/>
      <point x="555.4" y="1400.0" type="curve" smooth="yes"/>
      <point x="157.4" y="1400.0" type="line" smooth="yes"/>
      <point x="131.2" y="1400.0"/>
      <point x="120.2" y="1390.0000000000002"/>
      <point x="120.2" y="1373.5999999999997" type="curve" smooth="yes"/>
      <point x="120.2" y="1358.6"/>
      <point x="129.6" y="1348.8"/>
      <point x="153.79999999999998" y="1343.6" type="curve" smooth="yes"/>
      <point x="228.6" y="1332.0000000000002" type="line" smooth="yes"/>
      <point x="260.2" y="1326.1999999999998"/>
      <point x="278.0" y="1308.6"/>
      <point x="278.0" y="1282.0" type="curve" smooth="yes"/>
      <point x="278.0" y="117.99999999999997" type="line" smooth="yes"/>
      <point x="278.0" y="91.4"/>
      <point x="260.2" y="73.80000000000001"/>
      <point x="228.6" y="67.99999999999999" type="curve" smooth="yes"/>
      <point x="153.79999999999998" y="56.400000000000006" type="line" smooth="yes"/>
      <point x="129.60000000000002" y="51.19999999999999"/>
      <point x="120.2" y="41.39999999999999"/>
      <point x="120.2" y="26.4" type="curve" smooth="yes"/>
      <point x="120.2" y="9.999999999999996"/>
      <point x="131.2" y="0.0"/>
      <point x="157.4" y="0.0" type="curve" smooth="yes"/>
      <point x="555.4" y="0.0" type="line" smooth="yes"/>
      <point x="581.5999999999999" y="0.0"/>
      <point x="592.6" y="9.999999999999996"/>
      <point x="592.6" y="26.4" type="curve" smooth="yes"/>
      <point x="592.6" y="41.4"/>
      <point x="583.2" y="51.19999999999999"/>
      <point x="559.0000000000001" y="56.400000000000006" type="curve" smooth="yes"/>
      <point x="484.19999999999993" y="67.99999999999999" type="line" smooth="yes"/>
      <point x="452.59999999999997" y="73.80000000000001"/>
      <point x="434.79999999999995" y="91.4"/>
    </contour>
  </outline>
</glyph>
<glyph name="J" format="2">
  <advance width="858.4"/>
  <unicode hex="004A"/>
  <anchor x="507.19999999999993" y="1463.8000000000002" name="center"/>
  <outline>
    <contour>
      <point x="690.2" y="202.79999999999998" type="curve" smooth="yes"/>
      <point x="690.2" y="337.4"/>
      <point x="588.4000000000001" y="393.8"/>
      <point x="588.4000000000001" y="566.8000000000001" type="curve" smooth="yes"/>
      <point x="588.4000000000001" y="1282.0" type="line" smooth="yes"/>
      <point x="588.4000000000001" y="1308.6000000000001"/>
      <point x="606.1999999999999" y="1326.2"/>
      <point x="637.8000000000001" y="1332.0" type="curve" smooth="yes"/>
      <point x="712.6" y="1343.6000000000001" type="line" smooth="yes"/>
      <point x="736.8" y="1348.8"/>
      <point x="746.2" y="1358.6"/>
      <point x="746.2" y="1373.6000000000001" type="curve" smooth="yes"/>
      <point x="746.2" y="1390.0"/>
      <point x="735.1999999999999" y="1400.0"/>
      <point x="709.0000000000001" y="1400.0" type="curve" smooth="yes"/>
      <point x="305.00000000000006" y="1400.0" type="line" smooth="yes"/>
      <point x="278.8" y="1400.0"/>
      <point x="267.79999999999995" y="1389.9999999999998"/>
      <point x="267.79999999999995" y="1373.6000000000001" type="curve" smooth="yes"/>
      <point x="267.79999999999995" y="1356.8"/>
      <point x="277.8" y="1347.6000000000004"/>
      <point x="303.0" y="1343.3999999999999" type="curve" smooth="yes"/>
      <point x="382.20000000000005" y="1332.0" type="line" smooth="yes"/>
      <point x="414.40000000000003" y="1327.1999999999998"/>
      <point x="431.6" y="1308.7999999999997"/>
      <point x="431.6" y="1282.0" type="curve" smooth="yes"/>
      <point x="431.6" y="555.2" type="line" smooth="yes"/>
      <point x="431.6" y="359.0523326572008"/>
      <point x="560.5999999999999" y="299.47383367139963"/>
      <point x="560.5999999999999" y="173.79999999999995" type="curve" smooth="yes"/>
      <point x="560.5999999999999" y="79.43960396039603"/>
      <point x="481.99801980198026" y="30.799999999999983"/>
      <point x="386.0" y="30.799999999999983" type="curve" smooth="yes"/>
      <point x="295.20000000000005" y="30.799999999999983"/>
      <point x="263.79999999999995" y="72.93370494240058"/>
      <point x="263.79999999999995" y="139.8" type="curve" smooth="yes"/>
      <point x="263.79999999999995" y="192.2" type="line" smooth="yes"/>
      <point x="263.79999999999995" y="244.79999999999995"/>
      <point x="235.32043010752687" y="278.59999999999997"/>
      <point x="192.2" y="278.59999999999997" type="curve" smooth="yes"/>
      <point x="134.05155662505643" y="278.59999999999997"/>
      <point x="100.6" y="237.0"/>
      <point x="100.6" y="175.39999999999998" type="curve" smooth="yes"/>
      <point x="100.6" y="56.8"/>
      <point x="194.96610169491524" y="-28.0"/>
      <point x="369.59999999999997" y="-28.0" type="curve" smooth="yes"/>
      <point x="557.0235294117646" y="-28.0"/>
      <point x="690.2" y="63.46439024390243"/>
    </contour>
  </outline>
</glyph>
<glyph name="K" format="2">
  <advance width="1452.6"/>
  <unicode hex="004B"/>
  <anchor x="773.2" y="1460.0" name="center"/>
  <outline>
    <contour>
      <point x="352.19999999999993" y="519.6" type="line"/>
      <point x="383.8" y="455.19999999999993" type="line"/>
      <point x="1168.0000000000002" y="1232.6" type="line" smooth="yes"/>
      <point x="1258.2" y="1319.4"/>
      <point x="1282.8000000000002" y="1333.6"/>
      <point x="1331.0" y="1342.4" type="curve" smooth="yes"/>
      <point x="1373.2" y="1351.3999999999999"/>
      <point x="1382.8000000000002" y="1359.2"/>
      <point x="1382.8000000000002" y="1373.6" type="curve" smooth="yes"/>
      <point x="1382.8000000000002" y="1390.0"/>
      <point x="1371.0" y="1400.0"/>
      <point x="1342.3999999999999" y="1400.0" type="curve" smooth="yes"/>
      <point x="1002.2" y="1400.0" type="line" smooth="yes"/>
      <point x="976.0000000000001" y="1400.0"/>
      <point x="962.6" y="1390.8"/>
      <point x="962.6" y="1373.6" type="curve" smooth="yes"/>
      <point x="962.6" y="1359.3999999999999"/>
      <point x="971.4" y="1350.4"/>
      <point x="997.6" y="1344.8" type="curve" smooth="yes"/>
      <point x="1071.4" y="1332.6000000000001" type="line" smooth="yes"/>
      <point x="1121.0000000000002" y="1321.4"/>
      <point x="1125.8" y="1292.2"/>
      <point x="1086.8" y="1253.6" type="curve" smooth="yes"/>
    </contour>
    <contour>
      <point x="657.2" y="782.0" type="line"/>
      <point x="1092.4" y="126.00000000000001" type="line" smooth="yes"/>
      <point x="1113.2" y="93.40000000000002"/>
      <point x="1112.2" y="73.00000000000003"/>
      <point x="1080.2" y="67.19999999999999" type="curve" smooth="yes"/>
      <point x="1003.0" y="55.599999999999994" type="line" smooth="yes"/>
      <point x="978.5999999999999" y="51.2"/>
      <point x="968.0" y="41.59999999999998"/>
      <point x="968.0" y="26.599999999999994" type="curve" smooth="yes"/>
      <point x="968.0" y="10.0"/>
      <point x="980.6" y="0.0"/>
      <point x="1008.4" y="0.0" type="curve" smooth="yes"/>
      <point x="1410.2" y="0.0" type="line" smooth="yes"/>
      <point x="1437.2" y="0.0"/>
      <point x="1451.4" y="10.000000000000002"/>
      <point x="1451.4" y="25.599999999999994" type="curve" smooth="yes"/>
      <point x="1451.4" y="41.79999999999998"/>
      <point x="1442.2" y="51.400000000000006"/>
      <point x="1390.2" y="61.599999999999994" type="curve" smooth="yes"/>
      <point x="1338.0" y="69.79999999999998"/>
      <point x="1303.7999999999997" y="89.80000000000001"/>
      <point x="1277.3999999999999" y="129.2" type="curve" smooth="yes"/>
      <point x="780.5999999999999" y="879.6000000000001" type="line"/>
    </contour>
    <contour>
      <point x="436.4" y="117.99999999999999" type="curve" smooth="yes"/>
      <point x="436.4" y="1282.0" type="line" smooth="yes"/>
      <point x="436.4" y="1308.6"/>
      <point x="454.20000000000005" y="1326.1999999999998"/>
      <point x="485.79999999999995" y="1332.0" type="curve" smooth="yes"/>
      <point x="560.6" y="1343.6" type="line" smooth="yes"/>
      <point x="584.8" y="1348.8"/>
      <point x="594.2" y="1358.5999999999997"/>
      <point x="594.2" y="1373.5999999999997" type="curve" smooth="yes"/>
      <point x="594.2" y="1390.0"/>
      <point x="583.2" y="1400.0"/>
      <point x="557.0" y="1400.0" type="curve" smooth="yes"/>
      <point x="159.0" y="1400.0" type="line" smooth="yes"/>
      <point x="132.8" y="1400.0"/>
      <point x="121.8" y="1390.0000000000002"/>
      <point x="121.8" y="1373.5999999999997" type="curve" smooth="yes"/>
      <point x="121.8" y="1358.6"/>
      <point x="131.20000000000002" y="1348.8"/>
      <point x="155.4" y="1343.6" type="curve" smooth="yes"/>
      <point x="230.20000000000002" y="1332.0" type="line" smooth="yes"/>
      <point x="261.8" y="1326.2000000000003"/>
      <point x="279.6" y="1308.6"/>
      <point x="279.6" y="1282.0" type="curve" smooth="yes"/>
      <point x="279.6" y="117.99999999999999" type="line" smooth="yes"/>
      <point x="279.6" y="91.39999999999999"/>
      <point x="261.8" y="73.80000000000001"/>
      <point x="230.20000000000002" y="68.0" type="curve" smooth="yes"/>
      <point x="155.4" y="56.400000000000006" type="line" smooth="yes"/>
      <point x="131.20000000000002" y="51.19999999999999"/>
      <point x="121.8" y="41.39999999999999"/>
      <point x="121.8" y="26.4" type="curve" smooth="yes"/>
      <point x="121.8" y="9.999999999999996"/>
      <point x="132.8" y="0.0"/>
      <point x="159.0" y="0.0" type="curve" smooth="yes"/>
      <point x="553.0" y="0.0" type="line" smooth="yes"/>
      <point x="579.2" y="0.0"/>
      <point x="590.2" y="10.0"/>
      <point x="590.2" y="26.4" type="curve" smooth="yes"/>
      <point x="590.2" y="41.39999999999999"/>
      <point x="581.6000000000001" y="49.999999999999986"/>
      <point x="556.6" y="56.39999999999998" type="curve" smooth="yes"/>
      <point x="483.8" y="68.0" type="line" smooth="yes"/>
      <point x="453.0" y="74.19999999999999"/>
      <point x="436.4" y="91.4"/>
    </contour>
  </outline>
</glyph>
<glyph name="L" format="2">
  <advance width="1199.6"/>
  <unicode hex="004C"/>
  <anchor x="965.0" y="1482.4" name="right"/>
  <anchor x="356.6" y="1473.0" name="center"/>
  <outline>
    <contour>
      <point x="559.0" y="1343.6" type="line" smooth="yes"/>
      <point x="583.2" y="1348.8"/>
      <point x="592.6" y="1358.6"/>
      <point x="592.6" y="1373.5999999999997" type="curve" smooth="yes"/>
      <point x="592.6" y="1390.0000000000002"/>
      <point x="581.6000000000001" y="1400.0"/>
      <point x="555.4" y="1400.0" type="curve" smooth="yes"/>
      <point x="157.4" y="1400.0" type="line" smooth="yes"/>
      <point x="131.2" y="1400.0"/>
      <point x="120.2" y="1390.0000000000002"/>
      <point x="120.2" y="1373.5999999999997" type="curve" smooth="yes"/>
      <point x="120.2" y="1358.6"/>
      <point x="129.6" y="1348.8"/>
      <point x="153.8" y="1343.6" type="curve" smooth="yes"/>
      <point x="228.6" y="1332.0" type="line" smooth="yes"/>
      <point x="260.2" y="1326.2000000000003"/>
      <point x="278.0" y="1308.6"/>
      <point x="278.0" y="1282.0" type="curve" smooth="yes"/>
      <point x="278.0" y="117.99999999999999" type="line" smooth="yes"/>
      <point x="278.0" y="91.39999999999998"/>
      <point x="260.20000000000005" y="73.80000000000001"/>
      <point x="228.6" y="68.0" type="curve" smooth="yes"/>
      <point x="153.8" y="56.400000000000006" type="line" smooth="yes"/>
      <point x="129.6" y="51.19999999999999"/>
      <point x="120.2" y="41.39999999999999"/>
      <point x="120.2" y="26.4" type="curve" smooth="yes"/>
      <point x="120.2" y="9.999999999999996"/>
      <point x="131.2" y="0.0"/>
      <point x="157.4" y="0.0" type="curve" smooth="yes"/>
      <point x="900.4000000000002" y="0.0" type="line" smooth="yes"/>
      <point x="955.4" y="0.0"/>
      <point x="973.3999999999999" y="-39.2"/>
      <point x="1010.1999999999999" y="-39.2" type="curve" smooth="yes"/>
      <point x="1032.6000000000001" y="-39.2"/>
      <point x="1046.0" y="-26.8"/>
      <point x="1053.3999999999999" y="2.3999999999999844" type="curve" smooth="yes"/>
      <point x="1133.3999999999996" y="349.0" type="line" smooth="yes"/>
      <point x="1139.6000000000001" y="373.0"/>
      <point x="1131.3999999999999" y="387.8"/>
      <point x="1110.3999999999999" y="390.4" type="curve" smooth="yes"/>
      <point x="1091.1999999999998" y="392.99999999999994"/>
      <point x="1079.2" y="385.40000000000003"/>
      <point x="1070.0" y="364.0" type="curve" smooth="yes"/>
      <point x="1017.3999999999999" y="232.0" type="line" smooth="yes"/>
      <point x="964.2" y="99.4"/>
      <point x="912.1999999999999" y="62.199999999999974"/>
      <point x="792.0" y="62.199999999999974" type="curve" smooth="yes"/>
      <point x="537.4" y="62.199999999999974" type="line" smooth="yes"/>
      <point x="466.00000000000006" y="62.199999999999974"/>
      <point x="434.8" y="83.59999999999998"/>
      <point x="434.8" y="130.8" type="curve" smooth="yes"/>
      <point x="434.8" y="1282.0" type="line" smooth="yes"/>
      <point x="434.8" y="1308.6"/>
      <point x="452.6" y="1326.1999999999998"/>
      <point x="484.19999999999993" y="1332.0" type="curve" smooth="yes"/>
    </contour>
  </outline>
</glyph>
<glyph name="M" format="2">
  <advance width="1745.8"/>
  <unicode hex="004D"/>
  <anchor x="869.0" y="1484.0" name="center"/>
  <outline>
    <contour>
      <point x="908.2" y="274.8" type="line"/>
      <point x="458.59999999999997" y="1354.3999999999999" type="line" smooth="yes"/>
      <point x="444.79999999999995" y="1389.9999999999998"/>
      <point x="424.8" y="1400.0"/>
      <point x="388.99999999999994" y="1400.0" type="curve" smooth="yes"/>
      <point x="206.6" y="1400.0" type="line" smooth="yes"/>
      <point x="179.0" y="1400.0"/>
      <point x="164.60000000000002" y="1390.0"/>
      <point x="164.60000000000002" y="1372.0" type="curve" smooth="yes"/>
      <point x="164.60000000000002" y="1355.6"/>
      <point x="175.2" y="1346.9999999999998"/>
      <point x="203.79999999999998" y="1341.1999999999998" type="curve" smooth="yes"/>
      <point x="261.8" y="1330.4" type="line" smooth="yes"/>
      <point x="311.80000000000007" y="1320.8"/>
      <point x="332.80000000000007" y="1294.6"/>
      <point x="329.19999999999993" y="1250.1999999999998" type="curve" smooth="yes"/>
      <point x="230.79999999999995" y="157.8" type="line" smooth="yes"/>
      <point x="226.60000000000002" y="106.80000000000001"/>
      <point x="205.4" y="83.80000000000001"/>
      <point x="155.6" y="72.60000000000001" type="curve" smooth="yes"/>
      <point x="97.80000000000001" y="56.19999999999999" type="line" smooth="yes"/>
      <point x="74.79999999999998" y="50.400000000000006"/>
      <point x="60.60000000000001" y="42.6"/>
      <point x="60.60000000000001" y="26.4" type="curve" smooth="yes"/>
      <point x="60.60000000000001" y="10.0"/>
      <point x="73.80000000000001" y="0.0"/>
      <point x="100.80000000000001" y="0.0" type="curve" smooth="yes"/>
      <point x="437.40000000000003" y="0.0" type="line" smooth="yes"/>
      <point x="464.2000000000001" y="0.0"/>
      <point x="478.40000000000003" y="10.399999999999997"/>
      <point x="478.40000000000003" y="27.0" type="curve" smooth="yes"/>
      <point x="478.40000000000003" y="41.00000000000001"/>
      <point x="465.20000000000005" y="47.39999999999999"/>
      <point x="444.8" y="53.8" type="curve" smooth="yes"/>
      <point x="376.79999999999995" y="71.39999999999999" type="line" smooth="yes"/>
      <point x="323.8" y="86.6"/>
      <point x="300.19999999999993" y="106.39999999999999"/>
      <point x="304.4000000000001" y="157.59999999999997" type="curve" smooth="yes"/>
      <point x="402.79999999999995" y="1263.1999999999998" type="line"/>
      <point x="345.59999999999997" y="1220.4" type="line"/>
      <point x="800.6" y="129.2" type="line" smooth="yes"/>
      <point x="813.8" y="96.4"/>
      <point x="825.4" y="89.0"/>
      <point x="844.8000000000001" y="89.0" type="curve" smooth="yes"/>
      <point x="861.4" y="89.0"/>
      <point x="873.4" y="96.4"/>
      <point x="885.5999999999999" y="127.8" type="curve" smooth="yes"/>
      <point x="1338.0" y="1241.8" type="line"/>
      <point x="1278.9999999999998" y="1240.3999999999999" type="line"/>
      <point x="1370.6" y="134.6" type="line" smooth="yes"/>
      <point x="1373.6000000000001" y="97.00000000000001"/>
      <point x="1358.3999999999999" y="81.19999999999999"/>
      <point x="1303.2" y="68.8" type="curve" smooth="yes"/>
      <point x="1242.6000000000001" y="55.599999999999994" type="line" smooth="yes"/>
      <point x="1215.6" y="48.8"/>
      <point x="1206.6" y="39.60000000000001"/>
      <point x="1206.6" y="26.4" type="curve" smooth="yes"/>
      <point x="1206.6" y="10.0"/>
      <point x="1220.0" y="0.0"/>
      <point x="1246.4000000000003" y="0.0" type="curve" smooth="yes"/>
      <point x="1649.2" y="0.0" type="line" smooth="yes"/>
      <point x="1675.2" y="0.0"/>
      <point x="1688.8" y="10.8"/>
      <point x="1688.8" y="27.199999999999996" type="curve" smooth="yes"/>
      <point x="1688.8" y="40.60000000000001"/>
      <point x="1679.8000000000002" y="49.39999999999999"/>
      <point x="1653.8000000000002" y="55.599999999999994" type="curve" smooth="yes"/>
      <point x="1593.3999999999999" y="68.8" type="line" smooth="yes"/>
      <point x="1546.0" y="79.19999999999999"/>
      <point x="1530.0" y="92.6"/>
      <point x="1527.0000000000002" y="136.0" type="curve" smooth="yes"/>
      <point x="1439.2" y="1237.5999999999997" type="line" smooth="yes"/>
      <point x="1434.6000000000001" y="1299.8"/>
      <point x="1449.6" y="1318.6"/>
      <point x="1501.1999999999998" y="1330.3999999999999" type="curve" smooth="yes"/>
      <point x="1564.0" y="1344.3999999999999" type="line" smooth="yes"/>
      <point x="1591.2" y="1350.8000000000002"/>
      <point x="1599.8" y="1360.4"/>
      <point x="1599.8" y="1373.5999999999997" type="curve" smooth="yes"/>
      <point x="1599.8" y="1389.9999999999998"/>
      <point x="1586.3999999999999" y="1400.0"/>
      <point x="1559.4000000000003" y="1400.0" type="curve" smooth="yes"/>
      <point x="1373.0" y="1400.0" type="line" smooth="yes"/>
      <point x="1335.9999999999998" y="1400.0"/>
      <point x="1316.0" y="1385.3999999999999"/>
      <point x="1302.0" y="1349.0" type="curve" smooth="yes"/>
      <point x="847.0000000000001" y="230.59999999999997" type="line"/>
    </contour>
  </outline>
</glyph>
<glyph name="N" format="2">
  <advance width="1563.4"/>
  <unicode hex="004E"/>
  <anchor x="775.1999999999999" y="1565.2" name="center"/>
  <outline>
    <contour>
      <point x="538.8" y="26.4" type="curve" smooth="yes"/>
      <point x="538.8" y="40.00000000000001"/>
      <point x="531.6" y="47.599999999999994"/>
      <point x="506.3999999999999" y="55.39999999999998" type="curve" smooth="yes"/>
      <point x="435.8" y="72.60000000000002" type="line" smooth="yes"/>
      <point x="372.19999999999993" y="90.19999999999999"/>
      <point x="360.2" y="104.59999999999998"/>
      <point x="360.2" y="151.0" type="curve" smooth="yes"/>
      <point x="360.2" y="1199.4" type="line"/>
      <point x="309.4" y="1153.6" type="line"/>
      <point x="1148.2000000000003" y="94.6" type="line" smooth="yes"/>
      <point x="1181.2" y="52.4"/>
      <point x="1183.6" y="45.0"/>
      <point x="1183.6" y="25.0" type="curve" smooth="yes"/>
      <point x="1183.6" y="8.599999999999998"/>
      <point x="1193.6000000000001" y="0.0"/>
      <point x="1214.4" y="0.0" type="curve" smooth="yes"/>
      <point x="1354.8000000000002" y="0.0" type="line" smooth="yes"/>
      <point x="1377.6000000000001" y="0.0"/>
      <point x="1387.0" y="9.399999999999999"/>
      <point x="1387.0" y="21.6" type="curve" smooth="yes"/>
      <point x="1387.0" y="31.4"/>
      <point x="1383.3999999999999" y="40.400000000000006"/>
      <point x="1367.8" y="60.80000000000001" type="curve" smooth="yes"/>
      <point x="1306.6000000000001" y="137.00000000000003" type="line" smooth="yes"/>
      <point x="1290.6000000000001" y="157.2"/>
      <point x="1284.4" y="174.79999999999998"/>
      <point x="1284.4" y="208.79999999999995" type="curve" smooth="yes"/>
      <point x="1284.4" y="1248.8" type="line" smooth="yes"/>
      <point x="1284.4" y="1296.4"/>
      <point x="1297.6000000000001" y="1310.8"/>
      <point x="1360.0" y="1327.3999999999999" type="curve" smooth="yes"/>
      <point x="1430.8" y="1344.6" type="line" smooth="yes"/>
      <point x="1456.0" y="1352.3999999999999"/>
      <point x="1463.2" y="1360.0"/>
      <point x="1463.2" y="1373.5999999999997" type="curve" smooth="yes"/>
      <point x="1463.2" y="1389.9999999999998"/>
      <point x="1449.8000000000002" y="1400.0"/>
      <point x="1422.8" y="1400.0" type="curve" smooth="yes"/>
      <point x="1071.8" y="1400.0" type="line" smooth="yes"/>
      <point x="1045.0" y="1400.0"/>
      <point x="1031.6" y="1389.9999999999998"/>
      <point x="1031.6" y="1373.5999999999997" type="curve" smooth="yes"/>
      <point x="1031.6" y="1360.2"/>
      <point x="1038.8" y="1352.6000000000001"/>
      <point x="1064.0" y="1344.6" type="curve" smooth="yes"/>
      <point x="1134.6" y="1327.3999999999999" type="line" smooth="yes"/>
      <point x="1198.2" y="1310.0"/>
      <point x="1210.2" y="1295.6000000000001"/>
      <point x="1210.2" y="1248.8" type="curve" smooth="yes"/>
      <point x="1210.2" y="161.19999999999996" type="line"/>
      <point x="1246.1999999999998" y="220.59999999999994" type="line"/>
      <point x="336.8" y="1364.0" type="line" smooth="yes"/>
      <point x="314.6" y="1392.1999999999998"/>
      <point x="297.59999999999997" y="1400.0"/>
      <point x="270.2" y="1400.0" type="curve" smooth="yes"/>
      <point x="153.20000000000002" y="1400.0" type="line" smooth="yes"/>
      <point x="136.8" y="1400.0"/>
      <point x="125.99999999999999" y="1393.6000000000001"/>
      <point x="125.99999999999999" y="1381.3999999999999" type="curve" smooth="yes"/>
      <point x="125.99999999999999" y="1373.2"/>
      <point x="129.40000000000003" y="1366.1999999999998"/>
      <point x="144.2" y="1348.3999999999999" type="curve" smooth="yes"/>
      <point x="235.6" y="1242.1999999999998" type="line" smooth="yes"/>
      <point x="279.2" y="1191.3999999999999"/>
      <point x="286.0" y="1172.0000000000002"/>
      <point x="286.0" y="1136.4" type="curve" smooth="yes"/>
      <point x="286.0" y="151.20000000000002" type="line" smooth="yes"/>
      <point x="286.0" y="103.79999999999998"/>
      <point x="272.79999999999995" y="89.40000000000002"/>
      <point x="210.39999999999998" y="72.60000000000002" type="curve" smooth="yes"/>
      <point x="139.6" y="55.39999999999998" type="line" smooth="yes"/>
      <point x="114.39999999999998" y="47.8"/>
      <point x="107.2" y="40.199999999999996"/>
      <point x="107.2" y="26.4" type="curve" smooth="yes"/>
      <point x="107.2" y="10.200000000000001"/>
      <point x="120.60000000000001" y="0.19999999999999996"/>
      <point x="147.6" y="0.0" type="curve" smooth="yes"/>
      <point x="498.59999999999997" y="0.0" type="line" smooth="yes"/>
      <point x="525.4000000000001" y="0.19999999999999996"/>
      <point x="538.8" y="10.200000000000001"/>
    </contour>
  </outline>
</glyph>
<glyph name="O" format="2">
  <advance width="1585.8"/>
  <unicode hex="004F"/>
  <outline>
    <contour>
      <point x="789.4" y="1431.2" type="curve" smooth="yes"/>
      <point x="381.75367639025455" y="1431.2"/>
      <point x="100.19999999999999" y="1133.2"/>
      <point x="100.19999999999999" y="706.6" type="curve" smooth="yes"/>
      <point x="100.19999999999999" y="277.40000000000003"/>
      <point x="385.46103703703704" y="-35.2"/>
      <point x="789.1999999999999" y="-35.2" type="curve" smooth="yes"/>
      <point x="1201.0685212298683" y="-35.2"/>
      <point x="1484.0" y="262.80000000000007"/>
      <point x="1484.0" y="690.2" type="curve" smooth="yes"/>
      <point x="1484.0" y="1118.6"/>
      <point x="1199.7474126959492" y="1431.2"/>
    </contour>
    <contour>
      <point x="1323.0" y="609.8" type="curve" smooth="yes"/>
      <point x="1323.0" y="253.94405144694542"/>
      <point x="1122.4" y="33.79999999999998"/>
      <point x="832.6" y="33.79999999999998" type="curve" smooth="yes"/>
      <point x="504.40000000000003" y="33.79999999999998"/>
      <point x="263.59999999999997" y="347.5030508474576"/>
      <point x="263.59999999999997" y="786.1999999999999" type="curve" smooth="yes"/>
      <point x="263.59999999999997" y="1139.655948553055"/>
      <point x="461.99999999999994" y="1359.0000000000002"/>
      <point x="750.0" y="1359.0000000000002" type="curve" smooth="yes"/>
      <point x="1079.8" y="1359.0000000000002"/>
      <point x="1323.0" y="1046.1051311288481"/>
    </contour>
  </outline>
</glyph>
<glyph name="P" format="2">
  <advance width="1265.2"/>
  <unicode hex="0050"/>
  <outline>
    <contour>
      <point x="1203.1999999999998" y="906.1999999999999" type="curve" smooth="yes"/>
      <point x="1203.1999999999998" y="1191.433644859813"/>
      <point x="966.3999999999999" y="1400.0"/>
      <point x="572.0" y="1400.0" type="curve" smooth="yes"/>
      <point x="159.00000000000003" y="1400.0" type="line" smooth="yes"/>
      <point x="132.79999999999998" y="1400.0"/>
      <point x="121.8" y="1390.0000000000002"/>
      <point x="121.8" y="1373.6" type="curve" smooth="yes"/>
      <point x="121.8" y="1358.6"/>
      <point x="131.20000000000002" y="1348.8"/>
      <point x="155.39999999999998" y="1343.5999999999997" type="curve" smooth="yes"/>
      <point x="230.20000000000002" y="1332.0" type="line" smooth="yes"/>
      <point x="261.8" y="1326.2000000000003"/>
      <point x="279.6" y="1308.6"/>
      <point x="279.6" y="1282.0" type="curve" smooth="yes"/>
      <point x="279.6" y="117.99999999999997" type="line" smooth="yes"/>
      <point x="279.6" y="91.39999999999999"/>
      <point x="261.8" y="73.8"/>
      <point x="230.20000000000002" y="68.0" type="curve" smooth="yes"/>
      <point x="155.4" y="56.400000000000006" type="line" smooth="yes"/>
      <point x="131.20000000000002" y="51.19999999999999"/>
      <point x="121.8" y="41.39999999999999"/>
      <point x="121.8" y="26.4" type="curve" smooth="yes"/>
      <point x="121.8" y="9.999999999999995"/>
      <point x="132.8" y="0.0"/>
      <point x="159.00000000000003" y="0.0" type="curve" smooth="yes"/>
      <point x="599.0000000000001" y="0.0" type="line" smooth="yes"/>
      <point x="625.2" y="0.0"/>
      <point x="636.1999999999999" y="9.999999999999995"/>
      <point x="636.1999999999999" y="26.4" type="curve" smooth="yes"/>
      <point x="636.1999999999999" y="43.2"/>
      <point x="626.1999999999999" y="53.19999999999999"/>
      <point x="601.0" y="56.60000000000001" type="curve" smooth="yes"/>
      <point x="485.8" y="68.0" type="line" smooth="yes"/>
      <point x="453.6" y="72.0"/>
      <point x="436.4" y="91.20000000000002"/>
      <point x="436.4" y="117.99999999999999" type="curve" smooth="yes"/>
      <point x="436.4" y="1338.8" type="line"/>
      <point x="569.1999999999999" y="1338.8" type="line" smooth="yes"/>
      <point x="863.8" y="1338.8"/>
      <point x="1041.6" y="1166.561154855643"/>
      <point x="1041.6" y="909.4000000000001" type="curve" smooth="yes"/>
      <point x="1041.6" y="689.6406565656567"/>
      <point x="893.4" y="553.8000000000001"/>
      <point x="672.6" y="553.8000000000001" type="curve" smooth="yes"/>
      <point x="562.6" y="553.8000000000001"/>
      <point x="443.0" y="581.4000000000001"/>
      <point x="373.40000000000003" y="626.0" type="curve"/>
      <point x="360.79999999999995" y="568.4000000000001" type="line"/>
      <point x="443.59999999999997" y="517.6"/>
      <point x="568.6" y="489.6"/>
      <point x="703.6" y="489.6" type="curve" smooth="yes"/>
      <point x="999.2" y="489.6"/>
      <point x="1203.1999999999998" y="652.4660539089125"/>
    </contour>
  </outline>
</glyph>
<glyph name="Q" format="2">
  <advance width="1585.8"/>
  <unicode hex="0051"/>
  <outline>
    <contour>
      <point x="789.0000000000001" y="1431.2" type="curve" smooth="yes"/>
      <point x="381.6" y="1431.2"/>
      <point x="99.80000000000001" y="1133.1999999999998"/>
      <point x="99.80000000000001" y="706.6" type="curve" smooth="yes"/>
      <point x="99.80000000000001" y="277.4"/>
      <point x="385.40000000000003" y="-35.2"/>
      <point x="788.8" y="-35.2" type="curve" smooth="yes"/>
      <point x="1200.9999999999998" y="-35.2"/>
      <point x="1483.6000000000001" y="262.80000000000007"/>
      <point x="1483.6000000000001" y="690.2" type="curve" smooth="yes"/>
      <point x="1483.6000000000001" y="1118.6"/>
      <point x="1199.6" y="1431.2"/>
    </contour>
    <contour>
      <point x="1323.0" y="609.8" type="curve" smooth="yes"/>
      <point x="1323.0" y="254.0"/>
      <point x="1122.4" y="33.8"/>
      <point x="832.6" y="33.8" type="curve" smooth="yes"/>
      <point x="504.40000000000003" y="33.8"/>
      <point x="263.59999999999997" y="347.6"/>
      <point x="263.59999999999997" y="786.2" type="curve" smooth="yes"/>
      <point x="263.59999999999997" y="1139.6000000000001"/>
      <point x="462.0" y="1359.0"/>
      <point x="749.9999999999999" y="1359.0" type="curve" smooth="yes"/>
      <point x="1079.8" y="1359.0"/>
      <point x="1323.0" y="1046.2"/>
    </contour>
    <contour>
      <point x="835.9999999999999" y="353.8" type="curve" smooth="yes"/>
      <point x="949.9803679086476" y="-84.72339978641969"/>
      <point x="1149.9873013781653" y="-252.8"/>
      <point x="1388.0" y="-252.8" type="curve" smooth="yes"/>
      <point x="1428.6000000000001" y="-252.8"/>
      <point x="1445.6000000000001" y="-243.40000000000003"/>
      <point x="1464.2" y="-211.40000000000003" type="curve" smooth="yes"/>
      <point x="1502.8000000000002" y="-144.2" type="line" smooth="yes"/>
      <point x="1511.8000000000002" y="-128.39999999999998"/>
      <point x="1516.4" y="-115.2"/>
      <point x="1516.3999999999999" y="-106.4" type="curve" smooth="yes"/>
      <point x="1516.3999999999999" y="-92.0"/>
      <point x="1504.9999999999998" y="-83.39999999999999"/>
      <point x="1491.8000000000002" y="-91.39999999999999" type="curve" smooth="yes"/>
      <point x="1460.6000000000001" y="-112.19999999999999"/>
      <point x="1444.4" y="-127.80000000000001"/>
      <point x="1369.8" y="-127.80000000000001" type="curve" smooth="yes"/>
      <point x="1157.0" y="-127.80000000000001"/>
      <point x="1016.782349612626" y="-7.144799278702777"/>
      <point x="900.4" y="367.0" type="curve" smooth="yes"/>
      <point x="892.5876178297211" y="393.4396229448921"/>
      <point x="880.4" y="405.4"/>
      <point x="860.8" y="402.40000000000003" type="curve" smooth="yes"/>
      <point x="839.7130434782608" y="399.59999999999997"/>
      <point x="829.2107170749091" y="380.754988285382"/>
    </contour>
  </outline>
</glyph>
<glyph name="R" format="2">
  <advance width="1354.2"/>
  <unicode hex="0052"/>
  <anchor x="674.2" y="1476.0" name="center"/>
  <outline>
    <contour>
      <point x="1208.8" y="929.0" type="curve" smooth="yes"/>
      <point x="1208.8" y="1200.2"/>
      <point x="980.4" y="1400.0"/>
      <point x="575.1999999999999" y="1400.0" type="curve" smooth="yes"/>
      <point x="157.4" y="1400.0" type="line" smooth="yes"/>
      <point x="131.2" y="1400.0"/>
      <point x="120.2" y="1390.0000000000002"/>
      <point x="120.2" y="1373.5999999999997" type="curve" smooth="yes"/>
      <point x="120.2" y="1358.6"/>
      <point x="129.6" y="1348.8"/>
      <point x="153.8" y="1343.6" type="curve" smooth="yes"/>
      <point x="228.6" y="1332.0" type="line" smooth="yes"/>
      <point x="260.20000000000005" y="1326.1999999999998"/>
      <point x="278.0" y="1308.6"/>
      <point x="278.0" y="1282.0" type="curve" smooth="yes"/>
      <point x="278.0" y="118.00000000000001" type="line" smooth="yes"/>
      <point x="278.0" y="91.39999999999998"/>
      <point x="260.20000000000005" y="73.80000000000001"/>
      <point x="228.6" y="68.0" type="curve" smooth="yes"/>
      <point x="153.8" y="56.400000000000006" type="line" smooth="yes"/>
      <point x="129.6" y="51.19999999999999"/>
      <point x="120.2" y="41.39999999999999"/>
      <point x="120.2" y="26.4" type="curve" smooth="yes"/>
      <point x="120.2" y="9.999999999999996"/>
      <point x="131.2" y="0.0"/>
      <point x="157.4" y="0.0" type="curve" smooth="yes"/>
      <point x="587.4" y="0.0" type="line" smooth="yes"/>
      <point x="613.6" y="0.0"/>
      <point x="624.6" y="10.0"/>
      <point x="624.6" y="26.4" type="curve" smooth="yes"/>
      <point x="624.6" y="41.39999999999999"/>
      <point x="616.0" y="50.8"/>
      <point x="591.0" y="56.39999999999998" type="curve" smooth="yes"/>
      <point x="482.19999999999993" y="67.99999999999996" type="line" smooth="yes"/>
      <point x="451.4" y="73.39999999999998"/>
      <point x="434.8" y="91.40000000000003"/>
      <point x="434.8" y="118.00000000000001" type="curve" smooth="yes"/>
      <point x="434.8" y="1340.3999999999999" type="line"/>
      <point x="571.4" y="1340.3999999999999" type="line" smooth="yes"/>
      <point x="864.6538461538461" y="1340.3999999999999"/>
      <point x="1042.0" y="1168.4"/>
      <point x="1042.0" y="931.0" type="curve" smooth="yes"/>
      <point x="1042.0" y="714.5618705035972"/>
      <point x="905.2" y="589.5999999999999"/>
      <point x="675.8" y="589.5999999999999" type="curve" smooth="yes"/>
      <point x="564.2" y="589.5999999999999"/>
      <point x="442.40000000000003" y="616.4000000000001"/>
      <point x="383.0" y="658.4" type="curve"/>
      <point x="372.40000000000003" y="601.0000000000001" type="line"/>
      <point x="443.79999999999995" y="552.8000000000001"/>
      <point x="570.8" y="525.5999999999999"/>
      <point x="697.8" y="525.5999999999999" type="curve" smooth="yes"/>
      <point x="757.1999999999999" y="525.5999999999999"/>
      <point x="804.6825861470713" y="535.2152937309392"/>
      <point x="859.8000000000001" y="544.8000000000001" type="curve" smooth="yes"/>
      <point x="1071.6197442125992" y="584.0192167018035"/>
      <point x="1208.8" y="728.6"/>
    </contour>
    <contour>
      <point x="741.6" y="553.4" type="line"/>
      <point x="1024.0" y="117.20000000000002" type="line" smooth="yes"/>
      <point x="1045.8" y="83.40000000000002"/>
      <point x="1041.9999999999998" y="64.60000000000002"/>
      <point x="1009.2000000000002" y="57.8" type="curve" smooth="yes"/>
      <point x="962.8000000000001" y="51.199999999999996" type="line" smooth="yes"/>
      <point x="942.6000000000001" y="46.6"/>
      <point x="932.1999999999999" y="38.59999999999999"/>
      <point x="932.1999999999999" y="26.4" type="curve" smooth="yes"/>
      <point x="932.1999999999999" y="9.599999999999998"/>
      <point x="945.8000000000001" y="0.0"/>
      <point x="971.0000000000001" y="0.0" type="curve" smooth="yes"/>
      <point x="1326.1999999999998" y="0.0" type="line" smooth="yes"/>
      <point x="1353.2000000000003" y="0.0"/>
      <point x="1366.6000000000001" y="10.0"/>
      <point x="1366.6000000000001" y="26.4" type="curve" smooth="yes"/>
      <point x="1366.6000000000001" y="41.400000000000006"/>
      <point x="1357.2" y="49.599999999999994"/>
      <point x="1305.8000000000002" y="59.19999999999999" type="curve" smooth="yes"/>
      <point x="1248.3999999999999" y="69.39999999999999"/>
      <point x="1220.6" y="91.0"/>
      <point x="1195.8" y="128.20000000000002" type="curve" smooth="yes"/>
      <point x="901.0" y="573.8" type="line"/>
    </contour>
  </outline>
</glyph>
<glyph name="S" format="2">
  <advance width="1142.6000000000001"/>
  <unicode hex="0053"/>
  <anchor x="555.8" y="1530.0" name="center"/>
  <outline>
    <contour>
      <point x="639.4000000000001" y="-32.4" type="curve" smooth="yes"/>
      <point x="890.0" y="-32.4"/>
      <point x="1025.0" y="126.0"/>
      <point x="1026.6" y="316.2" type="curve" smooth="yes"/>
      <point x="1027.4000000189876" y="503.2000033418077"/>
      <point x="925.8514673486849" y="627.9865861550484"/>
      <point x="613.8" y="745.1999999999999" type="curve" smooth="yes"/>
      <point x="328.8781163491672" y="853.5696821162323"/>
      <point x="253.2" y="961.115404699739"/>
      <point x="253.2" y="1099.2" type="curve" smooth="yes"/>
      <point x="253.2" y="1258.3999999999999"/>
      <point x="363.8" y="1364.0000000000002"/>
      <point x="532.0" y="1364.0000000000002" type="curve" smooth="yes"/>
      <point x="700.2" y="1364.0000000000002"/>
      <point x="848.1999999999999" y="1280.8000000000002"/>
      <point x="963.4" y="1043.2" type="curve" smooth="yes"/>
      <point x="974.2" y="1021.8"/>
      <point x="990.0" y="1014.0"/>
      <point x="1009.4000000000002" y="1020.2" type="curve" smooth="yes"/>
      <point x="1027.8" y="1026.4"/>
      <point x="1036.2" y="1045.8"/>
      <point x="1029.6000000000001" y="1067.6000000000001" type="curve" smooth="yes"/>
      <point x="930.2" y="1389.9999999999998" type="line" smooth="yes"/>
      <point x="922.0" y="1417.2000000000003"/>
      <point x="913.0" y="1426.4"/>
      <point x="895.8" y="1426.4" type="curve" smooth="yes"/>
      <point x="850.1999999999999" y="1426.4"/>
      <point x="877.0" y="1334.6000000000001"/>
      <point x="836.0" y="1334.6000000000001" type="curve" smooth="yes"/>
      <point x="795.0" y="1334.6000000000001"/>
      <point x="722.2" y="1426.8000000000002"/>
      <point x="525.4" y="1426.8" type="curve" smooth="yes"/>
      <point x="282.8" y="1426.8"/>
      <point x="114.0" y="1281.6000000000001"/>
      <point x="114.0" y="1054.0" type="curve" smooth="yes"/>
      <point x="114.0" y="854.9923990498813"/>
      <point x="226.11002771563423" y="720.1864946411081"/>
      <point x="520.4000000000001" y="613.8000000000001" type="curve" smooth="yes"/>
      <point x="824.6915760584945" y="505.69141013024097"/>
      <point x="892.4000002804086" y="404.0000196286058"/>
      <point x="890.8" y="272.79999999999995" type="curve" smooth="yes"/>
      <point x="889.1999999999999" y="131.4"/>
      <point x="796.4000000000001" y="31.200000000000003"/>
      <point x="634.2" y="31.200000000000003" type="curve" smooth="yes"/>
      <point x="468.2000000000001" y="31.200000000000003"/>
      <point x="300.2842231221818" y="118.814894236963"/>
      <point x="202.40000000000003" y="326.19999999999993" type="curve" smooth="yes"/>
      <point x="191.60000000000002" y="348.0"/>
      <point x="177.0" y="356.2"/>
      <point x="157.60000000000002" y="349.8" type="curve" smooth="yes"/>
      <point x="138.0" y="343.6"/>
      <point x="130.39999999999998" y="328.2"/>
      <point x="135.60000000000002" y="307.80000000000007" type="curve" smooth="yes"/>
      <point x="215.0" y="2.0" type="line" smooth="yes"/>
      <point x="220.0" y="-21.2"/>
      <point x="230.39999999999998" y="-31.200000000000003"/>
      <point x="245.79999999999995" y="-31.200000000000003" type="curve" smooth="yes"/>
      <point x="288.8" y="-31.200000000000003"/>
      <point x="273.2" y="64.4"/>
      <point x="313.0" y="64.4" type="curve" smooth="yes"/>
      <point x="341.9765765765766" y="64.4"/>
      <point x="450.0912912912914" y="-32.4"/>
    </contour>
  </outline>
</glyph>
<glyph name="T" format="2">
  <advance width="1308.0"/>
  <unicode hex="0054"/>
  <outline>
    <contour>
      <point x="290.2" y="1400.0" type="line" smooth="yes"/>
      <point x="231.0" y="1400.0"/>
      <point x="224.39999999999998" y="1443.8000000000002"/>
      <point x="187.60000000000002" y="1443.8000000000002" type="curve" smooth="yes"/>
      <point x="162.6" y="1443.8000000000002"/>
      <point x="148.40000000000003" y="1432.3999999999999"/>
      <point x="141.2" y="1404.0" type="curve" smooth="yes"/>
      <point x="71.6" y="1095.0" type="line" smooth="yes"/>
      <point x="66.40000000000002" y="1070.0"/>
      <point x="74.4" y="1054.2"/>
      <point x="94.0" y="1050.2" type="curve" smooth="yes"/>
      <point x="113.0" y="1045.9999999999998"/>
      <point x="129.0" y="1054.8"/>
      <point x="138.39999999999998" y="1077.6" type="curve" smooth="yes"/>
      <point x="226.79999999999998" y="1304.6000000000001"/>
      <point x="260.79999999999995" y="1337.0"/>
      <point x="382.19999999999993" y="1337.0" type="curve" smooth="yes"/>
      <point x="575.6" y="1337.0" type="line"/>
      <point x="575.6" y="117.99999999999999" type="line" smooth="yes"/>
      <point x="575.6" y="91.39999999999998"/>
      <point x="557.8" y="73.79999999999998"/>
      <point x="526.1999999999999" y="68.0" type="curve" smooth="yes"/>
      <point x="451.40000000000003" y="56.400000000000006" type="line" smooth="yes"/>
      <point x="427.2" y="51.2"/>
      <point x="417.8" y="41.39999999999999"/>
      <point x="417.8" y="26.4" type="curve" smooth="yes"/>
      <point x="417.8" y="9.999999999999996"/>
      <point x="428.79999999999995" y="0.0"/>
      <point x="455.0" y="0.0" type="curve" smooth="yes"/>
      <point x="853.0" y="0.0" type="line" smooth="yes"/>
      <point x="879.1999999999999" y="0.0"/>
      <point x="890.1999999999999" y="9.999999999999996"/>
      <point x="890.1999999999999" y="26.4" type="curve" smooth="yes"/>
      <point x="890.1999999999999" y="41.4"/>
      <point x="880.8" y="51.2"/>
      <point x="856.5999999999999" y="56.400000000000006" type="curve" smooth="yes"/>
      <point x="781.8000000000001" y="68.0" type="line" smooth="yes"/>
      <point x="750.1999999999999" y="73.8"/>
      <point x="732.3999999999999" y="91.39999999999998"/>
      <point x="732.3999999999999" y="117.99999999999999" type="curve" smooth="yes"/>
      <point x="732.3999999999999" y="1337.0" type="line"/>
      <point x="925.8000000000001" y="1337.0" type="line" smooth="yes"/>
      <point x="1047.2" y="1337.0"/>
      <point x="1081.2" y="1304.6"/>
      <point x="1169.6000000000001" y="1077.6" type="curve" smooth="yes"/>
      <point x="1179.0" y="1054.8"/>
      <point x="1195.0" y="1045.9999999999998"/>
      <point x="1214.0" y="1050.2" type="curve" smooth="yes"/>
      <point x="1233.6" y="1054.2"/>
      <point x="1241.6" y="1070.0"/>
      <point x="1236.4" y="1095.0" type="curve" smooth="yes"/>
      <point x="1166.8" y="1404.0" type="line" smooth="yes"/>
      <point x="1159.6000000000001" y="1432.3999999999999"/>
      <point x="1145.4000000000003" y="1443.8"/>
      <point x="1120.3999999999999" y="1443.8" type="curve" smooth="yes"/>
      <point x="1083.6" y="1443.8"/>
      <point x="1077.0" y="1400.0"/>
      <point x="1017.7999999999998" y="1400.0" type="curve" smooth="yes"/>
    </contour>
  </outline>
</glyph>
<glyph name="U" format="2">
  <advance width="1476.0"/>
  <unicode hex="0055"/>
  <anchor x="772.8" y="1460.0" name="center"/>
  <outline>
    <contour>
      <point x="1170.2" y="578.4000000000001" type="line" smooth="yes"/>
      <point x="1172.6000000000001" y="526.1999999999999"/>
      <point x="1175.8" y="468.59999999999997"/>
      <point x="1179.0" y="378.4" type="curve" smooth="yes"/>
      <point x="1187.8" y="167.20000000000002"/>
      <point x="1037.2" y="40.599999999999994"/>
      <point x="786.2" y="40.599999999999994" type="curve" smooth="yes"/>
      <point x="530.9999999999999" y="40.599999999999994"/>
      <point x="378.59999999999997" y="161.39999999999998"/>
      <point x="385.79999999999995" y="395.20000000000005" type="curve" smooth="yes"/>
      <point x="388.2" y="467.0"/>
      <point x="391.59999999999997" y="546.5999999999999"/>
      <point x="396.59999999999997" y="649.4" type="curve" smooth="yes"/>
      <point x="429.0" y="1273.2" type="line" smooth="yes"/>
      <point x="431.0" y="1311.4"/>
      <point x="450.8" y="1327.1999999999998"/>
      <point x="495.8" y="1334.4" type="curve" smooth="yes"/>
      <point x="556.8" y="1344.3999999999999" type="line" smooth="yes"/>
      <point x="587.6" y="1350.0"/>
      <point x="597.0" y="1359.4"/>
      <point x="597.0" y="1373.4" type="curve" smooth="yes"/>
      <point x="597.0" y="1389.6000000000001"/>
      <point x="583.2" y="1400.0"/>
      <point x="558.4" y="1400.0" type="curve" smooth="yes"/>
      <point x="140.00000000000003" y="1400.0" type="line" smooth="yes"/>
      <point x="114.39999999999999" y="1400.0"/>
      <point x="100.6" y="1389.6000000000001"/>
      <point x="100.6" y="1373.4" type="curve" smooth="yes"/>
      <point x="100.6" y="1358.6000000000001"/>
      <point x="111.2" y="1349.6000000000001"/>
      <point x="140.8" y="1344.2" type="curve" smooth="yes"/>
      <point x="201.4" y="1334.4" type="line" smooth="yes"/>
      <point x="248.6" y="1326.6"/>
      <point x="272.6" y="1308.8000000000002"/>
      <point x="270.40000000000003" y="1271.3999999999999" type="curve" smooth="yes"/>
      <point x="238.6" y="642.6" type="line" smooth="yes"/>
      <point x="234.2" y="555.6"/>
      <point x="226.6" y="436.8"/>
      <point x="225.0" y="377.2" type="curve" smooth="yes"/>
      <point x="216.99997331129532" y="129.59935947108784"/>
      <point x="405.5302681992337" y="-32.0"/>
      <point x="762.6000000000001" y="-32.0" type="curve" smooth="yes"/>
      <point x="1091.2" y="-32.0"/>
      <point x="1266.8" y="138.6"/>
      <point x="1255.6" y="380.59999999999997" type="curve" smooth="yes"/>
      <point x="1252.3999999999999" y="448.0"/>
      <point x="1249.3999999999999" y="509.19999999999993"/>
      <point x="1245.6" y="574.6" type="curve" smooth="yes"/>
      <point x="1211.2" y="1259.6" type="line" smooth="yes"/>
      <point x="1209.1999999999998" y="1299.0"/>
      <point x="1227.2" y="1325.8"/>
      <point x="1284.8" y="1335.4" type="curve" smooth="yes"/>
      <point x="1344.0" y="1343.6000000000001" type="line" smooth="yes"/>
      <point x="1375.3999999999999" y="1349.2000000000003"/>
      <point x="1384.1999999999998" y="1359.6000000000001"/>
      <point x="1384.1999999999998" y="1374.2" type="curve" smooth="yes"/>
      <point x="1384.1999999999998" y="1389.6000000000001"/>
      <point x="1370.3999999999999" y="1400.0"/>
      <point x="1345.6000000000001" y="1400.0" type="curve" smooth="yes"/>
      <point x="994.6" y="1400.0" type="line" smooth="yes"/>
      <point x="970.0" y="1400.0"/>
      <point x="956.1999999999999" y="1389.6000000000001"/>
      <point x="956.1999999999999" y="1374.2" type="curve" smooth="yes"/>
      <point x="956.1999999999999" y="1360.4"/>
      <point x="963.4" y="1350.2"/>
      <point x="996.1999999999999" y="1344.2" type="curve" smooth="yes"/>
      <point x="1059.6" y="1333.8" type="line" smooth="yes"/>
      <point x="1112.1999999999998" y="1324.4"/>
      <point x="1133.6" y="1303.2"/>
      <point x="1135.6000000000001" y="1262.6" type="curve" smooth="yes"/>
    </contour>
  </outline>
</glyph>
<glyph name="V" format="2">
  <advance width="1370.0"/>
  <unicode hex="0056"/>
  <outline>
    <contour>
      <point x="941.8" y="1373.5999999999997" type="curve" smooth="yes"/>
      <point x="941.8" y="1358.6"/>
      <point x="955.0" y="1350.8000000000002"/>
      <point x="977.6" y="1346.0" type="curve" smooth="yes"/>
      <point x="1065.6" y="1333.6000000000001" type="line" smooth="yes"/>
      <point x="1121.2" y="1322.1999999999998"/>
      <point x="1130.0" y="1297.9999999999998"/>
      <point x="1109.6" y="1238.8" type="curve" smooth="yes"/>
      <point x="693.1999999999999" y="55.800000000000004" type="line"/>
      <point x="757.0" y="84.6" type="line"/>
      <point x="334.99999999999994" y="1265.6" type="line" smooth="yes"/>
      <point x="318.0" y="1313.6"/>
      <point x="323.19999999999993" y="1326.8"/>
      <point x="357.4" y="1333.1999999999998" type="curve" smooth="yes"/>
      <point x="454.4" y="1345.8" type="line" smooth="yes"/>
      <point x="477.6" y="1350.6000000000001"/>
      <point x="490.4" y="1359.0"/>
      <point x="490.4" y="1373.5999999999997" type="curve" smooth="yes"/>
      <point x="490.4" y="1389.9999999999998"/>
      <point x="477.20000000000005" y="1400.0"/>
      <point x="450.80000000000007" y="1400.0" type="curve" smooth="yes"/>
      <point x="70.2" y="1400.0" type="line" smooth="yes"/>
      <point x="43.2" y="1400.0"/>
      <point x="29.799999999999997" y="1389.9999999999998"/>
      <point x="29.799999999999997" y="1373.5999999999997" type="curve" smooth="yes"/>
      <point x="29.799999999999997" y="1359.3999999999999"/>
      <point x="41.400000000000006" y="1351.3999999999999"/>
      <point x="64.0" y="1345.1999999999998" type="curve" smooth="yes"/>
      <point x="112.20000000000002" y="1333.6000000000001" type="line" smooth="yes"/>
      <point x="136.79999999999998" y="1325.9999999999998"/>
      <point x="150.2" y="1315.2000000000003"/>
      <point x="161.60000000000005" y="1282.8" type="curve" smooth="yes"/>
      <point x="570.6" y="141.79999999999998" type="line" smooth="yes"/>
      <point x="581.0" y="112.0"/>
      <point x="586.2" y="95.79999999999998"/>
      <point x="586.2" y="74.4" type="curve" smooth="yes"/>
      <point x="586.2" y="37.19999999999999" type="line" smooth="yes"/>
      <point x="586.2" y="13.2"/>
      <point x="598.0" y="0.0"/>
      <point x="622.4" y="0.0" type="curve" smooth="yes"/>
      <point x="748.4" y="0.0" type="line" smooth="yes"/>
      <point x="769.8" y="0.0"/>
      <point x="781.9999999999999" y="13.399999999999999"/>
      <point x="781.9999999999999" y="36.599999999999994" type="curve" smooth="yes"/>
      <point x="781.9999999999999" y="74.0" type="line" smooth="yes"/>
      <point x="781.9999999999999" y="96.0"/>
      <point x="787.4" y="114.8"/>
      <point x="797.4" y="143.4" type="curve" smooth="yes"/>
      <point x="1185.4" y="1236.4" type="line" smooth="yes"/>
      <point x="1206.8" y="1298.9999999999998"/>
      <point x="1225.1999999999998" y="1321.6"/>
      <point x="1259.2" y="1332.8" type="curve" smooth="yes"/>
      <point x="1305.0000000000002" y="1346.0" type="line" smooth="yes"/>
      <point x="1334.3999999999999" y="1354.9999999999998"/>
      <point x="1341.6000000000001" y="1362.6"/>
      <point x="1341.6000000000001" y="1375.1999999999998" type="curve" smooth="yes"/>
      <point x="1341.6000000000001" y="1390.8000000000002"/>
      <point x="1329.8" y="1400.0"/>
      <point x="1301.1999999999998" y="1400.0" type="curve" smooth="yes"/>
      <point x="981.2" y="1400.0" type="line" smooth="yes"/>
      <point x="955.0" y="1400.0"/>
      <point x="941.8" y="1389.9999999999998"/>
    </contour>
  </outline>
</glyph>
<glyph name="W" format="2">
  <advance width="2013.2000000000003"/>
  <unicode hex="0057"/>
  <anchor x="1032.6" y="1472.0" name="center"/>
  <outline>
    <contour>
      <point x="992.4" y="1150.6000000000001" type="line"/>
      <point x="633.8" y="58.999999999999986" type="line"/>
      <point x="693.4" y="105.99999999999999" type="line"/>
      <point x="328.99999999999994" y="1268.0" type="line" smooth="yes"/>
      <point x="314.40000000000003" y="1315.1999999999998"/>
      <point x="317.19999999999993" y="1329.6"/>
      <point x="350.4" y="1335.0" type="curve" smooth="yes"/>
      <point x="441.8" y="1346.8" type="line" smooth="yes"/>
      <point x="465.0" y="1350.3999999999999"/>
      <point x="475.40000000000003" y="1359.8"/>
      <point x="475.40000000000003" y="1373.8" type="curve" smooth="yes"/>
      <point x="475.40000000000003" y="1390.0"/>
      <point x="463.0" y="1400.0"/>
      <point x="436.0" y="1400.0" type="curve" smooth="yes"/>
      <point x="66.8" y="1400.0" type="line" smooth="yes"/>
      <point x="39.39999999999999" y="1400.0"/>
      <point x="26.799999999999997" y="1390.8"/>
      <point x="26.799999999999997" y="1375.3999999999999" type="curve" smooth="yes"/>
      <point x="26.799999999999997" y="1362.2"/>
      <point x="34.0" y="1352.9999999999998"/>
      <point x="61.39999999999999" y="1345.8" type="curve" smooth="yes"/>
      <point x="110.2" y="1333.9999999999998" type="line" smooth="yes"/>
      <point x="134.79999999999998" y="1327.0"/>
      <point x="149.20000000000005" y="1315.6"/>
      <point x="159.20000000000002" y="1284.3999999999996" type="curve" smooth="yes"/>
      <point x="521.8000000000001" y="137.2" type="line" smooth="yes"/>
      <point x="531.6" y="105.0"/>
      <point x="536.2" y="93.59999999999998"/>
      <point x="536.2" y="71.39999999999998" type="curve" smooth="yes"/>
      <point x="536.2" y="37.0" type="line" smooth="yes"/>
      <point x="536.2" y="13.200000000000001"/>
      <point x="549.0" y="0.0"/>
      <point x="573.1999999999999" y="0.0" type="curve" smooth="yes"/>
      <point x="685.8" y="0.0" type="line" smooth="yes"/>
      <point x="708.1999999999999" y="0.0"/>
      <point x="720.1999999999999" y="13.200000000000001"/>
      <point x="720.1999999999999" y="37.0" type="curve" smooth="yes"/>
      <point x="720.1999999999999" y="71.4" type="line" smooth="yes"/>
      <point x="720.1999999999999" y="95.60000000000001"/>
      <point x="725.4" y="113.79999999999998"/>
      <point x="733.8" y="137.39999999999998" type="curve" smooth="yes"/>
      <point x="1056.6" y="1119.0000000000002" type="line"/>
    </contour>
    <contour>
      <point x="1601.0" y="1373.5999999999997" type="curve" smooth="yes"/>
      <point x="1601.0" y="1360.6000000000001"/>
      <point x="1609.1999999999998" y="1351.8"/>
      <point x="1635.6000000000001" y="1346.8" type="curve" smooth="yes"/>
      <point x="1716.4" y="1335.0" type="line" smooth="yes"/>
      <point x="1776.0" y="1323.7999999999997"/>
      <point x="1782.2" y="1300.4"/>
      <point x="1764.2" y="1240.8" type="curve" smooth="yes"/>
      <point x="1405.2" y="72.60000000000001" type="line"/>
      <point x="1452.6000000000001" y="110.19999999999996" type="line"/>
      <point x="1101.0000000000002" y="1267.8000000000002" type="line" smooth="yes"/>
      <point x="1086.0" y="1317.8"/>
      <point x="1091.0" y="1329.0"/>
      <point x="1122.2000000000003" y="1334.3999999999999" type="curve" smooth="yes"/>
      <point x="1211.8" y="1346.0000000000002" type="line" smooth="yes"/>
      <point x="1237.1999999999998" y="1351.0"/>
      <point x="1247.4" y="1359.1999999999998"/>
      <point x="1247.4" y="1373.6" type="curve" smooth="yes"/>
      <point x="1247.4" y="1390.0"/>
      <point x="1234.1999999999998" y="1400.0"/>
      <point x="1208.0" y="1400.0" type="curve" smooth="yes"/>
      <point x="845.2" y="1400.0" type="line" smooth="yes"/>
      <point x="819.4" y="1400.0"/>
      <point x="805.8000000000001" y="1390.0"/>
      <point x="805.8000000000001" y="1373.6" type="curve" smooth="yes"/>
      <point x="805.8000000000001" y="1361.4"/>
      <point x="813.8" y="1353.6"/>
      <point x="840.0" y="1347.0000000000002" type="curve" smooth="yes"/>
      <point x="888.6" y="1335.2" type="line" smooth="yes"/>
      <point x="913.0" y="1329.2"/>
      <point x="923.5999999999999" y="1319.8"/>
      <point x="934.6" y="1284.3999999999999" type="curve" smooth="yes"/>
      <point x="1282.3999999999999" y="142.00000000000003" type="line" smooth="yes"/>
      <point x="1292.4" y="109.19999999999999"/>
      <point x="1290.6" y="92.8"/>
      <point x="1290.6" y="71.4" type="curve" smooth="yes"/>
      <point x="1290.6" y="37.0" type="line" smooth="yes"/>
      <point x="1290.6" y="13.2"/>
      <point x="1303.3999999999999" y="0.0"/>
      <point x="1326.6" y="0.0" type="curve" smooth="yes"/>
      <point x="1450.6000000000001" y="0.0" type="line" smooth="yes"/>
      <point x="1472.2" y="0.0"/>
      <point x="1484.1999999999998" y="13.2"/>
      <point x="1484.1999999999998" y="37.0" type="curve" smooth="yes"/>
      <point x="1484.1999999999998" y="71.39999999999999" type="line" smooth="yes"/>
      <point x="1484.1999999999998" y="93.60000000000001"/>
      <point x="1489.8" y="109.6"/>
      <point x="1497.8000000000002" y="137.4" type="curve" smooth="yes"/>
      <point x="1838.6" y="1237.6" type="line" smooth="yes"/>
      <point x="1856.9999999999998" y="1298.6"/>
      <point x="1877.6000000000001" y="1321.1999999999998"/>
      <point x="1911.0" y="1332.8" type="curve" smooth="yes"/>
      <point x="1956.6" y="1346.0" type="line" smooth="yes"/>
      <point x="1985.2" y="1355.3999999999999"/>
      <point x="1991.5999999999997" y="1361.8"/>
      <point x="1991.5999999999997" y="1374.3999999999999" type="curve" smooth="yes"/>
      <point x="1991.5999999999997" y="1389.2"/>
      <point x="1980.6" y="1400.0"/>
      <point x="1952.2" y="1400.0" type="curve" smooth="yes"/>
      <point x="1640.4" y="1400.0" type="line" smooth="yes"/>
      <point x="1614.4" y="1400.0"/>
      <point x="1601.0" y="1389.9999999999998"/>
    </contour>
  </outline>
</glyph>
<glyph name="X" format="2">
  <advance width="1432.0000000000002"/>
  <unicode hex="0058"/>
  <outline>
    <contour>
      <point x="1215.4" y="159.20000000000005" type="curve" smooth="yes"/>
      <point x="413.99999999999994" y="1256.8000000000002" type="line" smooth="yes"/>
      <point x="382.79999999999995" y="1299.6"/>
      <point x="393.79999999999995" y="1324.6"/>
      <point x="465.0" y="1335.6000000000001" type="curve" smooth="yes"/>
      <point x="527.2" y="1345.3999999999999" type="line" smooth="yes"/>
      <point x="549.1999999999999" y="1349.8000000000002"/>
      <point x="560.8" y="1358.4"/>
      <point x="560.8" y="1373.6" type="curve" smooth="yes"/>
      <point x="560.8" y="1390.6"/>
      <point x="548.4000000000001" y="1400.0"/>
      <point x="522.0" y="1400.0" type="curve" smooth="yes"/>
      <point x="92.79999999999998" y="1400.0" type="line" smooth="yes"/>
      <point x="65.8" y="1400.0"/>
      <point x="52.4" y="1390.8"/>
      <point x="52.4" y="1373.5999999999997" type="curve" smooth="yes"/>
      <point x="52.4" y="1360.1999999999998"/>
      <point x="59.800000000000004" y="1352.3999999999999"/>
      <point x="100.60000000000001" y="1343.6000000000001" type="curve" smooth="yes"/>
      <point x="165.0" y="1331.0000000000002"/>
      <point x="187.4" y="1314.0"/>
      <point x="237.6" y="1244.8" type="curve" smooth="yes"/>
      <point x="1033.4" y="152.8" type="line" smooth="yes"/>
      <point x="1070.9999999999998" y="100.39999999999998"/>
      <point x="1061.2" y="74.8"/>
      <point x="966.4" y="60.19999999999999" type="curve" smooth="yes"/>
      <point x="908.8000000000001" y="50.39999999999999"/>
      <point x="898.0" y="40.599999999999994"/>
      <point x="898.0" y="24.80000000000001" type="curve" smooth="yes"/>
      <point x="898.0" y="8.4"/>
      <point x="911.4000000000001" y="0.0"/>
      <point x="937.5999999999999" y="0.0" type="curve" smooth="yes"/>
      <point x="1369.0" y="0.0" type="line" smooth="yes"/>
      <point x="1395.2" y="0.0"/>
      <point x="1408.6" y="9.2"/>
      <point x="1408.6" y="26.4" type="curve" smooth="yes"/>
      <point x="1408.6" y="42.0"/>
      <point x="1394.0" y="50.000000000000014"/>
      <point x="1368.4" y="56.400000000000006" type="curve" smooth="yes"/>
      <point x="1288.2" y="72.20000000000002"/>
      <point x="1270.0" y="85.00000000000001"/>
    </contour>
    <contour>
      <point x="760.0000000000001" y="704.4" type="line"/>
      <point x="1141.8" y="1211.9999999999998" type="line" smooth="yes"/>
      <point x="1203.6000000000001" y="1294.4"/>
      <point x="1239.2" y="1324.9999999999998"/>
      <point x="1303.2" y="1338.1999999999998" type="curve" smooth="yes"/>
      <point x="1344.3999999999999" y="1348.0"/>
      <point x="1355.4" y="1359.0"/>
      <point x="1355.4" y="1373.2" type="curve" smooth="yes"/>
      <point x="1355.4" y="1390.4"/>
      <point x="1342.0" y="1400.0"/>
      <point x="1315.8" y="1400.0" type="curve" smooth="yes"/>
      <point x="964.6" y="1400.0" type="line" smooth="yes"/>
      <point x="937.3999999999999" y="1400.0"/>
      <point x="924.4" y="1390.0"/>
      <point x="924.4" y="1373.6" type="curve" smooth="yes"/>
      <point x="924.4" y="1357.8"/>
      <point x="937.8" y="1349.0"/>
      <point x="960.0000000000001" y="1344.0" type="curve" smooth="yes"/>
      <point x="1028.1999999999998" y="1332.4" type="line" smooth="yes"/>
      <point x="1103.1999999999998" y="1318.8"/>
      <point x="1109.1999999999998" y="1290.8"/>
      <point x="1059.6" y="1224.0" type="curve" smooth="yes"/>
      <point x="698.9999999999999" y="739.6" type="line"/>
    </contour>
    <contour>
      <point x="654.8" y="722.8000000000001" type="line"/>
      <point x="252.80000000000004" y="188.59999999999997" type="line" smooth="yes"/>
      <point x="194.39999999999998" y="110.79999999999998"/>
      <point x="156.00000000000003" y="77.39999999999999"/>
      <point x="84.4" y="60.40000000000002" type="curve" smooth="yes"/>
      <point x="43.599999999999994" y="50.79999999999999"/>
      <point x="34.99999999999999" y="40.60000000000001"/>
      <point x="34.99999999999999" y="27.20000000000001" type="curve" smooth="yes"/>
      <point x="34.99999999999999" y="10.0"/>
      <point x="48.400000000000006" y="0.0"/>
      <point x="74.39999999999999" y="0.0" type="curve" smooth="yes"/>
      <point x="425.8" y="0.0" type="line" smooth="yes"/>
      <point x="452.79999999999995" y="0.0"/>
      <point x="466.0" y="10.200000000000001"/>
      <point x="466.0" y="26.400000000000006" type="curve" smooth="yes"/>
      <point x="466.0" y="41.800000000000004"/>
      <point x="453.4" y="49.4"/>
      <point x="430.6" y="54.8" type="curve" smooth="yes"/>
      <point x="363.79999999999995" y="65.79999999999998" type="line" smooth="yes"/>
      <point x="289.79999999999995" y="79.2"/>
      <point x="282.40000000000003" y="106.19999999999999"/>
      <point x="333.2" y="174.2" type="curve" smooth="yes"/>
      <point x="715.5999999999999" y="685.6" type="line"/>
    </contour>
  </outline>
</glyph>
<glyph name="Y" format="2">
  <advance width="1349.2"/>
  <unicode hex="0059"/>
  <anchor x="725.6" y="1428.0" name="center"/>
  <outline>
    <contour>
      <point x="750.0" y="459.8" type="line"/>
      <point x="1160.6000000000001" y="1231.6" type="line" smooth="yes"/>
      <point x="1201.6000000000001" y="1309.4"/>
      <point x="1222.4" y="1327.8000000000002"/>
      <point x="1265.2" y="1339.2" type="curve" smooth="yes"/>
      <point x="1279.6" y="1343.3999999999999" type="line" smooth="yes"/>
      <point x="1312.3999999999999" y="1352.2"/>
      <point x="1319.0000000000002" y="1360.0"/>
      <point x="1319.0000000000002" y="1373.6" type="curve" smooth="yes"/>
      <point x="1319.0000000000002" y="1390.0"/>
      <point x="1304.8" y="1400.0"/>
      <point x="1278.0" y="1400.0" type="curve" smooth="yes"/>
      <point x="961.4000000000001" y="1400.0" type="line" smooth="yes"/>
      <point x="935.1999999999999" y="1400.0"/>
      <point x="921.8000000000001" y="1390.8"/>
      <point x="921.8000000000001" y="1373.6" type="curve" smooth="yes"/>
      <point x="921.8000000000001" y="1357.8"/>
      <point x="934.1999999999999" y="1348.4"/>
      <point x="955.8" y="1344.6" type="curve" smooth="yes"/>
      <point x="1035.6000000000001" y="1333.6000000000001" type="line" smooth="yes"/>
      <point x="1098.8" y="1322.6000000000001"/>
      <point x="1109.8" y="1290.6"/>
      <point x="1080.1999999999998" y="1234.4" type="curve" smooth="yes"/>
      <point x="686.1999999999999" y="488.4" type="line"/>
      <point x="744.8000000000001" y="526.8" type="line"/>
      <point x="355.40000000000003" y="1270.2" type="line" smooth="yes"/>
      <point x="336.8" y="1307.6000000000001"/>
      <point x="347.4" y="1323.8"/>
      <point x="403.8" y="1333.2" type="curve" smooth="yes"/>
      <point x="472.20000000000005" y="1343.0000000000002" type="line" smooth="yes"/>
      <point x="505.8" y="1348.6000000000001"/>
      <point x="519.4" y="1357.6"/>
      <point x="519.4" y="1373.5999999999997" type="curve" smooth="yes"/>
      <point x="519.4" y="1390.8"/>
      <point x="502.0" y="1400.0"/>
      <point x="474.2" y="1400.0" type="curve" smooth="yes"/>
      <point x="83.2" y="1400.0" type="line" smooth="yes"/>
      <point x="56.20000000000001" y="1400.0"/>
      <point x="42.800000000000004" y="1390.8"/>
      <point x="42.800000000000004" y="1373.5999999999997" type="curve" smooth="yes"/>
      <point x="42.800000000000004" y="1360.4"/>
      <point x="50.6" y="1351.1999999999998"/>
      <point x="82.0" y="1343.8" type="curve" smooth="yes"/>
      <point x="116.2" y="1335.8" type="line" smooth="yes"/>
      <point x="145.39999999999998" y="1328.4"/>
      <point x="159.4" y="1317.6000000000001"/>
      <point x="177.60000000000002" y="1282.6" type="curve" smooth="yes"/>
      <point x="636.4" y="424.8" type="line"/>
    </contour>
    <contour>
      <point x="608.6" y="504.6000000000001" type="line"/>
      <point x="608.6" y="118.00000000000001" type="line" smooth="yes"/>
      <point x="608.6" y="91.4"/>
      <point x="590.8" y="73.80000000000001"/>
      <point x="559.2" y="68.0" type="curve" smooth="yes"/>
      <point x="484.4" y="56.400000000000006" type="line" smooth="yes"/>
      <point x="460.2" y="51.19999999999999"/>
      <point x="450.79999999999995" y="41.39999999999999"/>
      <point x="450.79999999999995" y="26.4" type="curve" smooth="yes"/>
      <point x="450.79999999999995" y="9.999999999999996"/>
      <point x="461.8" y="0.0"/>
      <point x="488.0" y="0.0" type="curve" smooth="yes"/>
      <point x="885.9999999999999" y="0.0" type="line" smooth="yes"/>
      <point x="912.1999999999999" y="0.0"/>
      <point x="923.2000000000002" y="9.999999999999995"/>
      <point x="923.2000000000002" y="26.400000000000006" type="curve" smooth="yes"/>
      <point x="923.2000000000002" y="41.39999999999999"/>
      <point x="913.8" y="51.19999999999999"/>
      <point x="889.6" y="56.400000000000006" type="curve" smooth="yes"/>
      <point x="814.8000000000001" y="68.0" type="line" smooth="yes"/>
      <point x="783.2" y="73.79999999999998"/>
      <point x="765.4" y="91.4"/>
      <point x="765.4" y="117.99999999999997" type="curve" smooth="yes"/>
      <point x="765.4" y="504.6000000000001" type="line"/>
    </contour>
  </outline>
</glyph>
<glyph name="Z" format="2">
  <advance width="1260.8"/>
  <unicode hex="005A"/>
  <anchor x="687.6" y="1480.8" name="center"/>
  <outline>
    <contour>
      <point x="1108.6000000000001" y="1307.4" type="line" smooth="yes"/>
      <point x="1123.8000000000002" y="1330.6"/>
      <point x="1131.2" y="1349.6000000000001"/>
      <point x="1131.2" y="1363.8" type="curve" smooth="yes"/>
      <point x="1131.2" y="1383.4"/>
      <point x="1116.2" y="1400.0"/>
      <point x="1084.0" y="1400.0" type="curve" smooth="yes"/>
      <point x="360.6" y="1400.0" type="line" smooth="yes"/>
      <point x="310.40000000000003" y="1400.0"/>
      <point x="296.2" y="1451.0"/>
      <point x="262.0" y="1451.0" type="curve" smooth="yes"/>
      <point x="239.4" y="1451.0"/>
      <point x="223.4" y="1436.0"/>
      <point x="215.6" y="1401.6" type="curve" smooth="yes"/>
      <point x="151.60000000000002" y="1116.6000000000001" type="line" smooth="yes"/>
      <point x="145.00000000000003" y="1086.6"/>
      <point x="156.0" y="1068.8"/>
      <point x="176.39999999999998" y="1065.0" type="curve" smooth="yes"/>
      <point x="196.4" y="1060.8"/>
      <point x="213.39999999999998" y="1070.4"/>
      <point x="223.8" y="1097.1999999999998" type="curve" smooth="yes"/>
      <point x="253.8" y="1183.6000000000001" type="line" smooth="yes"/>
      <point x="295.5999999999999" y="1299.0"/>
      <point x="360.80000000000007" y="1337.8000000000002"/>
      <point x="451.8" y="1337.8000000000002" type="curve" smooth="yes"/>
      <point x="992.8" y="1337.8000000000002" type="line"/>
      <point x="969.8" y="1369.4" type="line"/>
      <point x="113.2" y="87.2" type="line" smooth="yes"/>
      <point x="98.8" y="65.79999999999998"/>
      <point x="92.60000000000001" y="49.400000000000006"/>
      <point x="92.60000000000001" y="33.4" type="curve" smooth="yes"/>
      <point x="92.60000000000001" y="13.0"/>
      <point x="105.39999999999999" y="0.0"/>
      <point x="139.39999999999998" y="0.0" type="curve" smooth="yes"/>
      <point x="954.2" y="0.0" type="line" smooth="yes"/>
      <point x="1009.1999999999999" y="0.0"/>
      <point x="1017.5999999999998" y="-38.2"/>
      <point x="1051.2" y="-38.2" type="curve" smooth="yes"/>
      <point x="1075.4" y="-38.2"/>
      <point x="1088.0000000000002" y="-22.200000000000006"/>
      <point x="1094.3999999999999" y="6.3999999999999915" type="curve" smooth="yes"/>
      <point x="1168.4" y="344.40000000000003" type="line" smooth="yes"/>
      <point x="1173.0" y="367.0"/>
      <point x="1166.8" y="382.0"/>
      <point x="1146.4" y="385.6" type="curve" smooth="yes"/>
      <point x="1127.3999999999999" y="389.00000000000006"/>
      <point x="1114.3999999999999" y="381.6"/>
      <point x="1106.6000000000001" y="362.0" type="curve" smooth="yes"/>
      <point x="1074.4" y="274.2" type="line" smooth="yes"/>
      <point x="1008.1999999999999" y="94.80000000000003"/>
      <point x="958.5999999999999" y="62.199999999999974"/>
      <point x="812.4000000000001" y="62.199999999999974" type="curve" smooth="yes"/>
      <point x="176.20000000000002" y="62.199999999999974" type="line"/>
      <point x="256.20000000000005" y="30.799999999999994" type="line"/>
    </contour>
  </outline>
</glyph>
<glyph name="bracketleft" format="2">
  <advance width="614.4"/>
  <unicode hex="005B"/>
  <outline>
    <contour>
      <point x="301.4" y="1380.3999999999999" type="line" smooth="yes"/>
      <point x="301.4" y="1407.2"/>
      <point x="314.2" y="1419.2"/>
      <point x="341.8" y="1419.2" type="curve" smooth="yes"/>
      <point x="564.1999999999999" y="1419.2" type="line" smooth="yes"/>
      <point x="586.6" y="1419.2"/>
      <point x="600.1999999999999" y="1429.6"/>
      <point x="600.1999999999999" y="1450.0000000000002" type="curve" smooth="yes"/>
      <point x="600.1999999999999" y="1468.6000000000001"/>
      <point x="586.6000000000001" y="1479.8"/>
      <point x="564.1999999999999" y="1479.8" type="curve" smooth="yes"/>
      <point x="231.0" y="1479.8" type="line" smooth="yes"/>
      <point x="191.2" y="1479.8"/>
      <point x="174.0" y="1461.0"/>
      <point x="174.0" y="1421.2" type="curve" smooth="yes"/>
      <point x="174.0" y="-197.4" type="line" smooth="yes"/>
      <point x="174.0" y="-237.0"/>
      <point x="191.2" y="-255.99999999999997"/>
      <point x="231.0" y="-255.99999999999997" type="curve" smooth="yes"/>
      <point x="564.1999999999999" y="-255.99999999999997" type="line" smooth="yes"/>
      <point x="586.6000000000001" y="-255.99999999999997"/>
      <point x="600.1999999999999" y="-245.0"/>
      <point x="600.1999999999999" y="-226.4" type="curve" smooth="yes"/>
      <point x="600.1999999999999" y="-205.8"/>
      <point x="586.6" y="-195.59999999999997"/>
      <point x="564.1999999999999" y="-195.59999999999997" type="curve" smooth="yes"/>
      <point x="341.8" y="-195.59999999999997" type="line" smooth="yes"/>
      <point x="314.2" y="-195.59999999999997"/>
      <point x="301.4" y="-183.4"/>
      <point x="301.4" y="-156.60000000000002" type="curve" smooth="yes"/>
    </contour>
  </outline>
</glyph>
<glyph name="asciicircum" format="2">
  <advance width="976.8000000000001"/>
  <unicode hex="005E"/>
  <outline>
    <contour>
      <point x="523.8" y="1356.8" type="line"/>
      <point x="209.00000000000006" y="800.0" type="line" smooth="yes"/>
      <point x="189.20000000000002" y="769.8000000000001"/>
      <point x="168.39999999999998" y="765.6"/>
      <point x="149.20000000000002" y="775.0" type="curve" smooth="yes"/>
      <point x="131.40000000000003" y="783.8"/>
      <point x="127.0" y="803.4"/>
      <point x="141.4" y="830.3999999999999" type="curve" smooth="yes"/>
      <point x="414.6" y="1359.4" type="line" smooth="yes"/>
      <point x="442.79999999999995" y="1411.4"/>
      <point x="461.4" y="1422.6"/>
      <point x="489.00000000000006" y="1422.6" type="curve" smooth="yes"/>
      <point x="516.6" y="1422.6"/>
      <point x="535.1999999999999" y="1411.4"/>
      <point x="563.4" y="1359.4" type="curve" smooth="yes"/>
      <point x="835.4000000000001" y="829.7999999999998" type="line" smooth="yes"/>
      <point x="849.8000000000001" y="803.0"/>
      <point x="845.2000000000002" y="783.5999999999999"/>
      <point x="827.6" y="774.8000000000001" type="curve" smooth="yes"/>
      <point x="808.4000000000001" y="765.4"/>
      <point x="787.4" y="769.6"/>
      <point x="767.6" y="799.6" type="curve" smooth="yes"/>
      <point x="454.4" y="1356.8" type="line"/>
    </contour>
  </outline>
</glyph>
<glyph name="underscore" format="2">
  <advance width="930.2"/>
  <unicode hex="005F"/>
  <outline>
    <contour>
      <point x="-3.6000000000000005" y="-219.0" type="curve" smooth="yes"/>
      <point x="-3.6000000000000005" y="-246.00000000000003"/>
      <point x="7.199999999999999" y="-262.40000000000003"/>
      <point x="31.0" y="-262.40000000000003" type="curve" smooth="yes"/>
      <point x="899.1999999999999" y="-262.40000000000003" type="line" smooth="yes"/>
      <point x="923.6" y="-262.40000000000003"/>
      <point x="933.6" y="-246.00000000000003"/>
      <point x="933.6" y="-219.0" type="curve" smooth="yes"/>
      <point x="933.6" y="-192.2"/>
      <point x="923.6" y="-175.0"/>
      <point x="899.1999999999999" y="-175.0" type="curve" smooth="yes"/>
      <point x="31.0" y="-175.0" type="line" smooth="yes"/>
      <point x="7.199999999999999" y="-175.0"/>
      <point x="-3.6000000000000005" y="-192.2"/>
    </contour>
  </outline>
</glyph>
<glyph name="a" format="2">
  <advance width="1051.0"/>
  <unicode hex="0061"/>
  <anchor x="523.2" y="1037.6000000000001" name="center"/>
  <outline>
    <contour>
      <point x="711.6" y="119.39999999999999" type="line" smooth="yes"/>
      <point x="711.6" y="23.6"/>
      <point x="762.8" y="-21.6"/>
      <point x="854.0" y="-21.6" type="curve" smooth="yes"/>
      <point x="941.9999999999999" y="-21.6"/>
      <point x="989.4" y="37.0"/>
      <point x="989.4" y="84.99999999999999" type="curve" smooth="yes"/>
      <point x="989.4" y="99.6"/>
      <point x="983.4000000000001" y="108.19999999999999"/>
      <point x="972.5999999999999" y="108.19999999999999" type="curve" smooth="yes"/>
      <point x="962.6" y="108.19999999999999"/>
      <point x="956.8" y="100.99999999999999"/>
      <point x="951.0" y="92.8" type="curve" smooth="yes"/>
      <point x="940.5999999999999" y="77.6"/>
      <point x="931.0" y="56.99999999999999"/>
      <point x="894.4" y="56.99999999999999" type="curve" smooth="yes"/>
      <point x="864.2" y="56.99999999999999"/>
      <point x="845.0" y="76.0"/>
      <point x="845.0" y="125.0" type="curve" smooth="yes"/>
      <point x="845.0" y="687.0" type="line" smooth="yes"/>
      <point x="845.0" y="846.8000000000001"/>
      <point x="744.1999999999999" y="950.4"/>
      <point x="535.0" y="950.4" type="curve" smooth="yes"/>
      <point x="306.6" y="950.4"/>
      <point x="167.0" y="828.1999999999999"/>
      <point x="167.0" y="707.5999999999999" type="curve" smooth="yes"/>
      <point x="167.0" y="662.0"/>
      <point x="194.6" y="632.0000000000001"/>
      <point x="241.4" y="632.0000000000001" type="curve" smooth="yes"/>
      <point x="293.0" y="632.0000000000001"/>
      <point x="326.6" y="658.4"/>
      <point x="326.6" y="707.1999999999999" type="curve" smooth="yes"/>
      <point x="326.6" y="775.4" type="line" smooth="yes"/>
      <point x="326.6" y="843.4"/>
      <point x="384.5999999999999" y="902.2"/>
      <point x="507.6" y="902.2" type="curve" smooth="yes"/>
      <point x="633.8000000000001" y="902.2"/>
      <point x="705.2" y="829.0"/>
      <point x="705.2" y="691.8000000000001" type="curve" smooth="yes"/>
      <point x="705.2" y="146.6" type="line"/>
      <point x="711.6" y="138.39999999999998" type="line"/>
    </contour>
    <contour>
      <point x="119.0" y="206.60000000000002" type="curve" smooth="yes"/>
      <point x="119.0" y="64.30973451327434"/>
      <point x="234.2" y="-21.6"/>
      <point x="398.0" y="-21.6" type="curve" smooth="yes"/>
      <point x="537.5999999999999" y="-21.6"/>
      <point x="670.8450715746122" y="42.32492635735116"/>
      <point x="754.6" y="155.39999999999998" type="curve"/>
      <point x="734.6" y="192.20000000000002" type="line"/>
      <point x="660.8203565769988" y="100.0321667852399"/>
      <point x="557.4" y="50.399999999999984"/>
      <point x="451.19999999999993" y="50.399999999999984" type="curve" smooth="yes"/>
      <point x="345.4" y="50.399999999999984"/>
      <point x="268.40000000000003" y="113.86451612903225"/>
      <point x="268.40000000000003" y="227.79999999999995" type="curve" smooth="yes"/>
      <point x="268.40000000000003" y="346.4390243902438"/>
      <point x="360.45599999999996" y="420.99999999999994"/>
      <point x="515.2" y="420.99999999999994" type="curve" smooth="yes"/>
      <point x="596.1674418604651" y="420.99999999999994"/>
      <point x="664.9411178052184" y="400.1090720023059"/>
      <point x="728.8" y="375.0" type="curve"/>
      <point x="738.8000000000001" y="419.6" type="line"/>
      <point x="673.3236723499538" y="447.8109005215076"/>
      <point x="590.7926829268292" y="469.0"/>
      <point x="496.59999999999997" y="469.0" type="curve" smooth="yes"/>
      <point x="260.7937888198758" y="469.0"/>
      <point x="119.0" y="356.992"/>
    </contour>
  </outline>
</glyph>
<glyph name="b" format="2">
  <advance width="1151.2"/>
  <unicode hex="0062"/>
  <outline>
    <contour>
      <point x="320.8" y="1423.2000000000003" type="line" smooth="yes"/>
      <point x="320.8" y="1449.6"/>
      <point x="308.0" y="1463.6"/>
      <point x="281.5999999999999" y="1463.6" type="curve"/>
      <point x="266.4" y="1463.6"/>
      <point x="247.2" y="1459.1999999999998"/>
      <point x="212.8" y="1447.1999999999998" type="curve" smooth="yes"/>
      <point x="67.6" y="1398.0" type="line" smooth="yes"/>
      <point x="42.800000000000004" y="1389.4"/>
      <point x="35.199999999999996" y="1381.6000000000001"/>
      <point x="35.199999999999996" y="1368.8" type="curve" smooth="yes"/>
      <point x="35.199999999999996" y="1357.0"/>
      <point x="43.20000000000001" y="1349.6"/>
      <point x="64.8" y="1347.8" type="curve" smooth="yes"/>
      <point x="147.59999999999997" y="1346.4" type="line" smooth="yes"/>
      <point x="171.39999999999998" y="1345.0"/>
      <point x="180.0" y="1333.3999999999999"/>
      <point x="180.0" y="1307.2" type="curve" smooth="yes"/>
      <point x="180.0" y="12.799999999999997" type="line" smooth="yes"/>
      <point x="180.0" y="-10.4"/>
      <point x="191.6" y="-21.200000000000003"/>
      <point x="209.60000000000002" y="-21.200000000000003" type="curve" smooth="yes"/>
      <point x="225.39999999999998" y="-21.200000000000003"/>
      <point x="236.2" y="-14.399999999999999"/>
      <point x="260.3999999999999" y="2.0000000000000036" type="curve" smooth="yes"/>
      <point x="320.8" y="142.8" type="line"/>
    </contour>
    <contour>
      <point x="279.4" y="673.2" type="line"/>
      <point x="367.2" y="802.8000000000001"/>
      <point x="478.2" y="871.4000000000001"/>
      <point x="598.6000000000001" y="871.4000000000001" type="curve" smooth="yes"/>
      <point x="776.8" y="871.4000000000001"/>
      <point x="907.6" y="727.4"/>
      <point x="907.6" y="464.20000000000005" type="curve" smooth="yes"/>
      <point x="907.6" y="190.40000000000003"/>
      <point x="767.8000000000001" y="48.199999999999996"/>
      <point x="588.2" y="48.199999999999996" type="curve" smooth="yes"/>
      <point x="462.6" y="48.199999999999996"/>
      <point x="346.0" y="122.0"/>
      <point x="274.59999999999997" y="254.00000000000003" type="curve"/>
      <point x="244.0" y="210.4" type="line"/>
      <point x="316.79999999999995" y="63.999999999999986"/>
      <point x="449.2" y="-21.599999999999998"/>
      <point x="607.1999999999999" y="-21.599999999999998" type="curve" smooth="yes"/>
      <point x="856.0" y="-21.599999999999998"/>
      <point x="1058.4" y="169.2"/>
      <point x="1058.4" y="482.4" type="curve" smooth="yes"/>
      <point x="1058.4" y="754.8000000000001"/>
      <point x="886.0" y="950.8000000000001"/>
      <point x="649.6000000000001" y="950.8000000000001" type="curve" smooth="yes"/>
      <point x="496.80000000000007" y="950.8000000000001"/>
      <point x="357.54128904079766" y="867.2401844085576"/>
      <point x="258.8" y="722.0" type="curve"/>
    </contour>
  </outline>
</glyph>
<glyph name="c" format="2">
  <advance width="989.4"/>
  <unicode hex="0063"/>
  <anchor x="538.2" y="1074.8000000000002" name="center"/>
  <outline>
    <contour>
      <point x="914.6" y="705.8" type="curve" smooth="yes"/>
      <point x="914.6" y="834.6"/>
      <point x="780.6" y="950.8000000000001"/>
      <point x="564.2" y="950.8000000000001" type="curve" smooth="yes"/>
      <point x="281.2" y="950.8000000000001"/>
      <point x="94.8" y="730.6"/>
      <point x="94.8" y="451.8" type="curve" smooth="yes"/>
      <point x="94.8" y="165.00000000000003"/>
      <point x="275.6" y="-21.6"/>
      <point x="550.4" y="-21.6" type="curve" smooth="yes"/>
      <point x="752.8" y="-21.6"/>
      <point x="904.597118219898" y="103.77886694591795"/>
      <point x="921.4" y="262.8" type="curve" smooth="yes"/>
      <point x="922.2006718046449" y="277.8060462418045"/>
      <point x="916.4399999999999" y="291.8"/>
      <point x="900.8" y="291.79999999999995" type="curve" smooth="yes"/>
      <point x="887.8571428571429" y="291.79999999999995"/>
      <point x="879.6042737982505" y="285.02991658775346"/>
      <point x="870.2" y="266.99999999999994" type="curve" smooth="yes"/>
      <point x="839.805066019541" y="159.82870744406557"/>
      <point x="730.3478260869565" y="79.79999999999998"/>
      <point x="589.8000000000001" y="79.79999999999998" type="curve" smooth="yes"/>
      <point x="380.7999999999999" y="79.79999999999998"/>
      <point x="231.2" y="231.16006245324138"/>
      <point x="231.2" y="502.00000000000006" type="curve" smooth="yes"/>
      <point x="231.2" y="733.3107526881721"/>
      <point x="357.6000000000001" y="891.8"/>
      <point x="540.4" y="891.8" type="curve" smooth="yes"/>
      <point x="673.8000000000001" y="891.8"/>
      <point x="753.6" y="824.4588235294118"/>
      <point x="753.6" y="728.6" type="curve" smooth="yes"/>
      <point x="753.6" y="699.0" type="line" smooth="yes"/>
      <point x="753.6" y="649.6000000000001"/>
      <point x="783.5999999999999" y="618.2"/>
      <point x="832.3999999999999" y="618.2" type="curve" smooth="yes"/>
      <point x="881.1999999999999" y="618.2"/>
      <point x="914.6" y="655.8"/>
    </contour>
  </outline>
</glyph>
<glyph name="d" format="2">
  <advance width="1180.2"/>
  <unicode hex="0064"/>
  <outline>
    <contour>
      <point x="834.4" y="160.2" type="line"/>
      <point x="834.4" y="81.00000000000001" type="line" smooth="yes"/>
      <point x="834.4" y="23.199999999999996"/>
      <point x="860.0000000000001" y="0.0"/>
      <point x="912.4000000000001" y="0.0" type="curve" smooth="yes"/>
      <point x="1065.8000000000002" y="0.0" type="line" smooth="yes"/>
      <point x="1090.0000000000002" y="0.0"/>
      <point x="1102.6000000000001" y="9.2"/>
      <point x="1102.6000000000001" y="24.79999999999999" type="curve" smooth="yes"/>
      <point x="1102.6000000000001" y="39.79999999999998"/>
      <point x="1091.3999999999999" y="47.599999999999994"/>
      <point x="1069.2" y="52.79999999999999" type="curve" smooth="yes"/>
      <point x="1016.7999999999998" y="62.8" type="line" smooth="yes"/>
      <point x="988.0" y="68.59999999999998"/>
      <point x="972.2" y="84.79999999999998"/>
      <point x="972.2" y="116.4" type="curve" smooth="yes"/>
      <point x="972.2" y="1423.2000000000003" type="line" smooth="yes"/>
      <point x="972.2" y="1449.6"/>
      <point x="959.4" y="1463.6"/>
      <point x="933.8" y="1463.6" type="curve"/>
      <point x="917.8" y="1463.6"/>
      <point x="897.8000000000001" y="1458.8"/>
      <point x="864.1999999999999" y="1447.1999999999998" type="curve" smooth="yes"/>
      <point x="719.0" y="1398.0" type="line" smooth="yes"/>
      <point x="694.2" y="1389.4"/>
      <point x="686.6" y="1381.6000000000001"/>
      <point x="686.6" y="1368.8" type="curve" smooth="yes"/>
      <point x="686.6" y="1357.0"/>
      <point x="694.5999999999999" y="1349.6"/>
      <point x="716.2" y="1347.8" type="curve" smooth="yes"/>
      <point x="798.9999999999999" y="1346.4" type="line" smooth="yes"/>
      <point x="822.8000000000001" y="1345.0"/>
      <point x="831.4" y="1333.3999999999999"/>
      <point x="831.4" y="1307.2" type="curve" smooth="yes"/>
      <point x="831.4" y="169.20000000000002" type="line"/>
    </contour>
    <contour>
      <point x="93.8" y="446.8" type="curve" smooth="yes"/>
      <point x="93.8" y="174.4"/>
      <point x="266.20000000000005" y="-21.599999999999998"/>
      <point x="502.59999999999997" y="-21.599999999999998" type="curve" smooth="yes"/>
      <point x="655.4" y="-21.599999999999998"/>
      <point x="794.4228809002418" y="62.42430478591118"/>
      <point x="893.4000000000001" y="207.99999999999997" type="curve"/>
      <point x="872.8" y="256.0" type="line"/>
      <point x="784.9999999999999" y="126.40000000000002"/>
      <point x="674.0" y="57.80000000000001"/>
      <point x="553.5999999999999" y="57.80000000000001" type="curve" smooth="yes"/>
      <point x="375.40000000000003" y="57.80000000000001"/>
      <point x="244.59999999999997" y="201.8"/>
      <point x="244.59999999999997" y="465.0" type="curve" smooth="yes"/>
      <point x="244.59999999999997" y="738.8"/>
      <point x="384.4" y="881.0000000000001"/>
      <point x="564.0" y="881.0000000000001" type="curve" smooth="yes"/>
      <point x="689.6" y="881.0000000000001"/>
      <point x="806.2" y="807.2"/>
      <point x="877.5999999999999" y="675.2" type="curve"/>
      <point x="908.2" y="718.8" type="line"/>
      <point x="835.4" y="865.2"/>
      <point x="703.0" y="950.8000000000001"/>
      <point x="545.0000000000001" y="950.8000000000001" type="curve" smooth="yes"/>
      <point x="296.2" y="950.8000000000001"/>
      <point x="93.8" y="759.9999999999999"/>
    </contour>
  </outline>
</glyph>
<glyph name="e" format="2">
  <advance width="1022.4"/>
  <unicode hex="0065"/>
  <anchor x="542.8" y="1073.6" name="center"/>
  <outline>
    <contour>
      <point x="930.2" y="578.4" type="curve" smooth="yes"/>
      <point x="930.2" y="799.8153846153847"/>
      <point x="775.1272727272728" y="950.8000000000001"/>
      <point x="550.4" y="950.8000000000001" type="curve" smooth="yes"/>
      <point x="272.2821917808219" y="950.8000000000001"/>
      <point x="93.8" y="733.8000000000001"/>
      <point x="93.8" y="451.8" type="curve" smooth="yes"/>
      <point x="93.8" y="165.0"/>
      <point x="274.59999999999997" y="-21.599999999999998"/>
      <point x="549.6" y="-21.599999999999998" type="curve" smooth="yes"/>
      <point x="758.0774566473989" y="-21.599999999999998"/>
      <point x="915.8" y="104.6"/>
      <point x="931.8000000000001" y="264.4" type="curve" smooth="yes"/>
      <point x="932.6000000000001" y="281.0"/>
      <point x="926.68" y="295.0"/>
      <point x="910.4" y="294.99999999999994" type="curve" smooth="yes"/>
      <point x="898.1555555555557" y="294.99999999999994"/>
      <point x="890.0027088680215" y="288.2189620761501"/>
      <point x="880.5999999999999" y="270.2" type="curve" smooth="yes"/>
      <point x="850.004716404343" y="161.22717547264273"/>
      <point x="735.1565217391304" y="79.8"/>
      <point x="589.0" y="79.8" type="curve" smooth="yes"/>
      <point x="377.4" y="79.8"/>
      <point x="230.2" y="229.40000000000003"/>
      <point x="230.2" y="501.99999999999994" type="curve" smooth="yes"/>
      <point x="230.2" y="733.1999999999998"/>
      <point x="352.6691218130311" y="891.8"/>
      <point x="532.6000000000001" y="891.8" type="curve" smooth="yes"/>
      <point x="684.3352517985611" y="891.8"/>
      <point x="781.0" y="773.3878787878788"/>
      <point x="781.0" y="593.0" type="curve" smooth="yes"/>
      <point x="781.0" y="564.8"/>
      <point x="764.8" y="551.4"/>
      <point x="732.4" y="551.4" type="curve" smooth="yes"/>
      <point x="179.79999999999998" y="551.4" type="line"/>
      <point x="179.79999999999998" y="499.40000000000003" type="line"/>
      <point x="835.1999999999999" y="499.40000000000003" type="line" smooth="yes"/>
      <point x="897.2" y="499.40000000000003"/>
      <point x="930.2" y="526.2"/>
    </contour>
  </outline>
</glyph>
<glyph name="f" format="2">
  <advance width="678.8"/>
  <unicode hex="0066"/>
  <outline>
    <contour>
      <point x="402.8" y="116.60000000000001" type="curve" smooth="yes"/>
      <point x="402.8" y="863.8" type="line"/>
      <point x="579.8000000000001" y="863.8" type="line" smooth="yes"/>
      <point x="623.9999999999999" y="863.8"/>
      <point x="645.2" y="878.8000000000001"/>
      <point x="645.2" y="899.4" type="curve" smooth="yes"/>
      <point x="645.2" y="915.6"/>
      <point x="633.4" y="923.4000000000001"/>
      <point x="610.8" y="923.4000000000001" type="curve" smooth="yes"/>
      <point x="373.40000000000003" y="923.4000000000001" type="line"/>
      <point x="395.79999999999995" y="893.1999999999999" type="line"/>
      <point x="395.79999999999995" y="931.4" type="line" smooth="yes"/>
      <point x="395.79999999999995" y="1048.4"/>
      <point x="274.2" y="1107.2"/>
      <point x="274.2" y="1245.3999999999999" type="curve" smooth="yes"/>
      <point x="274.2" y="1347.6"/>
      <point x="323.8703296703296" y="1405.8"/>
      <point x="413.0" y="1406.6" type="curve" smooth="yes"/>
      <point x="486.1802469135802" y="1406.6"/>
      <point x="524.5999999999999" y="1365.6000000000001"/>
      <point x="524.5999999999999" y="1293.0" type="curve" smooth="yes"/>
      <point x="524.5999999999999" y="1256.6" type="line" smooth="yes"/>
      <point x="524.5999999999999" y="1203.6"/>
      <point x="554.1999999999999" y="1169.6"/>
      <point x="599.8" y="1169.6" type="curve" smooth="yes"/>
      <point x="645.2" y="1169.6"/>
      <point x="675.0000000000001" y="1202.1999999999998"/>
      <point x="675.0000000000001" y="1262.4" type="curve" smooth="yes"/>
      <point x="675.0000000000001" y="1365.6"/>
      <point x="585.2493506493507" y="1454.0"/>
      <point x="430.6" y="1454.0" type="curve" smooth="yes"/>
      <point x="271.054892601432" y="1454.0"/>
      <point x="168.8" y="1355.2000000000003"/>
      <point x="168.8" y="1211.8000000000002" type="curve" smooth="yes"/>
      <point x="168.8" y="1079.7999999999997"/>
      <point x="262.4" y="1020.1999999999999"/>
      <point x="262.4" y="921.4000000000001" type="curve" smooth="yes"/>
      <point x="262.4" y="885.7999999999998" type="line"/>
      <point x="299.59999999999997" y="923.4000000000001" type="line"/>
      <point x="137.0" y="923.4000000000001" type="line" smooth="yes"/>
      <point x="115.19999999999999" y="923.4000000000001"/>
      <point x="105.00000000000001" y="914.8"/>
      <point x="105.00000000000001" y="901.1999999999999" type="curve" smooth="yes"/>
      <point x="105.00000000000001" y="887.6"/>
      <point x="113.8" y="878.0"/>
      <point x="154.4" y="866.8" type="curve" smooth="yes"/>
      <point x="214.60000000000002" y="852.1999999999999" type="line" smooth="yes"/>
      <point x="251.2" y="842.1999999999999"/>
      <point x="262.0" y="825.1999999999999"/>
      <point x="262.0" y="797.0" type="curve" smooth="yes"/>
      <point x="262.0" y="115.39999999999998" type="line" smooth="yes"/>
      <point x="262.0" y="86.8"/>
      <point x="244.8" y="70.40000000000002"/>
      <point x="211.6" y="63.0" type="curve" smooth="yes"/>
      <point x="155.20000000000002" y="52.599999999999994" type="line" smooth="yes"/>
      <point x="132.20000000000002" y="47.79999999999998"/>
      <point x="121.0" y="39.8"/>
      <point x="121.0" y="24.4" type="curve" smooth="yes"/>
      <point x="121.0" y="9.2"/>
      <point x="133.79999999999998" y="0.0"/>
      <point x="155.4" y="0.0" type="curve" smooth="yes"/>
      <point x="551.8" y="0.0" type="line" smooth="yes"/>
      <point x="574.8000000000001" y="0.0"/>
      <point x="588.0" y="9.2"/>
      <point x="588.0" y="25.0" type="curve" smooth="yes"/>
      <point x="588.0" y="40.79999999999999"/>
      <point x="576.1999999999999" y="50.6"/>
      <point x="552.2" y="52.999999999999986" type="curve" smooth="yes"/>
      <point x="451.6" y="63.599999999999994" type="line" smooth="yes"/>
      <point x="419.59999999999997" y="66.79999999999998"/>
      <point x="402.8" y="86.19999999999999"/>
    </contour>
  </outline>
</glyph>
<glyph name="g" format="2">
  <advance width="1082.3999999999999"/>
  <unicode hex="0067"/>
  <anchor x="521.6" y="1041.6" name="center"/>
  <outline>
    <contour>
      <point x="653.4" y="37.79999999999998" type="curve" smooth="yes"/>
      <point x="923.2125388369915" y="-8.201295806862323"/>
      <point x="1007.7999999999998" y="-89.98652482269505"/>
      <point x="1007.7999999999998" y="-216.4" type="curve" smooth="yes"/>
      <point x="1007.7999999999998" y="-376.59999999999997"/>
      <point x="835.4000000000001" y="-490.0"/>
      <point x="528.1999999999999" y="-490.0" type="curve" smooth="yes"/>
      <point x="207.2" y="-490.0"/>
      <point x="73.4" y="-384.2"/>
      <point x="73.4" y="-248.79999999999998" type="curve" smooth="yes"/>
      <point x="73.4" y="-134.20000000000002"/>
      <point x="172.6" y="-28.39999999999999"/>
      <point x="454.20000000000005" y="7.600000000000008" type="curve"/>
      <point x="480.4" y="-21.799999999999997" type="line"/>
      <point x="287.8" y="-42.599999999999994"/>
      <point x="189.4" y="-127.2"/>
      <point x="189.4" y="-224.60000000000002" type="curve" smooth="yes"/>
      <point x="189.4" y="-345.59999999999997"/>
      <point x="288.6" y="-432.19999999999993"/>
      <point x="548.8" y="-432.19999999999993" type="curve" smooth="yes"/>
      <point x="770.6000000000001" y="-432.19999999999993"/>
      <point x="880.8" y="-361.2"/>
      <point x="880.8" y="-248.60000000000002" type="curve" smooth="yes"/>
      <point x="880.8" y="-168.44601769911503"/>
      <point x="820.5751202061514" y="-110.39699034751833"/>
      <point x="578.2" y="-66.8" type="curve" smooth="yes"/>
      <point x="283.98400763539337" y="-14.998176766250062"/>
      <point x="230.20000000000002" y="34.67962085308057"/>
      <point x="230.20000000000002" y="111.40000000000003" type="curve" smooth="yes"/>
      <point x="230.20000000000002" y="168.79999999999998"/>
      <point x="267.7306369345286" y="226.83268263917142"/>
      <point x="392.79999999999995" y="259.2" type="curve"/>
      <point x="426.0" y="247.20000000000002" type="line"/>
      <point x="367.0" y="219.2"/>
      <point x="346.6" y="194.0"/>
      <point x="346.6" y="162.8" type="curve" smooth="yes"/>
      <point x="346.6" y="123.80000000000001"/>
      <point x="368.09610715685" y="87.51000485568758"/>
    </contour>
    <contour>
      <point x="724.0" y="845.0" type="line" smooth="yes"/>
      <point x="756.8000000000001" y="898.5999999999999" type="line" smooth="yes"/>
      <point x="809.4000000000001" y="988.1999999999999"/>
      <point x="878.0" y="1035.8000000000002"/>
      <point x="950.8000000000001" y="1035.8000000000002" type="curve" smooth="yes"/>
      <point x="1017.5999999999999" y="1035.8000000000002"/>
      <point x="1063.3999999999999" y="997.4"/>
      <point x="1063.3999999999999" y="940.0" type="curve" smooth="yes"/>
      <point x="1063.3999999999999" y="894.2"/>
      <point x="1039.6000000000001" y="864.6"/>
      <point x="1000.5999999999999" y="864.6" type="curve" smooth="yes"/>
      <point x="943.4" y="864.6"/>
      <point x="940.4" y="941.8000000000001"/>
      <point x="884.5999999999999" y="941.8000000000001" type="curve" smooth="yes"/>
      <point x="849.6" y="941.8000000000001"/>
      <point x="821.0000000000001" y="922.8"/>
      <point x="766.1999999999999" y="831.8" type="curve"/>
    </contour>
    <contour>
      <point x="928.8000000000001" y="589.9999999999999" type="curve" smooth="yes"/>
      <point x="928.8000000000001" y="362.40000000000003"/>
      <point x="750.8000000000001" y="208.6"/>
      <point x="514.2" y="208.6" type="curve" smooth="yes"/>
      <point x="278.8" y="208.6"/>
      <point x="111.0" y="365.20000000000005"/>
      <point x="111.0" y="568.1999999999999" type="curve" smooth="yes"/>
      <point x="111.0" y="795.8000000000001"/>
      <point x="289.0" y="949.6"/>
      <point x="525.5999999999999" y="949.6" type="curve" smooth="yes"/>
      <point x="761.0" y="949.6"/>
      <point x="928.8000000000001" y="792.9999999999999"/>
    </contour>
    <contour>
      <point x="499.6000000000001" y="892.5999999999999" type="curve" smooth="yes"/>
      <point x="341.8" y="890.0000000000001"/>
      <point x="254.39999999999995" y="777.6"/>
      <point x="261.40000000000003" y="590.0000000000001" type="curve" smooth="yes"/>
      <point x="268.40000000000003" y="393.79999999999995"/>
      <point x="377.4" y="264.4"/>
      <point x="540.0000000000001" y="267.0" type="curve" smooth="yes"/>
      <point x="697.0" y="269.6"/>
      <point x="785.1999999999999" y="382.0"/>
      <point x="778.2" y="569.5999999999999" type="curve" smooth="yes"/>
      <point x="771.2" y="765.8000000000001"/>
      <point x="662.2" y="895.2"/>
    </contour>
  </outline>
</glyph>
